<svg width="77" height="54" viewBox="0 0 77 54" fill="none" xmlns="http://www.w3.org/2000/svg">
<path fill-rule="evenodd" clip-rule="evenodd" d="M77 0H0V54H77V0ZM39.6361 15H36.8203V17.8017H39.6241V20.6037H36.8203V23.3707H39.6241V26.1383H36.8203V28.9052H39.6361V26.1383H42.4399V23.3707H39.6361V20.6037H42.4399V17.8017H39.6361V15ZM42.3931 29.1128H39.6009V31.8913H42.3931V29.1128ZM36.8203 37.6165V32.082H42.4399V37.6165C42.4398 37.7984 42.4038 37.9784 42.3339 38.1462C42.264 38.3141 42.1617 38.4665 42.0328 38.5947C41.7718 38.8542 41.4181 39 41.0494 39H38.2108C37.8424 39.0001 37.489 38.8544 37.2277 38.5947C37.0987 38.4665 36.9963 38.3141 36.9264 38.1463C36.8565 37.9784 36.8204 37.7984 36.8203 37.6165ZM38.2111 38.0317H41.0494H41.0497V35.2528H38.2111V38.0317Z" fill="#6B7FAD"/>
</svg>
