<svg width="50" height="50" viewBox="0 0 50 50" fill="none" xmlns="http://www.w3.org/2000/svg">
<path d="M24.7957 46.1538C24.0986 46.1538 23.4014 46.1178 22.7043 46.0457C22.0072 45.9736 21.3221 45.8654 20.637 45.7332C19.9519 45.5889 19.2788 45.4207 18.6058 45.2163C17.9327 45.012 17.2837 44.7716 16.6346 44.4952C15.9856 44.2188 15.3606 43.9183 14.7476 43.5817C14.1346 43.2452 13.5457 42.8726 12.9688 42.476C12.3918 42.0793 11.8389 41.6586 11.2981 41.2019C10.7692 40.7452 10.2524 40.2644 9.77164 39.7596C10.3245 38.9543 10.9615 38.2211 11.6707 37.5361C12.3798 36.863 13.137 36.262 13.9663 35.7332C17.0072 33.774 20.8534 32.6923 24.7957 32.6923C28.738 32.6923 32.5841 33.774 35.625 35.7332C36.4543 36.25 37.2115 36.851 37.9207 37.5361C38.6298 38.2091 39.2548 38.9543 39.8197 39.7596C39.3389 40.2644 38.8221 40.7452 38.2933 41.2019C37.7644 41.6586 37.1995 42.0793 36.6226 42.476C36.0457 42.8726 35.4567 43.2452 34.8438 43.5817C34.2308 43.9183 33.6058 44.2308 32.9567 44.4952C32.3077 44.7716 31.6587 45.012 30.9856 45.2163C30.3125 45.4207 29.6394 45.601 28.9543 45.7332C28.2692 45.8654 27.5841 45.9736 26.887 46.0457C26.1899 46.1178 25.4928 46.1538 24.7957 46.1538ZM18.8101 14.0385C20.3245 12.4279 22.4399 11.5385 24.7957 11.5385C27.1514 11.5385 29.2548 12.4279 30.7692 14.0505C32.3077 15.6971 33.0529 17.9087 32.8726 20.2764C32.524 24.988 28.8942 28.8341 24.7957 28.8341C20.6971 28.8341 17.0673 24.988 16.7187 20.2764C16.5385 17.8846 17.2837 15.6731 18.8101 14.0385ZM24.7957 0C11.1298 0 0 11.2139 0 25C0 38.7861 11.1178 50 24.7957 50C38.4736 50 49.5913 38.7861 49.5913 25C49.5913 11.2139 38.4615 0 24.7957 0Z" fill="#DDDDDD"/>
</svg>
