<svg width="29" height="24" viewBox="0 0 29 24" fill="none" xmlns="http://www.w3.org/2000/svg">
<path d="M25.6907 23.6684H2.3094C1.0344 23.6684 0.00315468 22.6497 2.96828e-05 21.3934V5.44343C-0.00309532 4.83718 0.240655 4.25593 0.671905 3.82781C1.10628 3.39968 1.69378 3.15593 2.3094 3.15593H7.40941L9.31566 0.60593C9.45003 0.43093 9.66253 0.33093 9.88441 0.334055H18.4125C18.6282 0.33718 18.8344 0.43718 18.9657 0.60593L20.9969 3.16843H25.6938C26.9688 3.16843 28.0032 4.18718 28.0032 5.44343V21.3934C28 22.6466 26.9657 23.6653 25.6907 23.6684ZM26.5875 5.45593C26.5875 4.96843 26.1844 4.57155 25.6907 4.57155H20.6438C20.4282 4.56843 20.2219 4.46843 20.0907 4.29968L18.0625 1.73406H10.2438L8.33753 4.28406C8.20316 4.45906 7.99066 4.55905 7.76878 4.55593H2.3094C1.81565 4.55593 1.41253 4.95281 1.41253 5.44031V21.3903C1.41565 21.8778 1.81565 22.2747 2.3094 22.2747H25.6907C26.1813 22.2747 26.5782 21.8872 26.5875 21.4028V5.45593ZM23.8594 8.39968C23.3157 8.39968 22.8782 7.9653 22.875 7.43093C22.875 7.0403 23.1157 6.68406 23.4813 6.53718C23.85 6.38718 24.2719 6.46843 24.5532 6.74655C24.8344 7.02468 24.9188 7.44031 24.7657 7.80281C24.6157 8.16218 24.2563 8.39968 23.8594 8.39968ZM14.5594 20.3091C10.7563 20.3028 7.67503 17.2653 7.66566 13.5153C7.66566 9.7653 10.7532 6.7278 14.5563 6.7278C18.3594 6.7278 21.4438 9.76843 21.4438 13.5184C21.4438 17.2653 18.3625 20.3059 14.5594 20.3091ZM14.5594 8.11531C11.5344 8.11843 9.08128 10.5341 9.07816 13.5153C9.07816 16.4966 11.5313 18.9153 14.5563 18.9153C17.5813 18.9153 20.0344 16.4997 20.0344 13.5184C20.0344 10.5341 17.5844 8.11843 14.5594 8.11531Z" fill="#999999"/>
</svg>
