<svg xmlns="http://www.w3.org/2000/svg" viewBox="0 0 128 128" class="design-iconfont" width="128" height="128">
  <path d="M25.125 68.8496C27.375 71.4746 30.575 73.3746 34.275 74.7246C37.6 75.9246 40.9 76.5246 44.025 76.2246" fill="#E1FFFB"></path>
  <path d="M29.9516 92.0496L33.5516 82.1746C35.0016 78.1746 38.3516 77.2746 44.1766 76.2496C50.0016 75.2246 55.2516 71.5496 58.6266 62.2746C60.8266 56.2496 62.7516 46.5996 62.5266 39.8996L48.9016 34.9496L48.5016 34.7996L34.8766 29.8496C30.4016 34.8496 25.6766 43.4746 23.4766 49.4996C20.1016 58.7746 21.7516 64.9496 25.5766 69.4746C29.3766 73.9996 31.3516 76.8496 29.9016 80.8246L26.3016 90.6996C25.2766 93.5246 24.4766 94.1996 21.6016 95.0496C18.7266 95.8996 9.72656 95.9996 9.72656 95.9996L24.3016 101.3L24.7016 101.45L39.2766 106.75C39.2766 106.75 32.4516 100.9 30.8016 98.3996C29.1016 95.8996 28.9266 94.8746 29.9516 92.0496ZM83.1016 80.7996C86.5266 81.3496 90.2016 80.7746 93.8766 79.4246C97.2016 78.2246 100.127 76.5496 102.327 74.2996" fill="#E1FFFB"></path>
  <path d="M101.723 95.475L98.1234 85.6C96.6734 81.6 98.6484 78.75 102.448 74.25C106.273 69.725 107.923 63.525 104.548 54.275C102.348 48.25 97.6234 39.625 93.1484 34.625L79.5234 39.575L79.1234 39.725L65.4984 44.675C65.2734 51.375 67.1984 61.025 69.3984 67.05C72.7734 76.3 78.0234 80 83.8484 81.025C89.6734 82.05 92.9984 82.95 94.4734 86.95L98.0734 96.825C99.0984 99.65 98.9234 100.675 97.2734 103.175C95.6234 105.7 88.7984 111.525 88.7984 111.525L103.373 106.225L103.773 106.075L118.348 100.775C118.348 100.775 109.373 100.7 106.473 99.825C103.548 98.95 102.748 98.275 101.723 95.475Z" fill="#E1FFFB"></path>
  <path d="M34.5016 56.7753C34.0016 56.7753 33.5016 56.7503 33.0016 56.6753C27.6266 56.0503 24.3266 54.5253 23.1516 52.1503C22.1016 50.0253 23.2016 48.0753 23.2516 48.0003C23.4516 47.6503 23.9266 47.5253 24.2766 47.7253C24.6266 47.9253 24.7516 48.4003 24.5516 48.7503C24.5266 48.8253 23.8016 50.1003 24.5016 51.5003C25.1516 52.8003 27.2016 54.4753 33.1766 55.1753C36.7266 55.6003 39.9766 54.2253 43.1016 52.8753C45.3266 51.9253 47.6516 50.9503 50.0016 50.6753C56.5766 49.9253 61.3516 51.4003 61.5516 51.4503C61.7404 51.5129 61.897 51.647 61.988 51.8239C62.0789 52.0007 62.0968 52.2062 62.0379 52.3961C61.9789 52.586 61.8478 52.7452 61.6728 52.8395C61.4977 52.9338 61.2926 52.9556 61.1016 52.9003C61.0516 52.8753 56.4016 51.4503 50.1516 52.1753C48.0266 52.4253 45.9016 53.3253 43.6766 54.2753C40.8016 55.5253 37.8266 56.7753 34.5016 56.7753ZM76.7266 60.5253C69.5016 60.5253 66.1516 56.6003 66.0016 56.4253C65.7266 56.1003 65.7766 55.6253 66.1016 55.3753C66.4266 55.1003 66.9016 55.1503 67.1516 55.4753C67.3016 55.6503 70.8016 59.6503 78.5016 58.9503C86.6766 58.2003 91.1266 54.8253 95.3266 51.1003C100.127 46.8753 102.477 48.2503 102.752 48.4253L101.902 49.6753L101.927 49.7003C101.902 49.7003 100.202 48.8253 96.3266 52.2503C91.9266 56.1253 87.2766 59.6753 78.6516 60.4503C77.9766 60.5003 77.3516 60.5253 76.7266 60.5253ZM46.4516 68.2003C45.4266 68.2003 44.5766 67.3503 44.5766 66.3253C44.5766 65.3003 45.4266 64.4503 46.4516 64.4503C47.4766 64.4503 48.3266 65.3003 48.3266 66.3253C48.3266 67.3503 47.4766 68.2003 46.4516 68.2003ZM46.4516 65.9503C46.2516 65.9503 46.0766 66.1253 46.0766 66.3253C46.0766 66.5253 46.2516 66.7003 46.4516 66.7003C46.6516 66.7003 46.8266 66.5253 46.8266 66.3253C46.8266 66.1253 46.6516 65.9503 46.4516 65.9503ZM82.7016 74.4503C81.6766 74.4503 80.8266 73.6003 80.8266 72.5753C80.8266 71.5503 81.6766 70.7003 82.7016 70.7003C83.7266 70.7003 84.5766 71.5503 84.5766 72.5753C84.5766 73.6003 83.7266 74.4503 82.7016 74.4503ZM82.7016 72.2003C82.5016 72.2003 82.3266 72.3753 82.3266 72.5753C82.3266 72.7753 82.5016 72.9503 82.7016 72.9503C82.9016 72.9503 83.0766 72.7753 83.0766 72.5753C83.0766 72.3753 82.9016 72.2003 82.7016 72.2003ZM75.0766 68.7003C73.8266 68.7003 72.8266 67.7003 72.8266 66.4503C72.8266 65.2003 73.8266 64.2003 75.0766 64.2003C76.3266 64.2003 77.3266 65.2003 77.3266 66.4503C77.3266 67.7003 76.3266 68.7003 75.0766 68.7003ZM75.0766 65.7003C74.6516 65.7003 74.3266 66.0253 74.3266 66.4503C74.3266 66.8753 74.6516 67.2003 75.0766 67.2003C75.5016 67.2003 75.8266 66.8753 75.8266 66.4503C75.8266 66.0253 75.5016 65.7003 75.0766 65.7003ZM46.3266 60.2003C45.0766 60.2003 44.0766 59.2003 44.0766 57.9503C44.0766 56.7003 45.0766 55.7003 46.3266 55.7003C47.5766 55.7003 48.5766 56.7003 48.5766 57.9503C48.5766 59.2003 47.5766 60.2003 46.3266 60.2003ZM46.3266 57.2003C45.9016 57.2003 45.5766 57.5253 45.5766 57.9503C45.5766 58.3753 45.9016 58.7003 46.3266 58.7003C46.7516 58.7003 47.0766 58.3753 47.0766 57.9503C47.0766 57.5253 46.7516 57.2003 46.3266 57.2003Z" fill="#2C3AC4"></path>
  <path d="M72.9742 59.9253C72.4242 59.9253 71.8742 59.6503 71.4742 59.1503C71.0992 58.6753 70.7742 58.1253 71.2742 57.4503C71.2742 57.4503 71.2992 57.4253 71.2992 57.4003V57.3753C71.2992 56.8003 71.6492 56.3003 72.1992 56.0753C72.8742 55.7753 73.7242 55.9253 74.2992 56.4503C75.2742 57.3003 74.6992 58.4253 74.4742 58.8503L74.3992 59.0003C74.2492 59.4253 73.8242 59.7753 73.2992 59.8753C73.1742 59.9003 73.0742 59.9253 72.9742 59.9253ZM72.5992 58.1753L72.6242 58.2003C72.7992 58.4003 72.9242 58.4253 72.9992 58.4253C73.0242 58.3503 73.0742 58.2753 73.1242 58.1753C73.3742 57.6753 73.3242 57.6253 73.2742 57.5753C73.0992 57.4253 72.8992 57.4253 72.7992 57.4753C72.7742 57.7753 72.6992 58.0003 72.5992 58.1753ZM59.7742 36.1753C59.4742 36.1753 59.1992 36.0503 58.9992 35.8003C58.7242 35.4503 58.7242 35.1253 58.8492 34.8753C58.9242 34.6253 59.1242 34.4003 59.3742 34.2753C59.7492 34.1253 60.1742 34.2003 60.4492 34.4753C60.5992 34.6253 60.8992 35.0253 60.5992 35.6253C60.5992 35.6253 60.5992 35.6003 60.6242 35.5753C60.5242 35.8753 60.2742 36.0753 59.9492 36.1503C59.8742 36.1753 59.8242 36.1753 59.7742 36.1753ZM59.4242 35.5753C59.5742 35.7003 59.7742 35.7503 59.9492 35.6753C60.0742 35.6253 60.1742 35.5253 60.2492 35.4003C60.2992 35.1753 60.2492 34.9503 60.1492 34.8253L60.1242 34.8003L59.9242 35.0003L60.0992 34.7753C59.9742 34.6753 59.8242 34.6253 59.6492 34.6503C59.4742 34.6753 59.3242 34.8003 59.2242 34.9503C59.1992 35.1253 59.2242 35.4003 59.4242 35.5753ZM70.2742 23.4253C69.9742 23.4253 69.6992 23.3003 69.4992 23.0503C69.1992 22.7003 69.2242 22.3503 69.3742 22.1003C69.4492 21.8003 69.6742 21.5753 69.9742 21.5003C70.3242 21.4003 70.6992 21.4753 70.9742 21.7503C71.1242 21.9003 71.4242 22.3003 71.1242 22.9003C71.0242 23.1753 70.7742 23.3753 70.4742 23.4253H70.2742ZM69.9242 22.8253C70.0492 22.9503 70.2492 22.9753 70.4242 22.9253C70.5492 22.8753 70.6742 22.7753 70.7492 22.6753C70.7742 22.6003 70.7742 22.5503 70.7742 22.4753L70.0742 22.3503H70.7492C70.7242 22.2503 70.6992 22.1503 70.6492 22.1003L70.6242 22.0753L70.4242 22.2753L70.5992 22.0503C70.4742 21.9503 70.3242 21.9003 70.1492 21.9253C69.9742 21.9503 69.8242 22.0753 69.7242 22.2253C69.6992 22.3753 69.7242 22.6503 69.9242 22.8253ZM69.6992 22.3253C69.6992 22.3253 69.6992 22.3503 69.6742 22.3503C69.6992 22.3503 69.6992 22.3503 69.6992 22.3253ZM36.1992 68.9503C35.7242 68.9503 35.3242 68.5503 35.3242 68.0753C35.3242 67.6003 35.7242 67.2003 36.1992 67.2003C36.6742 67.2003 37.0742 67.6003 37.0742 68.0753C37.0742 68.5503 36.6742 68.9503 36.1992 68.9503ZM36.1992 67.4503C35.8492 67.4503 35.5742 67.7253 35.5742 68.0753C35.5742 68.4253 35.8492 68.7003 36.1992 68.7003C36.5492 68.7003 36.8242 68.4253 36.8242 68.0753C36.8242 67.7253 36.5492 67.4503 36.1992 67.4503Z" fill="#2C3AC4"></path>
  <path d="M71.5748 35.7003C71.5748 35.7003 72.0748 28.4503 75.5748 28.2003C77.6498 28.0503 78.1748 30.2753 77.3248 31.4503C76.7498 32.2503 74.9748 32.2003 74.0748 32.7003C71.8248 33.9503 71.5748 35.7003 71.5748 35.7003ZM66.6248 35.0253C66.6248 35.0253 62.5498 30.9253 64.2498 28.7003C65.2498 27.3753 66.8498 28.2253 67.0998 29.3503C67.2748 30.1253 66.3248 31.1503 66.1498 31.9503C65.6998 33.9503 66.6248 35.0253 66.6248 35.0253ZM54.5498 32.7003C54.5498 32.7003 54.5498 27.3003 52.0998 26.9503C50.3248 26.7003 49.6498 29.2253 51.5748 29.5753C52.3748 29.7253 53.1748 30.1753 53.6748 30.8003C54.3498 31.6503 54.5498 32.7003 54.5498 32.7003ZM59.4248 25.8003C59.4248 25.8003 62.5248 18.7003 59.5248 16.8503C57.3498 15.5003 55.0248 18.4253 57.3248 19.9753C58.2998 20.6253 59.0998 21.7003 59.3748 22.7753C59.7748 24.3003 59.4248 25.8003 59.4248 25.8003Z" fill="#B3BEFF"></path>
  <path d="M88.0731 74.9497C88.0231 74.9497 87.9731 74.9497 87.9231 74.9247C87.8731 74.9247 87.8231 74.8997 87.7731 74.8747C87.7231 74.8497 87.6981 74.8247 87.6481 74.7997C87.5981 74.7747 87.5731 74.7497 87.5231 74.6997C87.3731 74.5497 87.2981 74.3747 87.2981 74.1747C87.2981 73.9747 87.3731 73.7747 87.5231 73.6497C87.5481 73.6247 87.5981 73.5747 87.6481 73.5497C87.6981 73.5247 87.7231 73.4997 87.7731 73.4747C87.8231 73.4497 87.8731 73.4497 87.9231 73.4247C88.1731 73.3747 88.4231 73.4497 88.5981 73.6247C88.7481 73.7747 88.8231 73.9497 88.8231 74.1497C88.8231 74.3497 88.7481 74.5497 88.5981 74.6747C88.5731 74.6997 88.5231 74.7497 88.4731 74.7747C88.4231 74.7997 88.3981 74.8247 88.3481 74.8497C88.2981 74.8747 88.2481 74.8747 88.1981 74.8997C88.1731 74.9497 88.1231 74.9497 88.0731 74.9497ZM96.4231 30.7747C96.2731 30.7747 96.1231 30.7247 95.9981 30.6247C95.6731 30.3747 95.5731 29.9247 95.8231 29.5747L97.4981 27.2247C97.7481 26.8997 98.1981 26.7997 98.5481 27.0497C98.8981 27.2997 98.9731 27.7497 98.7231 28.0997L97.0481 30.4497C96.8981 30.6747 96.6481 30.7747 96.4231 30.7747ZM90.7731 29.6997C90.4231 29.6997 90.1231 29.4497 90.0481 29.0997L89.4481 26.3497C89.3481 25.9497 89.6231 25.5497 90.0231 25.4497C90.4231 25.3497 90.8231 25.6247 90.9231 26.0247L91.5231 28.7747C91.6231 29.1747 91.3481 29.5747 90.9481 29.6747C90.8731 29.6997 90.8231 29.6997 90.7731 29.6997ZM99.6231 35.2497C99.2731 35.2497 98.9481 34.9997 98.8981 34.6247C98.8231 34.2247 99.0981 33.8247 99.4981 33.7497L102.448 33.1997C102.848 33.1247 103.248 33.3997 103.323 33.7997C103.398 34.1997 103.123 34.5997 102.723 34.6747L99.7731 35.2247C99.7231 35.2497 99.6731 35.2497 99.6231 35.2497ZM32.9231 25.2747C32.6231 25.2747 32.3481 25.0997 32.2231 24.7997L31.3231 22.4997C31.1731 22.1247 31.3731 21.6747 31.7481 21.5247C32.1231 21.3747 32.5731 21.5747 32.7231 21.9497L33.6231 24.2497C33.7731 24.6247 33.5731 25.0747 33.1981 25.2247C33.0981 25.2497 33.0231 25.2747 32.9231 25.2747ZM29.5231 28.5497C29.4231 28.5497 29.3231 28.5247 29.2231 28.4997L26.9731 27.5247C26.5981 27.3497 26.4231 26.9247 26.5731 26.5497C26.7481 26.1747 27.1731 25.9997 27.5481 26.1497L29.7981 27.1247C30.1731 27.2997 30.3481 27.7247 30.1981 28.0997C30.0981 28.3747 29.8231 28.5497 29.5231 28.5497ZM37.6481 25.3497C37.5481 25.3497 37.4481 25.3247 37.3481 25.2997C36.9731 25.1247 36.7981 24.6997 36.9481 24.3247L37.9231 22.0747C38.0981 21.6997 38.5231 21.5247 38.8981 21.6747C39.2731 21.8497 39.4481 22.2747 39.2981 22.6497L38.3231 24.8997C38.2231 25.1747 37.9481 25.3497 37.6481 25.3497Z" fill="#2C3AC4"></path>
  <path d="M26.9008 70.2246L33.6758 74.6246L43.0258 76.3246L37.8758 77.6996L34.9758 79.5746L29.4758 93.7246L30.2758 98.4246L38.1758 106.025L10.8008 96.1996L17.1258 95.5496L23.9008 94.2996L26.2758 91.5496L30.4758 78.5246L28.9758 73.8496L26.9008 70.2246Z" fill="#5ACCC3"></path>
  <path d="M101.102 74.8252L94.3266 79.2252L84.9766 80.9002L90.1266 82.2752L93.0516 84.1502L98.5266 98.3002L97.7516 103L89.8266 110.625L117.227 100.775L110.902 100.125L104.127 98.9002L101.752 96.1252L97.5516 83.1252L99.0266 78.4252L101.102 74.8252Z" fill="#FFB3E2"></path>
  <path d="M22.875 50.7002L21.625 57.9502L22.875 64.9502L26.9 70.2252L32.35 74.1752L43.225 76.0502L51.5 73.0502L56.725 67.4502L60.025 58.2252L61.6 51.3752C61.6 51.3752 54.075 50.3252 49.925 50.9752C45.775 51.6252 43.325 54.0752 38.125 55.4002C32.925 56.7252 27.65 54.3252 27.65 54.3252L22.875 50.7002Z" fill="#B3BEFF"></path>
  <path d="M102.024 48.4004L106.549 59.4504L105.924 68.8504L101.599 74.4504L96.3742 78.6754L85.5992 81.1254L77.1992 78.5504L71.6992 73.2254L67.9242 64.1754L66.5742 56.4254C66.5742 56.4254 74.3992 59.2254 78.5742 59.6754C80.5242 59.8754 85.2492 58.7004 88.9742 56.6754C93.2242 54.3504 96.4242 51.1504 96.4242 51.1504L102.024 48.4004Z" fill="#B3BEFF"></path>
  <path d="M42.4268 77.0504C39.8268 77.0504 37.0268 76.5004 34.0268 75.4254C29.9268 73.9254 26.7518 71.8754 24.5518 69.3254C24.2768 69.0004 24.3268 68.5254 24.6268 68.2754C24.9518 68.0004 25.4268 68.0504 25.6768 68.3504C27.7018 70.7004 30.6768 72.6004 34.5268 74.0004C37.9518 75.2504 41.1268 75.7254 43.9518 75.4504C44.3768 75.4004 44.7268 75.7254 44.7768 76.1254C44.8268 76.5254 44.5018 76.9004 44.1018 76.9504C43.5518 77.0254 42.9768 77.0504 42.4268 77.0504Z" fill="#2C3AC4"></path>
  <path d="M39.275 107.5C39.2 107.5 39.1 107.475 39.025 107.45L24.45 102.15L24.05 102L9.47505 96.6999C9.12505 96.5749 8.92505 96.2249 9.00005 95.8749C9.05005 95.5249 9.37505 95.2499 9.72505 95.2499C9.82505 95.2499 18.65 95.1499 21.4 94.3249C24.1 93.5249 24.675 92.9749 25.6 90.4499L29.2 80.5749C30.475 77.0499 28.825 74.5249 25 69.9749C20.4 64.5249 19.675 57.7499 22.775 49.2499C24.875 43.5249 29.625 34.5999 34.325 29.3499C34.525 29.1249 34.85 29.0499 35.15 29.1499L48.7751 34.0999L49.175 34.2499L62.8 39.1999C63.1 39.2999 63.275 39.5749 63.3 39.8749C63.525 46.9249 61.45 56.7999 59.35 62.5249C56.25 71.0249 51.3501 75.7499 44.3251 76.9749C38.4501 77.9999 35.55 78.8749 34.275 82.4249L30.675 92.2999C29.75 94.8499 29.85 95.6499 31.45 97.9749C33.025 100.375 39.725 106.125 39.8 106.175C40.075 106.4 40.15 106.8 39.95 107.125C39.775 107.375 39.525 107.5 39.275 107.5ZM13.675 96.6499L35.85 104.725C33.75 102.8 31.15 100.3 30.175 98.8249C28.3 96.0749 28.15 94.8499 29.25 91.7999L32.85 81.9249C34.45 77.4999 38.15 76.5499 44.05 75.5249C50.5 74.3999 55.025 69.9749 57.925 62.0249C59.925 56.5749 61.9 47.2499 61.8 40.4249L35.1 30.7249C30.625 35.8749 26.175 44.2999 24.175 49.7499C21.275 57.6999 21.925 63.9999 26.15 68.9749C30 73.5499 32.225 76.6499 30.6 81.0749L27 90.9499C25.925 93.9249 24.95 94.8249 21.8 95.7749C20.125 96.2749 16.5 96.5249 13.675 96.6499ZM85.775 81.7499C84.8251 81.7499 83.9 81.6749 83 81.5249C82.6 81.4499 82.325 81.0749 82.375 80.6749C82.45 80.2749 82.825 79.9749 83.225 80.0499C86.35 80.5499 89.85 80.0999 93.625 78.6999C97.05 77.4749 99.8 75.7999 101.8 73.7499C102.1 73.4499 102.575 73.4499 102.85 73.7499C103.15 74.0499 103.15 74.5249 102.85 74.7999C100.7 76.9999 97.75 78.7999 94.125 80.0999C91.175 81.2249 88.375 81.7499 85.775 81.7499Z" fill="#2C3AC4"></path>
  <path d="M88.8016 112.275C88.5516 112.275 88.3016 112.15 88.1516 111.9C87.9766 111.575 88.0266 111.175 88.3016 110.95C88.3766 110.9 95.0516 105.175 96.6266 102.75C98.1766 100.4 98.2766 99.6003 97.3516 97.0753L93.7516 87.2003C92.4516 83.6503 89.5516 82.7753 83.7016 81.7503C76.7016 80.5253 71.7766 75.8003 68.6766 67.3003C66.5766 61.5753 64.5016 51.7003 64.7266 44.6503C64.7266 44.3503 64.9266 44.0753 65.2266 43.9753L78.8516 39.0253L79.2516 38.8753L92.8766 33.9253C93.1766 33.8253 93.4766 33.9003 93.7016 34.1253C98.4016 39.3753 103.152 48.3003 105.252 54.0253C108.352 62.5253 107.627 69.3003 103.027 74.7503C99.2016 79.2753 97.5516 81.8003 98.8266 85.3503L102.427 95.2253C103.352 97.7503 103.952 98.3003 106.677 99.1253C109.452 99.9503 118.252 100.05 118.352 100.05C118.727 100.05 119.027 100.325 119.077 100.675C119.127 101.025 118.927 101.375 118.602 101.5L104.027 106.8L103.627 106.95L89.0516 112.25C88.9766 112.25 88.8766 112.275 88.8016 112.275ZM66.2266 45.2003C66.1016 52.0253 68.1016 61.3253 70.1016 66.7753C73.0016 74.7253 77.5516 79.1253 83.9766 80.2753C89.8516 81.3003 93.5516 82.2503 95.1766 86.6753L98.7766 96.5503C99.8766 99.5753 99.7266 100.825 97.9016 103.575C96.9266 105.05 94.3516 107.55 92.2516 109.45L114.377 101.4C111.552 101.275 107.952 101.025 106.252 100.525C103.052 99.5753 102.102 98.7003 101.002 95.7253L97.4016 85.8503C95.8016 81.4253 98.1266 78.1753 101.852 73.7503C106.077 68.7503 106.727 62.4503 103.827 54.5253C101.827 49.0753 97.3766 40.6503 92.9016 35.5003L66.2266 45.2003ZM34.5016 56.7753C34.0016 56.7753 33.5016 56.7503 33.0016 56.6753C27.6266 56.0503 24.3266 54.5253 23.1516 52.1503C22.1016 50.0253 23.2016 48.0753 23.2516 48.0003C23.4516 47.6503 23.9266 47.5253 24.2766 47.7253C24.6266 47.9253 24.7516 48.4003 24.5516 48.7503C24.5266 48.8253 23.8016 50.1003 24.5016 51.5003C25.1516 52.8003 27.2016 54.4753 33.1766 55.1753C36.7266 55.6003 39.9766 54.2253 43.1016 52.8753C45.3266 51.9253 47.6516 50.9503 50.0016 50.6753C56.5766 49.9253 61.3516 51.4003 61.5516 51.4503C61.7404 51.5129 61.897 51.647 61.988 51.8238C62.0789 52.0007 62.0968 52.2061 62.0379 52.396C61.9789 52.586 61.8478 52.7452 61.6728 52.8395C61.4977 52.9338 61.2926 52.9556 61.1016 52.9003C61.0516 52.8753 56.4016 51.4503 50.1516 52.1753C48.0266 52.4253 45.9016 53.3253 43.6766 54.2753C40.8016 55.5253 37.8266 56.7753 34.5016 56.7753Z" fill="#2C3AC4"></path>
  <path d="M76.7238 60.5251C69.4988 60.5251 66.1488 56.6001 65.9988 56.4251C65.7238 56.1001 65.7738 55.6251 66.0988 55.3751C66.4238 55.1001 66.8988 55.1501 67.1488 55.4751C67.2988 55.6501 70.7988 59.6501 78.4988 58.9501C86.6738 58.2001 91.1238 54.8251 95.3238 51.1001C100.124 46.8751 102.474 48.2501 102.749 48.4251L101.899 49.6751L101.924 49.7001C101.899 49.7001 100.199 48.8251 96.3238 52.2501C91.9238 56.1251 87.2738 59.6751 78.6488 60.4501C77.9738 60.5001 77.3488 60.5251 76.7238 60.5251Z" fill="#2C3AC4"></path>
  <path d="M45.3242 66.3252C45.3242 66.6236 45.4427 66.9097 45.6537 67.1207C45.8647 67.3317 46.1509 67.4502 46.4492 67.4502C46.7476 67.4502 47.0337 67.3317 47.2447 67.1207C47.4557 66.9097 47.5742 66.6236 47.5742 66.3252C47.5742 66.0268 47.4557 65.7407 47.2447 65.5297C47.0337 65.3187 46.7476 65.2002 46.4492 65.2002C46.1509 65.2002 45.8647 65.3187 45.6537 65.5297C45.4427 65.7407 45.3242 66.0268 45.3242 66.3252Z" fill="#fff"></path>
  <path d="M46.4492 68.2002C45.4242 68.2002 44.5742 67.3502 44.5742 66.3252C44.5742 65.3002 45.4242 64.4502 46.4492 64.4502C47.4742 64.4502 48.3242 65.3002 48.3242 66.3252C48.3242 67.3502 47.4742 68.2002 46.4492 68.2002ZM46.4492 65.9502C46.2492 65.9502 46.0742 66.1252 46.0742 66.3252C46.0742 66.5252 46.2492 66.7002 46.4492 66.7002C46.6492 66.7002 46.8242 66.5252 46.8242 66.3252C46.8242 66.1252 46.6492 65.9502 46.4492 65.9502Z" fill="#fff"></path>
  <path d="M81.5742 72.5752C81.5742 72.8736 81.6927 73.1597 81.9037 73.3707C82.1147 73.5817 82.4009 73.7002 82.6992 73.7002C82.9976 73.7002 83.2837 73.5817 83.4947 73.3707C83.7057 73.1597 83.8242 72.8736 83.8242 72.5752C83.8242 72.2768 83.7057 71.9907 83.4947 71.7797C83.2837 71.5687 82.9976 71.4502 82.6992 71.4502C82.4009 71.4502 82.1147 71.5687 81.9037 71.7797C81.6927 71.9907 81.5742 72.2768 81.5742 72.5752Z" fill="#fff"></path>
  <path d="M82.6992 74.4502C81.6742 74.4502 80.8242 73.6002 80.8242 72.5752C80.8242 71.5502 81.6742 70.7002 82.6992 70.7002C83.7242 70.7002 84.5742 71.5502 84.5742 72.5752C84.5742 73.6002 83.7242 74.4502 82.6992 74.4502ZM82.6992 72.2002C82.4992 72.2002 82.3242 72.3752 82.3242 72.5752C82.3242 72.7752 82.4992 72.9502 82.6992 72.9502C82.8992 72.9502 83.0742 72.7752 83.0742 72.5752C83.0742 72.3752 82.8992 72.2002 82.6992 72.2002Z" fill="#fff"></path>
  <path d="M73.5742 66.4502C73.5742 66.848 73.7323 67.2296 74.0136 67.5109C74.2949 67.7922 74.6764 67.9502 75.0742 67.9502C75.472 67.9502 75.8536 67.7922 76.1349 67.5109C76.4162 67.2296 76.5742 66.848 76.5742 66.4502C76.5742 66.0524 76.4162 65.6708 76.1349 65.3895C75.8536 65.1082 75.472 64.9502 75.0742 64.9502C74.6764 64.9502 74.2949 65.1082 74.0136 65.3895C73.7323 65.6708 73.5742 66.0524 73.5742 66.4502Z" fill="#fff"></path>
  <path d="M75.0742 68.7002C73.8242 68.7002 72.8242 67.7002 72.8242 66.4502C72.8242 65.2002 73.8242 64.2002 75.0742 64.2002C76.3242 64.2002 77.3242 65.2002 77.3242 66.4502C77.3242 67.7002 76.3242 68.7002 75.0742 68.7002ZM75.0742 65.7002C74.6492 65.7002 74.3242 66.0252 74.3242 66.4502C74.3242 66.8752 74.6492 67.2002 75.0742 67.2002C75.4992 67.2002 75.8242 66.8752 75.8242 66.4502C75.8242 66.0252 75.4992 65.7002 75.0742 65.7002Z" fill="#FFA6D5"></path>
  <path d="M44.8242 57.9502C44.8242 58.348 44.9823 58.7296 45.2636 59.0109C45.5449 59.2922 45.9264 59.4502 46.3242 59.4502C46.722 59.4502 47.1036 59.2922 47.3849 59.0109C47.6662 58.7296 47.8242 58.348 47.8242 57.9502C47.8242 57.5524 47.6662 57.1708 47.3849 56.8895C47.1036 56.6082 46.722 56.4502 46.3242 56.4502C45.9264 56.4502 45.5449 56.6082 45.2636 56.8895C44.9823 57.1708 44.8242 57.5524 44.8242 57.9502Z" fill="#fff"></path>
  <path d="M46.3242 60.2002C45.0742 60.2002 44.0742 59.2002 44.0742 57.9502C44.0742 56.7002 45.0742 55.7002 46.3242 55.7002C47.5742 55.7002 48.5742 56.7002 48.5742 57.9502C48.5742 59.2002 47.5742 60.2002 46.3242 60.2002ZM46.3242 57.2002C45.8992 57.2002 45.5742 57.5252 45.5742 57.9502C45.5742 58.3752 45.8992 58.7002 46.3242 58.7002C46.7492 58.7002 47.0742 58.3752 47.0742 57.9502C47.0742 57.5252 46.7492 57.2002 46.3242 57.2002Z" fill="#FFA6D5"></path>
  <path d="M73.7756 57.025C74.4256 57.6 73.8256 58.375 73.6756 58.75C73.5506 59.15 72.7006 59.475 72.0506 58.675C71.4006 57.875 72.0506 58.1 72.0506 57.4C72.0506 56.7 73.1256 56.425 73.7756 57.025Z" fill="#fff"></path>
  <path d="M72.975 59.9248C72.425 59.9248 71.875 59.6498 71.475 59.1498C71.1 58.6748 70.775 58.1248 71.275 57.4498C71.275 57.4498 71.3 57.4248 71.3 57.3998V57.3748C71.3 56.7998 71.65 56.2998 72.2 56.0748C72.875 55.7748 73.725 55.9248 74.3 56.4498C75.275 57.2998 74.7 58.4248 74.475 58.8498L74.4 58.9998C74.25 59.4248 73.825 59.7748 73.3 59.8748C73.175 59.8998 73.075 59.9248 72.975 59.9248ZM72.6 58.1748L72.625 58.1998C72.8 58.3998 72.925 58.4248 73 58.4248C73.025 58.3498 73.075 58.2748 73.125 58.1748C73.375 57.6748 73.325 57.6248 73.275 57.5748C73.1 57.4248 72.9 57.4248 72.8 57.4748C72.775 57.7748 72.7 57.9998 72.6 58.1748Z" fill="#FFA6D5"></path>
  <path d="M59.9251 35.0252C60.0501 35.1252 59.9251 35.2752 59.9001 35.3502C59.8751 35.4252 59.7001 35.4752 59.5751 35.3252C59.4501 35.1752 59.5751 35.2252 59.5751 35.1002C59.5751 34.9752 59.8001 34.9002 59.9251 35.0252Z" fill="#E84091"></path>
  <path d="M59.7749 36.1752C59.4749 36.1752 59.1999 36.0502 58.9999 35.8002C58.7249 35.4502 58.7249 35.1252 58.8499 34.8752C58.9249 34.6252 59.1249 34.4002 59.3749 34.2752C59.7499 34.1252 60.1749 34.2002 60.4499 34.4752C60.5999 34.6252 60.8999 35.0252 60.5999 35.6252C60.5999 35.6252 60.5999 35.6002 60.6249 35.5752C60.5249 35.8752 60.2749 36.0752 59.9499 36.1502C59.8749 36.1752 59.8249 36.1752 59.7749 36.1752ZM59.4249 35.5752C59.5749 35.7002 59.7749 35.7502 59.9499 35.6752C60.0749 35.6252 60.1749 35.5252 60.2499 35.4002C60.2999 35.1752 60.2499 34.9502 60.1499 34.8252L60.1249 34.8002L59.9249 35.0002L60.0999 34.7752C59.9749 34.6752 59.8249 34.6252 59.6499 34.6502C59.4749 34.6752 59.3249 34.8002 59.2249 34.9502C59.1999 35.1252 59.2249 35.4002 59.4249 35.5752Z" fill="#FFA6D5"></path>
  <path d="M70.4251 22.2749C70.5501 22.3749 70.4251 22.5249 70.4001 22.5999C70.3751 22.6749 70.2001 22.7249 70.0751 22.5749C69.9501 22.4249 70.0751 22.4749 70.0751 22.3499C70.1001 22.1999 70.3001 22.1499 70.4251 22.2749Z" fill="#E84091"></path>
  <path d="M70.274 23.4253C69.974 23.4253 69.699 23.3003 69.499 23.0503C69.199 22.7003 69.224 22.3503 69.374 22.1003C69.449 21.8003 69.674 21.5753 69.974 21.5003C70.324 21.4003 70.699 21.4753 70.974 21.7503C71.124 21.9003 71.424 22.3003 71.124 22.9003C71.024 23.1753 70.774 23.3753 70.474 23.4253H70.274ZM69.924 22.8253C70.049 22.9503 70.249 22.9753 70.424 22.9253C70.549 22.8753 70.674 22.7753 70.749 22.6753C70.774 22.6003 70.774 22.5503 70.774 22.4753L70.074 22.3503H70.749C70.724 22.2503 70.699 22.1503 70.649 22.1003L70.624 22.0753L70.424 22.2753L70.599 22.0503C70.474 21.9503 70.324 21.9003 70.149 21.9253C69.974 21.9503 69.824 22.0753 69.724 22.2253C69.699 22.3753 69.724 22.6503 69.924 22.8253ZM69.699 22.3253C69.699 22.3253 69.699 22.3503 69.674 22.3503C69.699 22.3503 69.699 22.3503 69.699 22.3253Z" fill="#FFA6D5"></path>
  <path d="M36.0742 68.0752C36.0742 68.1083 36.0874 68.1401 36.1108 68.1636C36.1343 68.187 36.1661 68.2002 36.1992 68.2002C36.2324 68.2002 36.2642 68.187 36.2876 68.1636C36.311 68.1401 36.3242 68.1083 36.3242 68.0752C36.3242 68.042 36.311 68.0103 36.2876 67.9868C36.2642 67.9634 36.2324 67.9502 36.1992 67.9502C36.1661 67.9502 36.1343 67.9634 36.1108 67.9868C36.0874 68.0103 36.0742 68.042 36.0742 68.0752Z" fill="#fff"></path>
  <path d="M36.1992 68.9502C35.7242 68.9502 35.3242 68.5502 35.3242 68.0752C35.3242 67.6002 35.7242 67.2002 36.1992 67.2002C36.6742 67.2002 37.0742 67.6002 37.0742 68.0752C37.0742 68.5502 36.6742 68.9502 36.1992 68.9502ZM36.1992 67.4502C35.8492 67.4502 35.5742 67.7252 35.5742 68.0752C35.5742 68.4252 35.8492 68.7002 36.1992 68.7002C36.5492 68.7002 36.8242 68.4252 36.8242 68.0752C36.8242 67.7252 36.5492 67.4502 36.1992 67.4502Z" fill="#fff"></path>
  <path d="M71.5758 36.4501H71.4758C71.0758 36.4001 70.7758 36.0501 70.8258 35.6501C70.8758 34.8501 71.4758 27.7501 75.5258 27.4501C76.6508 27.3751 77.6008 27.8501 78.1008 28.7501C78.6258 29.7251 78.5758 31.0001 77.9258 31.8751C77.4258 32.5751 76.4508 32.8001 75.6008 33.0001C75.1508 33.1001 74.7008 33.2001 74.4258 33.3501C72.5758 34.3751 72.3008 35.7501 72.3008 35.8001C72.2508 36.1751 71.9258 36.4501 71.5758 36.4501ZM75.7758 28.9501H75.6258C74.2508 29.0501 73.4008 30.8001 72.9008 32.5751C73.1508 32.4001 73.4008 32.2251 73.7258 32.0501C74.1758 31.8001 74.7508 31.6751 75.3008 31.5501C75.8258 31.4251 76.5508 31.2751 76.7508 31.0251C77.0508 30.6001 77.0758 29.9501 76.8258 29.5001C76.6008 29.1251 76.2508 28.9501 75.7758 28.9501Z" fill="#2C3AC4"></path>
  <path d="M66.6231 35.7745C66.4231 35.7745 66.2231 35.6995 66.0731 35.5495C65.5981 35.0745 61.5981 30.8995 63.6231 28.2495C64.1981 27.4745 65.0481 27.1495 65.9231 27.3245C66.8231 27.5245 67.5981 28.2995 67.7981 29.1745C67.9731 29.9245 67.5731 30.6245 67.2231 31.2745C67.0481 31.5745 66.8981 31.8995 66.8481 32.0995C66.4981 33.6745 67.1481 34.4995 67.1731 34.5245C67.4481 34.8245 67.3981 35.2745 67.0981 35.5495C66.9981 35.6995 66.8231 35.7745 66.6231 35.7745ZM65.4731 28.7745C65.2481 28.7745 65.0231 28.8995 64.8481 29.1495C64.2981 29.8745 64.6981 31.0745 65.3481 32.1495L65.4231 31.7745C65.5231 31.3495 65.7481 30.9495 65.9481 30.5495C66.1231 30.2245 66.4231 29.6995 66.3731 29.4995C66.2981 29.1745 65.9731 28.8495 65.6231 28.7745H65.4731Z" fill="#2C3AC4"></path>
  <path d="M54.5514 33.4495C54.2014 33.4495 53.8764 33.1995 53.8264 32.8495C53.8264 32.8245 53.6514 31.9495 53.1014 31.2745C52.7264 30.7995 52.1014 30.4495 51.4514 30.3245C50.0514 30.0745 49.5514 28.9495 49.7014 28.0245C49.8764 26.9995 50.8514 26.0245 52.2264 26.2245C55.2264 26.6495 55.3264 32.0995 55.3264 32.7245C55.3264 33.0995 55.0264 33.4245 54.6514 33.4745C54.6014 33.4495 54.5764 33.4495 54.5514 33.4495ZM51.8514 27.6745C51.3764 27.6745 51.2014 28.0245 51.1764 28.2495C51.1264 28.5495 51.3014 28.7745 51.7014 28.8245C52.2764 28.9245 52.8514 29.1745 53.3514 29.4995C53.0764 28.5495 52.6264 27.7745 52.0014 27.6745H51.8514Z" fill="#2C3AC4"></path>
  <path d="M59.4254 26.5502C59.3504 26.5502 59.2754 26.5502 59.2004 26.5002C58.8254 26.3752 58.6254 26.0002 58.7004 25.6252C58.7004 25.6002 59.0004 24.2752 58.6504 22.9502C58.4254 22.0752 57.7504 21.1502 56.9004 20.5752C55.3754 19.5502 55.3754 18.0002 56.0254 17.0002C56.7504 15.8752 58.3504 15.2252 59.9004 16.1752C63.3504 18.3002 60.4254 25.2752 60.1004 26.0502C60.0004 26.3752 59.7254 26.5502 59.4254 26.5502ZM58.3754 17.2502C57.8754 17.2502 57.5004 17.5502 57.3004 17.8502C57.1254 18.1002 56.8504 18.7502 57.7504 19.3502C58.6754 19.9752 59.4254 20.9002 59.8754 21.8752C60.2504 20.0502 60.2504 18.1752 59.1504 17.4752C58.8504 17.3252 58.6004 17.2502 58.3754 17.2502Z" fill="#2C3AC4"></path>
  <path d="M96.4253 30.7753C96.2753 30.7753 96.1253 30.7253 96.0003 30.6253C95.6753 30.3753 95.5753 29.9253 95.8253 29.5753L97.5003 27.2253C97.7503 26.9003 98.2003 26.8003 98.5503 27.0503C98.9003 27.3003 98.9753 27.7503 98.7253 28.1003L97.0503 30.4503C96.9003 30.6753 96.6503 30.7753 96.4253 30.7753ZM90.7753 29.7003C90.4253 29.7003 90.1253 29.4503 90.0503 29.1003L89.4503 26.3503C89.3503 25.9503 89.6253 25.5503 90.0253 25.4503C90.4253 25.3503 90.8253 25.6253 90.9253 26.0253L91.5253 28.7753C91.6253 29.1753 91.3503 29.5753 90.9503 29.6753C90.8753 29.7003 90.8253 29.7003 90.7753 29.7003ZM99.6253 35.2503C99.2753 35.2503 98.9503 35.0003 98.9003 34.6253C98.8253 34.2253 99.1003 33.8253 99.5003 33.7503L102.45 33.2003C102.85 33.1253 103.25 33.4003 103.325 33.8003C103.4 34.2003 103.125 34.6003 102.725 34.6753L99.7753 35.2253C99.7253 35.2503 99.6753 35.2503 99.6253 35.2503Z" fill="#2C3AC4"></path>
  <path d="M32.9231 25.2747C32.6231 25.2747 32.3481 25.0997 32.2231 24.7997L31.3231 22.4997C31.1731 22.1247 31.3731 21.6747 31.7481 21.5247C32.1231 21.3747 32.5731 21.5747 32.7231 21.9497L33.6231 24.2497C33.7731 24.6247 33.5731 25.0747 33.1981 25.2247C33.0981 25.2497 33.0231 25.2747 32.9231 25.2747ZM29.5231 28.5497C29.4231 28.5497 29.3231 28.5247 29.2231 28.4997L26.9731 27.5247C26.5981 27.3497 26.4231 26.9247 26.5731 26.5497C26.7481 26.1747 27.1731 25.9997 27.5481 26.1497L29.7981 27.1247C30.1731 27.2997 30.3481 27.7247 30.1981 28.0997C30.0981 28.3747 29.8231 28.5497 29.5231 28.5497ZM37.6481 25.3497C37.5481 25.3497 37.4481 25.3247 37.3481 25.2997C36.9731 25.1247 36.7981 24.6997 36.9481 24.3247L37.9231 22.0747C38.0981 21.6997 38.5231 21.5247 38.8981 21.6747C39.2731 21.8497 39.4481 22.2747 39.2981 22.6497L38.3231 24.8997C38.2231 25.1747 37.9481 25.3497 37.6481 25.3497Z" fill="#2C3AC4"></path>
</svg>