<svg width="77" height="54" viewBox="0 0 77 54" fill="none" xmlns="http://www.w3.org/2000/svg">
<path fill-rule="evenodd" clip-rule="evenodd" d="M77 0H0V54H77V0ZM53.8421 19.2249C53.7189 16.3045 51.3153 14 48.3922 14H29.6078C26.6847 14 24.2811 16.3045 24.1579 19.2249C23.9474 24.2242 23.9474 29.2301 24.1579 34.2293C24.2811 37.1498 26.6847 39.4543 29.6078 39.4543H48.3922C51.3153 39.4543 53.7189 37.1498 53.8421 34.2293C54.0526 29.2301 54.0526 24.2242 53.8421 19.2249ZM36.1159 24.9386C36.4644 25.0212 36.7933 25.1716 37.0837 25.3812H37.0832C37.2791 25.5225 37.4553 25.6891 37.6073 25.8767L40.5241 29.4812C40.5434 29.5051 40.5675 29.5249 40.5947 29.5392C40.622 29.5536 40.6518 29.5623 40.6825 29.5647C40.7132 29.5672 40.7441 29.5634 40.7733 29.5536C40.8024 29.5437 40.8293 29.5281 40.8523 29.5076L42.2368 28.2694C42.8059 27.7605 43.5499 27.4916 44.3129 27.5191C45.0759 27.5466 45.7985 27.8685 46.3295 28.4171L46.4222 28.5171L47.8567 30.143C48.1522 30.4781 48.3447 30.8912 48.4112 31.333C48.4777 31.7748 48.4153 32.2263 48.2315 32.6335C48.0477 33.0406 47.7504 33.3861 47.3751 33.6285C46.9998 33.8708 46.5626 33.9998 46.1158 33.9998H35.8314H31.9546C31.6171 33.9995 31.2864 33.9053 30.9994 33.7278C30.7124 33.5502 30.4805 33.2962 30.3296 32.9943L30.1501 32.6362C29.9445 32.225 29.8553 31.7653 29.8924 31.3071C29.9294 30.8489 30.0911 30.4095 30.3601 30.0366L33.276 25.9962C33.4856 25.7058 33.7504 25.4596 34.0552 25.2715C34.36 25.0834 34.6989 24.9572 35.0524 24.9001C35.406 24.843 35.7674 24.8561 36.1159 24.9386ZM41.9405 19.5929C42.1611 19.5015 42.3976 19.4545 42.6363 19.4545C43.1185 19.4545 43.581 19.646 43.922 19.987C44.2629 20.328 44.4545 20.7904 44.4545 21.2726C44.4545 21.7549 44.2629 22.2173 43.922 22.5583C43.581 22.8993 43.1185 23.0908 42.6363 23.0908C42.3976 23.0908 42.1611 23.0438 41.9405 22.9524C41.72 22.861 41.5195 22.7271 41.3507 22.5583C41.1819 22.3895 41.0479 22.189 40.9566 21.9684C40.8652 21.7478 40.8182 21.5114 40.8182 21.2726C40.8182 21.0339 40.8652 20.7975 40.9566 20.5769C41.0479 20.3563 41.1819 20.1558 41.3507 19.987C41.5195 19.8182 41.72 19.6843 41.9405 19.5929Z" fill="#20DDB0"/>
</svg>
