<?xml version="1.0" encoding="UTF-8"?>
<svg width="100px" height="100px" viewBox="0 0 100 100" version="1.1" xmlns="http://www.w3.org/2000/svg" xmlns:xlink="http://www.w3.org/1999/xlink">
    <title>defaultAvatar</title>
    <g id="avatar" stroke="none" stroke-width="1" fill="none" fill-rule="evenodd">
        <g id="defaultAvatar">
            <rect fill="#FFF5F5" x="0" y="0" width="100" height="100"></rect>
            <path d="M58.888889,60.3854976 C58.888889,60.3854976 59.425926,55.8669791 59.5518519,55.5410532 C59.3333333,55.6966087 58.7296296,56.0225346 58.5185186,56.1892013 C57.1777778,57.2521643 53.6444444,57.6151272 50.0407408,57.5336457 C46.4370371,57.6151272 42.9037038,57.2521643 41.5666667,56.1892013 C41.3555556,56.0225346 40.7481481,55.6966087 40.5333334,55.5410532 C40.6592593,55.8669791 41.1962964,60.3892013 41.1925926,60.3854976 C41.3259259,68.6595717 39.8148148,69.8447569 39.062963,72.5669791 C41.4592593,76.8706829 44.9370371,81.0521643 47.3333334,85.355868 C47.851852,86.2854976 48.9740741,86.5003124 49.7074074,87.1743866 L49.7074074,87.5447569 L49.9666667,87.6706829 C49.9925926,87.6262384 50.0185186,87.5892014 50.0444444,87.5484606 C50.0725072,87.5878015 50.0984695,87.6285992 50.1222223,87.6706829 L50.3814815,87.5447569 L50.3814815,87.1743866 C51.1222223,86.5003124 52.2333334,86.2854977 52.7555556,85.355868 C55.1518519,81.0521643 58.6296297,76.8706829 61.025926,72.5669791 C60.2666667,69.8521643 58.7592593,68.6595717 58.888889,60.3854976 L58.888889,60.3854976 Z" fill="#F5C4A5" fill-rule="nonzero"></path>
            <path d="M59.5481481,67.9225347 C59.0592593,69.7743866 53.8888889,76.7077199 51.4814815,79.8743866 C51.1858843,80.2654837 50.7276377,80.4998944 50.2375179,80.5107218 C49.7473981,80.5215491 49.2792468,80.3076037 48.9666667,79.929942 C46.3444444,76.7892013 40.6555556,69.7669791 40.5333334,67.9225347 C27.2814815,69.8521643 15,79.555868 15,91.229942 L15,99.8521643 L85.0851853,99.8521643 C85.0851853,99.8521643 85.3222223,95.818831 85.0851853,89.3780902 C84.651852,77.7114235 72.8000001,69.8521643 59.5481481,67.9225347 L59.5481481,67.9225347 Z" fill="#FF9797" fill-rule="nonzero"></path>
            <path d="M49.7444444,84.8817939 C53.1333333,85.1040162 61.7444444,72.7669791 64.3555556,68.9040162 C62.7698119,68.4888872 61.1624493,68.1612325 59.5407408,67.9225347 C59.051852,69.7743866 53.8814815,76.7077199 51.4740741,79.8743866 C51.1784769,80.2654837 50.7202303,80.4998944 50.2301105,80.5107218 C49.7399907,80.5215491 49.2718394,80.3076037 48.9592593,79.929942 C46.337037,76.7892013 40.6481481,69.7669791 40.525926,67.9225347 C39.002333,68.1470929 37.4953191,68.472499 36.0148148,68.8966087 C38.2851853,72.4447569 46.3111111,84.6669791 49.7444444,84.8817939 L49.7444444,84.8817939 Z" fill="#FFFFFF" fill-rule="nonzero"></path>
            <path d="M36.4703704,53.2966087 C36.9555556,58.4521643 38.6666667,63.2632754 43.5666667,66.8447569 C45.5148148,68.2669791 47.7481481,69.6669791 50.2333334,69.5521643 C51.6555557,69.4892013 52.988889,68.9225347 54.2222223,68.2632754 C64.0185186,63.0225347 63.9111111,53.7114236 63.9222223,44.3040162 C63.9222223,42.5151273 63.8703704,40.6669791 63.0666667,39.0410532 C62.0481481,37.0003124 59.9666667,35.5743865 57.7037037,34.8114236 C52.4703704,33.0373495 46.662963,33.1336458 41.6333334,35.392905 C34.5592593,38.5706829 35.925926,47.518831 36.4703704,53.2966087 Z" fill="#FCD6BD" fill-rule="nonzero"></path>
            <path d="M68.2111111,37.0632754 C67.9444444,35.5447569 67.1185186,33.218831 65.7444444,31.7447569 C65.2602128,30.6628636 64.6905072,29.6212931 64.0407408,28.629942 C61.8481482,25.3336457 58.0629631,23.3817939 54.0407408,23.0743866 C52.1151768,22.9340541 50.18028,22.9923864 48.2666667,23.2484606 C44.5,23.755868 40.5703704,25.2892013 39.0296297,28.8817939 C38.9071331,29.1734541 38.8080546,29.4744051 38.7333334,29.7817939 C38.592518,29.6500294 38.4327107,29.5401619 38.2592593,29.455868 C36.2703704,28.5373495 33.8814815,30.7632754 33.0740741,32.2706829 C31.7962964,34.6410533 31.4370371,37.4040162 31.525926,40.0484606 C31.5883081,41.656243 31.7715411,43.2570554 32.0740741,44.8373495 C32.288889,46.0114236 32.3703704,48.2077199 33.5814815,48.9114236 C36.0740741,50.3336457 38.2333334,44.7780902 38.9444444,43.3817939 C39.8345631,41.5749505 40.3522328,39.6075536 40.4666667,37.5966087 C40.6347985,37.7693408 40.8168979,37.9279036 41.0111111,38.0706829 C42.9037037,39.418831 44.9296297,40.0706829 47.2444444,40.4521643 L52.2296297,41.2817939 C52.6777778,41.355868 53.1333334,41.4336457 53.588889,41.5225347 C55.0185186,41.8040162 56.4481482,42.2077199 57.625926,43.029942 C58.8037037,43.8521642 60.3740741,44.729942 61.2296297,45.9632754 C61.2826896,46.0311118 61.3721507,46.0591 61.4544115,46.0335991 C61.5366723,46.0080983 61.5946152,45.9344148 61.6,45.8484606 L61.6,44.1003124 C61.9,44.7151273 62.2148148,45.318831 62.5703704,45.9003124 C63.0925927,46.7521643 63.1,47.9892013 63.8703704,48.7114236 C64.8666667,49.6447569 65.8148148,48.6410532 66.325926,47.6743866 C66.722242,46.9206305 67.067464,46.141097 67.3592593,45.3410532 C68.3631933,42.7039987 68.6569425,39.8495228 68.2111111,37.0632754 L68.2111111,37.0632754 Z" fill="#7E371C" fill-rule="nonzero"></path>
            <path d="M35.2444444,55.9632754 C35.7888889,56.6114236 36.862963,57.1114236 37.7555556,56.5151273 C38.7851852,55.8336458 38.1481481,54.3410532 38.0074074,53.4854976 C37.7656347,52.1981476 37.4415121,50.9276366 37.0370371,49.6817939 C36.7407408,48.692905 36.1777778,47.0892013 34.3592593,47.5484606 C33.589979,47.7262149 32.9850011,48.3197511 32.7925926,49.0854976 C32.4222222,50.8854976 34.0148148,52.3892013 34.6444444,54.018831 C34.862963,54.6077199 34.7555556,55.2225347 35.1222223,55.7780902 C35.1585979,55.8425913 35.1994381,55.9044706 35.2444444,55.9632754 L35.2444444,55.9632754 Z M64.7592593,55.9632754 C64.2148148,56.6114236 63.1407407,57.1114236 62.2481481,56.5151273 C61.2222223,55.8336458 61.8777777,54.3410532 62,53.4854976 C62.2422709,52.1986088 62.5651287,50.9282068 62.9666667,49.6817939 C63.2666667,48.692905 63.825926,47.0892013 65.6444444,47.5484606 C66.4141499,47.7254388 67.0194704,48.3193112 67.2111111,49.0854976 C67.6,50.8854976 65.9888889,52.3892013 65.3777778,54.018831 C65.1555556,54.6077199 65.262963,55.2225347 64.8962963,55.7780902 C64.8551584,55.8430532 64.809359,55.9049442 64.7592593,55.9632754 L64.7592593,55.9632754 Z" fill="#FCD6BD" fill-rule="nonzero"></path>
        </g>
    </g>
</svg>