<?xml version="1.0" encoding="UTF-8"?>
<svg width="30px" height="30px" viewBox="0 0 30 30" version="1.1" xmlns="http://www.w3.org/2000/svg" xmlns:xlink="http://www.w3.org/1999/xlink">
    <g id="icons" stroke="none" stroke-width="1" fill="none" fill-rule="evenodd">
        <g fill-rule="nonzero">
            <path d="M10.6025627,0.525036476 C14.4392294,-0.614963524 18.6158961,0.17836982 22.0325627,2.16170313 L21.9958961,2.20836979 C21.6358961,2.66503644 21.2792294,3.12170313 20.9225627,3.57836979 C19.7458961,2.96503644 18.5025627,2.49503644 17.2392294,2.10170313 C14.7458961,1.27836979 12.0692294,1.73503648 9.63589607,2.54170313 C9.59922942,2.38170313 9.52922942,2.06170313 9.49589607,1.90170313 C9.82922942,1.50503648 10.1492294,1.09170313 10.4725627,0.685036476 L10.6025627,0.525036476 Z M6.17256273,24.0817031 C7.07922938,24.7783698 8.00589607,25.4683698 9.03589607,25.9717031 C10.9725627,26.4083698 12.9892294,26.2517031 14.9492294,26.5317031 C15.4158961,26.8283698 15.9225628,26.9717031 16.4725627,26.9617031 C15.8292294,27.2050365 15.3525627,27.7117031 14.9825627,28.2750365 C15.7258961,28.3750365 16.4725627,28.4583698 17.2225627,28.5117031 C14.5825627,29.2750365 11.8992294,28.5183698 9.26589607,28.1717031 C7.69589607,27.6350365 6.38589607,26.5583698 5.13256273,25.5050365 C5.47922938,25.0317031 5.82589607,24.5550365 6.17256273,24.0817031 Z" fill="#F9B80F"></path>
            <path d="M0.099229416,12.8217031 C0.735896072,7.22503648 4.89589607,1.96503648 10.4725627,0.685036476 C10.1492294,1.09170313 9.82922938,1.50503648 9.49589607,1.90170313 C9.52922942,2.06170313 9.59922942,2.38170313 9.63589607,2.54170313 L9.69922942,2.81170313 C7.40922942,3.38170313 5.65922942,5.12836979 4.18589607,6.87836979 C1.58922942,10.2683698 0.915896072,15.1317031 2.68589607,19.0450365 C3.37922942,20.9983698 4.64589607,22.6983698 6.17256273,24.0817031 C5.82589607,24.5550365 5.47922938,25.0317031 5.13256273,25.5050365 C1.62256273,22.3583698 -0.494103928,17.5550365 0.099229416,12.8217031 Z" fill="#F9A50E"></path>
            <path d="M9.63589607,2.54170313 C12.0692294,1.73503648 14.7458961,1.27836979 17.2392294,2.10170313 C17.0125628,2.14836979 16.5558961,2.24836979 16.3292294,2.29503648 C14.3492294,2.05503648 12.3825628,2.31836982 10.4758961,2.86836979 L10.2125627,2.90503648 L9.69922942,2.81170313 L9.63589607,2.54170313 L9.63589607,2.54170313 Z" fill="#F0A02E"></path>
            <path d="M10.4758961,2.86836979 C12.3825627,2.31836979 14.3492294,2.05503644 16.3292294,2.29503648 C17.8925628,2.56170313 19.3992294,3.12170313 20.7392294,3.97170313 C20.3992294,5.12836979 20.0458961,6.28503648 19.8392294,7.47503648 C19.4358961,7.48836982 19.0325628,7.50170313 18.6292294,7.51836979 C18.5358961,7.98170313 18.4425628,8.44836979 18.3558961,8.91503648 C17.4492294,9.42170313 16.2725627,9.79836982 15.8758961,10.8550365 C15.5025627,12.0717031 15.6492294,13.6617031 16.8358961,14.3817031 C17.9558961,15.2783698 19.8458961,15.3050365 20.4292294,16.7717031 C20.7458961,17.9450365 19.4792294,18.4983698 18.5225627,18.4183698 C18.5158961,17.5783698 18.1992294,16.8217031 17.3592294,16.5283698 C16.5858961,16.4683698 15.8092294,16.4683698 15.0358961,16.4550365 C15.3258961,17.4983698 15.5892294,18.6850365 16.5258961,19.3550365 C17.0825627,19.6350365 17.7092294,19.7417031 18.2992294,19.9350365 L18.3158961,20.0083698 C18.1225627,20.0717031 17.7392294,20.2017031 17.5458961,20.2650365 C17.3092294,22.2517031 16.8292294,24.2483698 17.0958961,26.2583698 C16.3892294,26.3917031 15.6692294,26.4583698 14.9492294,26.5317031 C12.9892294,26.2517031 10.9725628,26.4083698 9.03589607,25.9717031 L9.72256273,25.8317031 C8.92922938,25.2283698 8.07589607,24.7117031 7.23922942,24.1683698 C7.65589607,22.9650364 7.95922942,21.7217031 8.13589607,20.4583698 C10.4025627,20.4283698 12.6658961,20.4417031 14.9325627,20.4383698 C14.9258961,19.6683698 14.9058961,18.8383698 14.1158961,18.4417031 C13.0758961,18.1317031 11.9825627,18.0917031 10.9058961,18.0883698 C11.8892294,16.8083698 13.1792294,15.7650364 13.9992294,14.3650365 C14.8392294,12.9550365 14.6292294,10.8483698 13.1025627,9.99836979 C12.5758961,9.66170313 12.0358961,9.33836979 11.4658961,9.07836979 C11.0258961,8.87503644 10.5825627,8.68503644 10.1392294,8.49170313 C10.2658961,6.74503648 10.9958961,5.07503648 10.9725627,3.32170313 C10.8492294,3.20836979 10.5992294,2.98170313 10.4758961,2.86836979 Z" fill="#F8BA0E"></path>
            <path d="M16.3292294,2.29503648 C16.5558961,2.24836982 17.0125628,2.14836982 17.2392294,2.10170313 C18.5025628,2.49503648 19.7458961,2.96503648 20.9225627,3.57836979 C23.6625627,5.20503644 25.7158961,7.90836979 26.5858961,10.9683698 C28.0992294,15.6683698 26.2458961,21.0750364 22.4558961,24.1517031 C20.7792294,25.6583698 18.6025627,26.3717031 16.4725627,26.9617031 C15.9225627,26.9717031 15.4158961,26.8283698 14.9492294,26.5317031 C15.6692294,26.4583698 16.3892294,26.3917031 17.0958961,26.2583698 C19.8125627,25.5817031 22.3425627,24.0383698 24.0192294,21.7783698 C26.2558961,18.8883698 27.0558961,14.9483698 26.1525627,11.4117031 C25.4158961,8.34836979 23.3825627,5.65836979 20.7392294,3.97170313 C19.3992294,3.12170313 17.8925628,2.56170313 16.3292294,2.29503648 L16.3292294,2.29503648 Z" fill="#F8CA64"></path>
            <path d="M20.9225627,3.57836979 C21.2792294,3.12170313 21.6358961,2.66503644 21.9958961,2.20836979 C24.6325627,3.91170313 26.9858961,6.30836979 28.1525627,9.25503648 C28.3025627,10.9983698 28.8658961,12.6917031 28.8258961,14.4550365 C28.7992294,18.8450365 26.6825627,23.2083698 23.1458961,25.8417031 C21.4192294,27.1917031 19.3425627,28.0083698 17.2225627,28.5117031 C16.4725627,28.4583698 15.7258961,28.3750365 14.9825627,28.2750365 C15.3525627,27.7117031 15.8292294,27.2050365 16.4725627,26.9617031 C18.6025627,26.3717031 20.7792294,25.6583698 22.4558961,24.1517031 C26.2458961,21.0750365 28.0992294,15.6683698 26.5858961,10.9683698 C25.7158961,7.90836979 23.6625627,5.20503644 20.9225627,3.57836979 L20.9225627,3.57836979 Z" fill="#FBCD10"></path>
            <path d="M4.18589607,6.87836979 C5.65922942,5.12836979 7.40922942,3.38170313 9.69922942,2.81170313 L10.2125627,2.90503648 C7.95256273,3.92170313 5.83256273,5.37836979 4.43589607,7.46503648 C3.18256273,9.22503648 2.51589607,11.3350365 2.21256273,13.4583698 C1.96256273,15.1083698 2.50256273,16.7150364 2.80589607,18.3183698 L2.68589607,19.0450365 C0.915896072,15.1317031 1.58922942,10.2683698 4.18589607,6.87836979 Z" fill="#EC8C18"></path>
            <path d="M4.43589607,7.46503648 C5.83256273,5.37836982 7.95256273,3.92170313 10.2125627,2.90503648 L10.4758961,2.86836979 C10.5992294,2.98170313 10.8492294,3.20836979 10.9725627,3.32170313 C10.9958961,5.07503648 10.2658961,6.74503648 10.1392294,8.49170313 C10.5825628,8.68503648 11.0258961,8.87503648 11.4658961,9.07836979 C10.2025627,8.98836979 8.77922942,8.93170313 7.70922942,9.72503648 C6.82256276,10.4017031 6.13589607,11.6750365 6.76922942,12.7417031 C7.49589607,12.9717031 8.27256276,13.3117031 9.04256273,13.0917031 C9.70589607,12.3317031 10.2758961,11.4950365 10.9225627,10.7183698 C11.4058961,11.4617031 11.7525627,12.4350364 11.2258961,13.2550365 C10.0192294,15.1117031 8.28922942,16.5483698 6.89922942,18.2583698 C6.45922942,18.8250364 6.63922942,19.7117031 7.23589607,20.0983698 C7.46256273,20.1883698 7.91256273,20.3683698 8.13589607,20.4583698 C7.95922942,21.7217031 7.65589607,22.9650364 7.23922942,24.1683698 C5.18256276,22.7417031 3.77922942,20.5883698 2.80589607,18.3183698 C2.50256273,16.7150364 1.96256273,15.1083698 2.21256273,13.4583698 C2.51589607,11.3350364 3.18256273,9.22503644 4.43589607,7.46503648 Z" fill="#F8BA0E"></path>
            <path d="M20.7392294,3.97170313 C23.3825628,5.65836979 25.4158961,8.34836979 26.1525627,11.4117031 C27.0558961,14.9483698 26.2558961,18.8883698 24.0192294,21.7783698 C22.3425628,24.0383698 19.8125628,25.5817031 17.0958961,26.2583698 C16.8292294,24.2483698 17.3092294,22.2517031 17.5458961,20.2650365 C17.7392294,20.2017031 18.1225627,20.0717031 18.3158961,20.0083698 C18.3892294,20.4750364 18.4625627,20.9417031 18.5392294,21.4083698 C18.6925628,21.4783698 18.9992294,21.6183698 19.1525627,21.6850365 C19.5125627,21.8317031 19.8792294,21.9617031 20.2458961,22.0950365 L20.5558961,20.6117031 C21.2658961,20.3417031 22.0625627,20.1917031 22.6525627,19.6783698 C23.8925627,18.4217031 23.7192294,15.9317031 22.0225627,15.1583698 C20.9392294,14.3650364 19.7392294,13.7617031 18.5025627,13.2417031 C18.7825627,12.3450365 19.1325627,11.4750365 19.5325627,10.6250365 C19.9892294,11.2650365 20.3558961,11.9717031 20.8725627,12.5683698 C21.6525627,13.0750364 22.5992294,13.0617031 23.4925627,13.1083698 C23.4125627,11.9683698 23.1592294,10.6850364 22.0158961,10.1550365 C21.2858961,9.68170313 20.4925627,9.31836982 19.7092294,8.94503648 C19.7458961,8.45503648 19.7858961,7.96503648 19.8392294,7.47503648 C20.0458961,6.28503648 20.3992294,5.12836982 20.7392294,3.97170313 Z" fill="#F8BA0E"></path>
            <path d="M18.6292294,7.51836979 C19.0325628,7.50170313 19.4358961,7.48836979 19.8392294,7.47503648 C19.7858961,7.96503648 19.7458961,8.45503648 19.7092294,8.94503648 C20.4925628,9.31836982 21.2858961,9.68170313 22.0158961,10.1550365 C22.2158961,10.8883698 22.3858961,11.6283698 22.5392294,12.3717031 C21.9858961,12.4417031 21.4292294,12.5083698 20.8725627,12.5683698 C20.3558961,11.9717031 19.9892294,11.2650364 19.5325627,10.6250365 C18.5225627,10.5450365 17.9092294,11.2617031 17.5392294,12.1050365 C17.8558961,12.4883698 18.1558961,12.8850365 18.5025627,13.2417031 C19.7392294,13.7617031 20.9392294,14.3650365 22.0225627,15.1583698 C22.5192294,16.3217031 22.7758961,17.8383698 21.9058961,18.8917031 C21.4325627,19.5583698 20.6125627,19.7817031 19.8958961,20.0850365 C19.7192294,20.6483698 19.5758961,21.2483698 19.1525627,21.6850365 C18.9992294,21.6183698 18.6925627,21.4783698 18.5392294,21.4083698 C18.4625628,20.9417031 18.3892294,20.4750365 18.3158961,20.0083698 L18.2992294,19.9350365 C17.7092294,19.7417031 17.0825628,19.6350365 16.5258961,19.3550365 C15.5892294,18.6850365 15.3258961,17.4983698 15.0358961,16.4550365 C15.8092294,16.4683698 16.5858961,16.4683698 17.3592294,16.5283698 C17.4258961,17.3317031 17.7092294,18.1050364 18.5225627,18.4183698 C19.4792294,18.4983698 20.7458961,17.9450364 20.4292294,16.7717031 C19.8458961,15.3050365 17.9558961,15.2783698 16.8358961,14.3817031 C15.6492294,13.6617031 15.5025627,12.0717031 15.8758961,10.8550365 C16.2725627,9.79836982 17.4492294,9.42170313 18.3558961,8.91503648 C18.4425627,8.44836982 18.5358961,7.98170313 18.6292294,7.51836979 L18.6292294,7.51836979 Z" fill="#F8BA0E"></path>
            <path d="M7.70922942,9.72503648 C8.77922942,8.93170313 10.2025628,8.98836982 11.4658961,9.07836979 C12.0358961,9.33836979 12.5758961,9.66170313 13.1025627,9.99836979 C13.3558961,10.8450364 13.9292294,11.7183698 13.6292294,12.6283698 C12.9492294,14.8983698 11.0392294,16.4383698 9.44256273,18.0717031 C9.92922938,18.0750365 10.4192294,18.0950365 10.9058961,18.0883698 C11.9825627,18.0917031 13.0758961,18.1317031 14.1158961,18.4417031 C14.0292294,18.9350365 13.9458961,19.4283698 13.8658961,19.9250365 C11.6558961,19.9850365 9.43256273,19.7683698 7.23589607,20.0983698 C6.63922942,19.7117031 6.45922942,18.8250364 6.89922942,18.2583698 C8.28922942,16.5483698 10.0192294,15.1117031 11.2258961,13.2550365 C11.7525627,12.4350365 11.4058961,11.4617031 10.9225627,10.7183698 C10.4392294,10.7183698 9.96256273,10.7550364 9.48922942,10.8317031 C8.94256276,11.1783698 8.68256276,11.8217031 8.30922942,12.3283698 C7.79589607,12.4650364 7.28256276,12.6017031 6.76922942,12.7417031 C6.13589607,11.6750365 6.82256276,10.4017031 7.70922942,9.72503648 L7.70922942,9.72503648 Z" fill="#F8BA0E"></path>
            <path d="M28.1525627,9.25503648 C29.6725627,12.0183698 29.7125627,15.4083698 29.1058961,18.4417031 C27.9992294,23.5183698 23.8258961,27.7517031 18.8058961,29.0250365 C15.6692294,29.7517031 12.1558961,29.7050365 9.26589607,28.1717031 C11.8992294,28.5183698 14.5825627,29.2750365 17.2225627,28.5117031 C19.3425627,28.0083698 21.4192294,27.1917031 23.1458961,25.8417031 C26.6825627,23.2083698 28.7992294,18.8450365 28.8258961,14.4550365 C28.8658961,12.6917031 28.3025627,10.9983698 28.1525627,9.25503648 Z" fill="#DE8A13"></path>
            <path d="M13.1025627,9.99836979 C14.6292294,10.8483698 14.8392294,12.9550364 13.9992294,14.3650365 C13.1792294,15.7650365 11.8892294,16.8083698 10.9058961,18.0883698 C10.4192294,18.0950364 9.92922942,18.0750364 9.44256273,18.0717031 C11.0392294,16.4383698 12.9492294,14.8983698 13.6292294,12.6283698 C13.9292294,11.7183698 13.3558961,10.8450364 13.1025627,9.99836979 L13.1025627,9.99836979 Z M22.0225627,15.1583698 C23.7192294,15.9317031 23.8925627,18.4217031 22.6525627,19.6783698 C22.0625627,20.1917031 21.2658961,20.3417031 20.5558961,20.6117031 L20.2458961,22.0950365 C19.8792294,21.9617031 19.5125627,21.8317031 19.1525627,21.6850365 C19.5758961,21.2483698 19.7192294,20.6483698 19.8958961,20.0850365 C20.6125627,19.7817031 21.4325627,19.5583698 21.9058961,18.8917031 C22.7758961,17.8383698 22.5192294,16.3217031 22.0225627,15.1583698 L22.0225627,15.1583698 Z M14.1158961,18.4417031 C14.9058961,18.8383698 14.9258961,19.6683698 14.9325627,20.4383698 C12.6658961,20.4417031 10.4025627,20.4283698 8.13589607,20.4583698 C7.91256273,20.3683698 7.46256273,20.1883698 7.23589607,20.0983698 C9.43256273,19.7683698 11.6558961,19.9850364 13.8658961,19.9250365 C13.9458961,19.4283698 14.0292294,18.9350365 14.1158961,18.4417031 Z" fill="#F8BA0E"></path>
            <path d="M22.0158961,10.1550365 C23.1592294,10.6850365 23.4125627,11.9683698 23.4925627,13.1083698 C22.5992294,13.0617031 21.6525627,13.0750364 20.8725627,12.5683698 C21.4292294,12.5083698 21.9858961,12.4417031 22.5392294,12.3717031 C22.3858961,11.6283698 22.2158961,10.8883698 22.0158961,10.1550365 L22.0158961,10.1550365 Z" fill="#F8BA0E"></path>
            <path d="M9.48922942,10.8317031 C9.96256276,10.7550365 10.4392294,10.7183698 10.9225627,10.7183698 C10.2758961,11.4950364 9.70589607,12.3317031 9.04256273,13.0917031 C8.27256273,13.3117031 7.49589607,12.9717031 6.76922942,12.7417031 C7.28256276,12.6017031 7.79589607,12.4650365 8.30922942,12.3283698 C8.68256276,11.8217031 8.94256276,11.1783698 9.48922942,10.8317031 L9.48922942,10.8317031 Z" fill="#F8BA0E"></path>
            <path d="M17.5392294,12.1050365 C17.9092294,11.2617031 18.5225628,10.5450365 19.5325627,10.6250365 C19.1325627,11.4750365 18.7825627,12.3450365 18.5025627,13.2417031 C18.1558961,12.8850365 17.8558961,12.4883698 17.5392294,12.1050365 L17.5392294,12.1050365 Z" fill="#F8BA0E"></path>
            <path d="M17.3592294,16.5283698 C18.1992294,16.8217031 18.5158961,17.5783698 18.5225627,18.4183698 C17.7092294,18.1050364 17.4258961,17.3317031 17.3592294,16.5283698 Z" fill="#F8BA0E"></path>
            <path d="M2.80589607,18.3183698 C3.77922942,20.5883698 5.18256273,22.7417031 7.23922942,24.1683698 C8.07589607,24.7117031 8.92922942,25.2283698 9.72256273,25.8317031 L9.03589607,25.9717031 C8.00589607,25.4683698 7.07922942,24.7783698 6.17256273,24.0817031 C4.64589607,22.6983698 3.37922938,20.9983698 2.68589607,19.0450365 L2.80589607,18.3183698 L2.80589607,18.3183698 Z" fill="#F09F2E"></path>
            <path d="M15.6292294,7.51836979 C16.0325628,7.50170313 16.4358961,7.48836979 16.8392294,7.47503648 C16.7858961,7.96503648 16.7458961,8.45503648 16.7092294,8.94503648 C17.4925628,9.31836982 18.2858961,9.68170313 19.0158961,10.1550365 C19.2158961,10.8883698 19.3858961,11.6283698 19.5392294,12.3717031 C18.9858961,12.4417031 18.4292294,12.5083698 17.8725627,12.5683698 C17.3558961,11.9717031 16.9892294,11.2650364 16.5325627,10.6250365 C15.5225627,10.5450365 14.9092294,11.2617031 14.5392294,12.1050365 C14.8558961,12.4883698 15.1558961,12.8850365 15.5025627,13.2417031 C16.7392294,13.7617031 17.9392294,14.3650365 19.0225627,15.1583698 C19.5192294,16.3217031 19.7758961,17.8383698 18.9058961,18.8917031 C18.4325627,19.5583698 17.6125627,19.7817031 16.8958961,20.0850365 C16.7192294,20.6483698 16.5758961,21.2483698 16.1525627,21.6850365 C15.9992294,21.6183698 15.6925627,21.4783698 15.5392294,21.4083698 C15.4625628,20.9417031 15.3892294,20.4750365 15.3158961,20.0083698 L15.2992294,19.9350365 C14.7092294,19.7417031 14.0825628,19.6350365 13.5258961,19.3550365 C12.5892294,18.6850365 12.3258961,17.4983698 12.0358961,16.4550365 C12.8092294,16.4683698 13.5858961,16.4683698 14.3592294,16.5283698 C14.4258961,17.3317031 14.7092294,18.1050364 15.5225627,18.4183698 C16.4792294,18.4983698 17.7458961,17.9450364 17.4292294,16.7717031 C16.8458961,15.3050365 14.9558961,15.2783698 13.8358961,14.3817031 C12.6492294,13.6617031 12.5025627,12.0717031 12.8758961,10.8550365 C13.2725627,9.79836982 14.4492294,9.42170313 15.3558961,8.91503648 C15.4425627,8.44836982 15.5358961,7.98170313 15.6292294,7.51836979 L15.6292294,7.51836979 Z" fill="#DE8A13"></path>
            <path d="M14.6292294,7.51836979 C15.0325628,7.50170313 15.4358961,7.48836979 15.8392294,7.47503648 C15.7858961,7.96503648 15.7458961,8.45503648 15.7092294,8.94503648 C16.4925628,9.31836982 17.2858961,9.68170313 18.0158961,10.1550365 C18.2158961,10.8883698 18.3858961,11.6283698 18.5392294,12.3717031 C17.9858961,12.4417031 17.4292294,12.5083698 16.8725627,12.5683698 C16.3558961,11.9717031 15.9892294,11.2650364 15.5325627,10.6250365 C14.5225627,10.5450365 13.9092294,11.2617031 13.5392294,12.1050365 C13.8558961,12.4883698 14.1558961,12.8850365 14.5025627,13.2417031 C15.7392294,13.7617031 16.9392294,14.3650365 18.0225627,15.1583698 C18.5192294,16.3217031 18.7758961,17.8383698 17.9058961,18.8917031 C17.4325627,19.5583698 16.6125627,19.7817031 15.8958961,20.0850365 C15.7192294,20.6483698 15.5758961,21.2483698 15.1525627,21.6850365 C14.9992294,21.6183698 14.6925627,21.4783698 14.5392294,21.4083698 C14.4625628,20.9417031 14.3892294,20.4750365 14.3158961,20.0083698 L14.2992294,19.9350365 C13.7092294,19.7417031 13.0825628,19.6350365 12.5258961,19.3550365 C11.5892294,18.6850365 11.3258961,17.4983698 11.0358961,16.4550365 C11.8092294,16.4683698 12.5858961,16.4683698 13.3592294,16.5283698 C13.4258961,17.3317031 13.7092294,18.1050364 14.5225627,18.4183698 C15.4792294,18.4983698 16.7458961,17.9450364 16.4292294,16.7717031 C15.8458961,15.3050365 13.9558961,15.2783698 12.8358961,14.3817031 C11.6492294,13.6617031 11.5025627,12.0717031 11.8758961,10.8550365 C12.2725627,9.79836982 13.4492294,9.42170313 14.3558961,8.91503648 C14.4425627,8.44836982 14.5358961,7.98170313 14.6292294,7.51836979 L14.6292294,7.51836979 Z" fill="#F8E817"></path>
        </g>
    </g>
</svg>