<svg width="44" height="44" viewBox="0 0 44 44" fill="none" xmlns="http://www.w3.org/2000/svg">
<path fill-rule="evenodd" clip-rule="evenodd" d="M10 0C4.47715 0 0 4.47715 0 10V34C0 39.5228 4.47715 44 10 44H34C39.5228 44 44 39.5228 44 34V10C44 4.47715 39.5228 0 34 0H10ZM25.7647 19.0588H27.6353C28.6824 19.0588 29.2 20.3294 28.4588 21.0706L23.0588 26.4706C22.6 26.9294 21.8588 26.9294 21.4 26.4706L16 21.0706C15.2588 20.3294 15.7882 19.0588 16.8353 19.0588H18.7059V13.1765C18.7059 12.5294 19.2353 12 19.8824 12H24.5882C25.2353 12 25.7647 12.5294 25.7647 13.1765V19.0588ZM15.1765 32C14.5294 32 14 31.4706 14 30.8235C14 30.1765 14.5294 29.6471 15.1765 29.6471H29.2941C29.9412 29.6471 30.4706 30.1765 30.4706 30.8235C30.4706 31.4706 29.9412 32 29.2941 32H15.1765Z" fill="#806EF2"/>
</svg>
