<svg width="124" height="124" viewBox="0 0 124 124" fill="none" xmlns="http://www.w3.org/2000/svg">
<path d="M64.7921 119H34.4427C29.3212 119 25.1482 114.827 25.1482 109.705C25.1482 104.584 29.3212 100.411 34.4427 100.411H64.7921C86.0367 100.411 103.108 83.1498 103.108 61.9052C103.108 40.6606 85.847 23.589 64.7921 23.589H33.8736C28.7521 23.589 24.5791 19.416 24.5791 14.2945C24.5791 9.17305 28.7521 5 33.8736 5H64.7921C96.0899 5 121.697 30.6073 121.697 62.0948C121.697 93.5824 96.0899 119 64.7921 119Z" fill="#3C6DD8"/>
<path d="M34.274 84.1704C38.2573 84.1704 40.7232 81.5148 40.7232 77.7211V48.5098C40.7232 44.7161 38.0676 42.0605 34.274 42.0605C30.4803 42.0605 27.8247 44.7161 27.8247 48.5098V77.5314C27.8247 81.5148 30.4803 84.1704 34.274 84.1704Z" fill="#F2BF20"/>
<path d="M58.1739 79.6174C62.1572 79.6174 64.6231 76.9618 64.6231 73.1681V53.8203C64.6231 50.0267 61.9675 47.3711 58.1739 47.3711C54.3802 47.3711 51.7246 50.0267 51.7246 53.8203V73.1681C51.7246 77.1515 54.1905 79.6174 58.1739 79.6174Z" fill="#6A95F1"/>
<path d="M79.4185 75.256C83.4018 75.256 85.8677 72.6004 85.8677 68.8067V59.1328C85.8677 55.3392 83.2122 52.6836 79.4185 52.6836C75.6248 52.6836 72.9692 55.1495 72.9692 59.1328V68.8067C72.9692 72.7901 75.4351 75.256 79.4185 75.256Z" fill="#8AA7E7"/>
</svg>
