<svg width="50" height="50" viewBox="0 0 50 50" fill="none" xmlns="http://www.w3.org/2000/svg">
<path fill-rule="evenodd" clip-rule="evenodd" d="M25 50C38.8071 50 50 38.8071 50 25C50 11.1929 38.8071 0 25 0C11.1929 0 0 11.1929 0 25C0 38.8071 11.1929 50 25 50ZM25 40C33.2843 40 40 33.2843 40 25C40 16.7157 33.2843 10 25 10C16.7157 10 10 16.7157 10 25C10 33.2843 16.7157 40 25 40Z" fill="url(#paint0_linear_5264_9820)"/>
<circle cx="25" cy="25" r="19.65" stroke="url(#paint1_linear_5264_9820)" stroke-width="1.2"/>
<path fill-rule="evenodd" clip-rule="evenodd" d="M35.9096 23.2427C35.9691 22.879 36 22.5056 36 22.125C36 18.328 32.922 15.25 29.125 15.25C26.7223 15.25 24.6075 16.4826 23.3783 18.3499C23.9638 18.7995 26.4731 20.661 29.25 21.75C32.1282 22.8787 35.3354 23.1937 35.9096 23.2427ZM35.7414 23.9994C34.9254 26.8853 32.2722 29 29.125 29C25.328 29 22.25 25.922 22.25 22.125C22.25 20.9989 22.5207 19.936 23.0007 18.998L23 19C23 19 25.8119 21.2498 29 22.5C32.0971 23.7145 35.547 23.9849 35.7414 23.9994Z" fill="url(#paint2_linear_5264_9820)"/>
<defs>
<linearGradient id="paint0_linear_5264_9820" x1="19.1379" y1="-10.4512" x2="-10.4395" y2="29.589" gradientUnits="userSpaceOnUse">
<stop stop-color="#80EE7E"/>
<stop offset="0.494792" stop-color="#54EBB5"/>
<stop offset="1" stop-color="#7B87FD"/>
</linearGradient>
<linearGradient id="paint1_linear_5264_9820" x1="22.0351" y1="-4.10705" x2="-4.24997" y2="28.14" gradientUnits="userSpaceOnUse">
<stop stop-color="#F4F7FF"/>
<stop offset="1" stop-color="#7BF5C9"/>
</linearGradient>
<linearGradient id="paint2_linear_5264_9820" x1="22.25" y1="15.25" x2="22.25" y2="29" gradientUnits="userSpaceOnUse">
<stop stop-color="#8EAEFF"/>
<stop offset="0.708333" stop-color="#70E8AE"/>
</linearGradient>
</defs>
</svg>
