<svg width="77" height="54" viewBox="0 0 77 54" fill="none" xmlns="http://www.w3.org/2000/svg">
<rect width="77" height="54" fill="#586FE6"/>
<path d="M29.75 25.9202C29.75 26.235 29.875 26.5369 30.0976 26.7594C30.3202 26.982 30.6221 27.1071 30.9368 27.1071C31.2516 27.1071 31.5535 26.982 31.776 26.7594C31.9986 26.5369 32.1237 26.235 32.1237 25.9202C32.1237 25.6055 31.9986 25.3036 31.776 25.081C31.5535 24.8584 31.2516 24.7334 30.9368 24.7334C30.6221 24.7334 30.3202 24.8584 30.0976 25.081C29.875 25.3036 29.75 25.6055 29.75 25.9202V25.9202Z" fill="#5873FF"/>
<path d="M34.5 25.9202C34.5 26.235 34.625 26.5369 34.8476 26.7594C35.0702 26.982 35.3721 27.1071 35.6868 27.1071C36.0016 27.1071 36.3035 26.982 36.526 26.7594C36.7486 26.5369 36.8737 26.235 36.8737 25.9202C36.8737 25.6055 36.7486 25.3036 36.526 25.081C36.3035 24.8584 36.0016 24.7334 35.6868 24.7334C35.3721 24.7334 35.0702 24.8584 34.8476 25.081C34.625 25.3036 34.5 25.6055 34.5 25.9202V25.9202Z" fill="#5873FF"/>
<path d="M39.2422 25.9202C39.2422 26.235 39.3672 26.5369 39.5898 26.7594C39.8124 26.982 40.1142 27.1071 40.429 27.1071C40.7438 27.1071 41.0457 26.982 41.2682 26.7594C41.4908 26.5369 41.6158 26.235 41.6158 25.9202C41.6158 25.6055 41.4908 25.3036 41.2682 25.081C41.0457 24.8584 40.7438 24.7334 40.429 24.7334C40.1142 24.7334 39.8124 24.8584 39.5898 25.081C39.3672 25.3036 39.2422 25.6055 39.2422 25.9202V25.9202Z" fill="#5873FF"/>
<path d="M43.9883 25.9202C43.9883 26.235 44.1133 26.5369 44.3359 26.7594C44.5585 26.982 44.8603 27.1071 45.1751 27.1071C45.4899 27.1071 45.7917 26.982 46.0143 26.7594C46.2369 26.5369 46.3619 26.235 46.3619 25.9202C46.3619 25.6055 46.2369 25.3036 46.0143 25.081C45.7917 24.8584 45.4899 24.7334 45.1751 24.7334C44.8603 24.7334 44.5585 24.8584 44.3359 25.081C44.1133 25.3036 43.9883 25.6055 43.9883 25.9202Z" fill="#5873FF"/>
<path d="M49.7062 18.6982C49.7062 19.1515 50.0088 19.453 50.4622 19.453C51.2929 19.453 51.973 20.1318 51.973 20.9626V30.7243H26.5108V18.0193C26.5108 17.1885 27.1909 16.5096 28.0217 16.5096H33.3861C33.7647 16.5096 34.1421 16.5844 34.5195 16.8111L38.7506 19.2263C39.0532 19.4518 39.5066 19.5277 39.884 19.5277H46.6085C47.0619 19.5277 47.3646 19.2263 47.3646 18.7741C47.3646 18.3207 47.0619 18.0193 46.6085 18.0193H39.8828C39.7321 18.0193 39.6573 18.0193 39.5054 17.9433L35.2744 15.5281C34.745 15.2267 34.065 15 33.3849 15H28.0205C27.2204 15.0025 26.4537 15.3214 25.8879 15.887C25.322 16.4527 25.0028 17.2192 25 18.0193V35.9807C25.0028 36.781 25.3222 37.5477 25.8883 38.1134C26.4544 38.6791 27.2213 38.9978 28.0217 39H50.4622C52.1237 39 53.4838 37.6411 53.4838 35.9807V20.9626C53.481 20.1623 53.1617 19.3956 52.5955 18.8299C52.0294 18.2642 51.2625 17.9455 50.4622 17.9433C50.0088 17.9433 49.7062 18.2448 49.7062 18.6982V18.6982ZM51.973 35.9059C51.973 36.7367 51.2929 37.4156 50.4622 37.4156H28.0217C27.1909 37.4156 26.5108 36.7355 26.5108 35.9059V25.0382H51.897V35.9059H51.973V35.9059Z" fill="white"/>
<path d="M50.5626 17.1377C51.1292 17.1377 51.6726 17.3628 52.0732 17.7634C52.4738 18.164 52.6989 18.7074 52.6989 19.274V34.9436C52.7772 36.3038 52.0734 37.417 51.213 37.417H27.9939C27.1335 37.417 26.4297 36.3038 26.4297 34.9436V17.1377H50.5626ZM50.2849 21.4103H28.2099C27.9266 21.4103 27.655 21.5228 27.4546 21.7231C27.2543 21.9234 27.1418 22.1951 27.1418 22.4784C27.1418 22.7617 27.2543 23.0334 27.4546 23.2337C27.655 23.434 27.9266 23.5466 28.2099 23.5466H50.2849C50.5682 23.5466 50.8399 23.434 51.0402 23.2337C51.2405 23.0334 51.353 22.7617 51.353 22.4784C51.353 22.1951 51.2405 21.9234 51.0402 21.7231C50.8399 21.5228 50.5682 21.4103 50.2849 21.4103V21.4103Z" fill="white"/>
<path d="M30.575 27.418C31.2586 27.418 31.8128 27.9722 31.8128 28.6558V28.6618C31.8128 28.9902 31.6824 29.3052 31.4501 29.5375C31.2179 29.7697 30.9028 29.9002 30.5744 29.9002C30.2459 29.9002 29.9309 29.7697 29.6987 29.5375C29.4664 29.3052 29.3359 28.9902 29.3359 28.6618V28.6558C29.3359 27.9722 29.8902 27.418 30.575 27.418ZM34.9093 27.418C35.5929 27.418 36.1471 27.9722 36.1471 28.6558V28.6618C36.1471 28.9902 36.0167 29.3052 35.7844 29.5375C35.5521 29.7697 35.2371 29.9002 34.9087 29.9002C34.5802 29.9002 34.2652 29.7697 34.033 29.5375C33.8007 29.3052 33.6702 28.9902 33.6702 28.6618V28.6558C33.6702 27.9722 34.2257 27.418 34.9093 27.418V27.418ZM39.2436 27.418C39.9272 27.418 40.4814 27.9722 40.4814 28.6558V28.6618C40.4814 28.9901 40.351 29.3049 40.1189 29.5371C39.8867 29.7692 39.5719 29.8996 39.2436 29.8996C38.9153 29.8996 38.6004 29.7692 38.3683 29.5371C38.1361 29.3049 38.0057 28.9901 38.0057 28.6618V28.6558C38.0057 27.9722 38.56 27.418 39.2436 27.418V27.418Z" fill="#5873FF"/>
</svg>
