<?xml version="1.0" standalone="no"?><!DOCTYPE svg PUBLIC "-//W3C//DTD SVG 1.1//EN" "http://www.w3.org/Graphics/SVG/1.1/DTD/svg11.dtd"><svg t="1695470312236" class="icon" viewBox="0 0 1024 1024" version="1.1" xmlns="http://www.w3.org/2000/svg" p-id="8354" xmlns:xlink="http://www.w3.org/1999/xlink" width="16" height="16"><path d="M515.7888 690.3296L860.2624 486.4V162.7136c0-48.1792-37.9392-87.2448-84.6848-87.2448H256c-46.7968 0-84.6848 39.0656-84.6848 87.2448V486.4l344.4736 203.9296z" fill="#FFE37B" p-id="8355"></path><path d="M890.6752 454.7584l-363.3664 228.3008c-7.0656 4.4032-16.0256 4.4032-23.04 0L140.9024 454.7584c-17.8688-11.264-40.192 2.8672-40.192 25.4464v319.7952c0 84.8384 62.8736 153.6 140.4416 153.6h549.2736c77.568 0 140.4416-68.7616 140.4416-153.6V480.2048c0-22.528-22.3232-36.6592-40.192-25.4464zM661.8624 270.592H323.072c-28.2624 0-51.2-22.9376-51.2-51.2s22.9376-51.2 51.2-51.2h338.7392c28.2624 0 51.2 22.9376 51.2 51.2s-22.8864 51.2-51.1488 51.2z" fill="#8C7BFD" p-id="8356"></path><path d="M515.7888 449.536H323.072c-28.2624 0-51.2-22.9376-51.2-51.2s22.9376-51.2 51.2-51.2h192.7168c28.2624 0 51.2 22.9376 51.2 51.2s-22.9376 51.2-51.2 51.2z" fill="#8C7BFD" p-id="8357"></path></svg>