<svg width="17" height="14" viewBox="0 0 17 14" fill="none" xmlns="http://www.w3.org/2000/svg">
<path d="M10.4435 13.6572L16.2778 7.82293C16.7328 7.36787 16.7328 6.62865 16.2778 6.17359L10.4435 0.341294C9.98843 -0.113765 9.24921 -0.113765 8.79415 0.341294C8.33909 0.796352 8.33909 1.53557 8.79415 1.99063L12.6353 5.8318H1.45162C0.807778 5.8318 0.285156 6.35442 0.285156 6.99826C0.285156 7.6421 0.807778 8.16472 1.45162 8.16472H12.6353L8.79415 12.0079C8.56563 12.2344 8.45236 12.5345 8.45236 12.8325C8.45236 13.1306 8.56563 13.4307 8.79415 13.6572C9.24921 14.1143 9.98843 14.1143 10.4435 13.6572Z" fill="black"/>
</svg>
