<?xml version="1.0" standalone="no"?><!DOCTYPE svg PUBLIC "-//W3C//DTD SVG 1.1//EN" "http://www.w3.org/Graphics/SVG/1.1/DTD/svg11.dtd"><svg t="1655900103930" class="icon" viewBox="0 0 1024 1024" version="1.1" xmlns="http://www.w3.org/2000/svg" p-id="5302" xmlns:xlink="http://www.w3.org/1999/xlink" width="32" height="32"><defs><style type="text/css"></style></defs><path d="M524.885333 338.986667L200.362667 663.466667c-17.28 15.274667-27.989333 36.693333-29.696 56.234666v133.76l130.730666 0.085334c22.784-1.621333 43.989333-12.245333 61.013334-31.701334l322.688-322.645333-160.213334-160.213333z m60.373334-60.330667l160.170666 160.213333 102.144-102.144a19.712 19.712 0 0 0 0-27.861333L715.093333 176.426667a19.456 19.456 0 0 0-27.605333 0L585.258667 278.613333zM701.312 85.333333c27.946667 0 54.741333 11.136 74.282667 30.848l132.309333 132.309334a105.045333 105.045333 0 0 1 0 148.565333L424.874667 879.957333c-29.824 34.346667-72.106667 55.466667-120.448 58.794667H85.333333v-42.666667l0.128-179.84c3.626667-44.970667 24.576-86.826667 56.448-114.944l485.12-485.034666A104.789333 104.789333 0 0 1 701.269333 85.333333z" p-id="5303"></path></svg>