<svg width="73" height="64" viewBox="0 0 73 64" fill="none" xmlns="http://www.w3.org/2000/svg">
<path d="M0 22.5435C0 21.1691 0.545973 19.851 1.51781 18.8791C2.48965 17.9073 3.80774 17.3613 5.18213 17.3613H67.3676C68.742 17.3613 70.0601 17.9073 71.032 18.8791C72.0038 19.851 72.5498 21.1691 72.5498 22.5435V53.6362C72.5498 54.9973 72.2817 56.345 71.7608 57.6024C71.24 58.8599 70.4766 60.0024 69.5141 60.9648C68.5517 61.9272 67.4092 62.6907 66.1517 63.2115C64.8943 63.7324 63.5466 64.0005 62.1855 64.0005H10.3643C9.0032 64.0005 7.65547 63.7324 6.39802 63.2115C5.14058 62.6907 3.99803 61.9272 3.03562 60.9648C2.07321 60.0024 1.30978 58.8599 0.788932 57.6024C0.268079 56.345 0 54.9973 0 53.6362V22.5435Z" fill="#446DFF"/>
<path fill-rule="evenodd" clip-rule="evenodd" d="M8.56139 6.39802C8.04054 7.65547 7.77246 9.0032 7.77246 10.3643V35.7904C7.77182 36.7218 8.02224 37.6362 8.49735 38.4373C8.97247 39.2384 9.65473 39.8967 10.4723 40.3428L31.3123 51.7047C32.8344 52.5347 34.5404 52.9696 36.2742 52.9696C38.0079 52.9696 39.7139 52.5347 41.236 51.7047L62.076 40.3377C62.8928 39.8919 63.5746 39.2345 64.0496 38.4343C64.5247 37.6342 64.7756 36.7209 64.7758 35.7904V10.3643C64.7758 9.0032 64.5078 7.65547 63.9869 6.39802C63.4661 5.14057 62.7026 3.99803 61.7402 3.03562C60.7778 2.07321 59.6353 1.30978 58.3778 0.788931C57.1204 0.268079 55.7726 0 54.4116 0H18.1367C16.7757 0 15.4279 0.268079 14.1705 0.788931C12.913 1.30978 11.7705 2.07321 10.8081 3.03562C9.84567 3.99803 9.08225 5.14057 8.56139 6.39802ZM20.571 10.2084C19.8422 10.9373 19.4327 11.9258 19.4327 12.9566C19.4327 13.9874 19.8422 14.976 20.571 15.7049C21.2999 16.4338 22.2885 16.8432 23.3193 16.8432H49.2299C50.2607 16.8432 51.2493 16.4338 51.9782 15.7049C52.707 14.976 53.1165 13.9874 53.1165 12.9566C53.1165 11.9258 52.707 10.9373 51.9782 10.2084C51.2493 9.47952 50.2607 9.07004 49.2299 9.07004H23.3193C22.2885 9.07004 21.2999 9.47952 20.571 10.2084ZM20.571 25.7548C19.8422 26.4837 19.4327 27.4722 19.4327 28.503C19.4327 29.5338 19.8422 30.5224 20.571 31.2512C21.2999 31.9801 22.2885 32.3896 23.3193 32.3896H49.2299C50.2607 32.3896 51.2493 31.9801 51.9782 31.2512C52.707 30.5224 53.1165 29.5338 53.1165 28.503C53.1165 27.4722 52.707 26.4837 51.9782 25.7548C51.2493 25.0259 50.2607 24.6164 49.2299 24.6164H23.3193C22.2885 24.6164 21.2999 25.0259 20.571 25.7548Z" fill="#FFCB44"/>
</svg>
