<svg width="32" height="31" viewBox="0 0 32 31" fill="none" xmlns="http://www.w3.org/2000/svg">
<path d="M19.5933 11.4216C22.112 14.4311 23.2169 17.981 22 18.9996C20 18.5 15.8146 15.8609 15.1863 15.1099C12.6676 12.1004 12.5 9.5 12.4999 7.99989C13.7169 6.98139 17.0746 8.41204 19.5933 11.4216Z" fill="url(#paint0_diamond_7751_1371)"/>
<path d="M18.987 15.7093C20.5836 14.6789 23.3668 13.9818 25.2273 13.248C27.3074 12.4276 30.3787 9.85407 31.1892 8.25241" stroke="url(#paint1_linear_7751_1371)" stroke-linecap="round"/>
<path d="M17.0463 13.6658C18.4431 11.5394 20.2222 7.757 22.2361 7.31629C25.5127 6.59927 26.808 4.95029 26.8228 4.45051" stroke="#EDEE53" stroke-linecap="round"/>
<path d="M19.9896 1.00024C19.0701 2.39029 17.7006 4.64174 17.7892 6.13912C17.9109 8.19709 15.823 9.59457 14.5609 10.8379" stroke="#D15685" stroke-linecap="round"/>
<path d="M12.5 8C10 10.0002 0 31 0 31C4.83333 28.3333 22 19 22 19C15.2558 16.1653 13.1113 13.8708 12.5 8Z" fill="url(#paint2_linear_7751_1371)"/>
<rect x="25" y="16" width="2" height="2" fill="#D85888"/>
<rect x="25" y="8" width="2" height="2" fill="#80EFFA"/>
<rect x="13" y="4" width="2" height="2" fill="#EDEE53"/>
<rect x="23" y="1" width="2" height="2" fill="#80EFFA"/>
<rect x="19" y="5" width="2" height="2" fill="#9349C8"/>
<rect x="21" y="10" width="1.5" height="1.5" fill="#F271A1"/>
<defs>
<radialGradient id="paint0_diamond_7751_1371" cx="0" cy="0" r="1" gradientUnits="userSpaceOnUse" gradientTransform="translate(18.2993 11.7905) rotate(140.768) scale(4.31288 13.7531)">
<stop stop-color="#F7F9FF"/>
<stop offset="1" stop-color="#BABED6"/>
</radialGradient>
<linearGradient id="paint1_linear_7751_1371" x1="19.4411" y1="16.2513" x2="31.6433" y2="8.7944" gradientUnits="userSpaceOnUse">
<stop stop-color="#8C49BE"/>
<stop offset="1" stop-color="#9349C9"/>
</linearGradient>
<linearGradient id="paint2_linear_7751_1371" x1="10.5" y1="10.5" x2="19.5" y2="20.5" gradientUnits="userSpaceOnUse">
<stop stop-color="#B0B4CE"/>
<stop offset="0.49" stop-color="#F1F3FB"/>
<stop offset="1" stop-color="#C1C5DC"/>
</linearGradient>
</defs>
</svg>
