<svg width="35" height="33" viewBox="0 0 35 33" fill="none" xmlns="http://www.w3.org/2000/svg">
<path d="M32.9603 1L19.8203 10.72L22.2703 4.99L32.9603 1Z" fill="#E17726" stroke="#E17726" stroke-width="0.25" stroke-linecap="round" stroke-linejoin="round"/>
<path d="M2.65953 1L15.6795 10.8L13.3495 5L2.65953 1ZM28.2295 23.53L24.7295 28.87L32.2195 30.93L34.3595 23.65L28.2295 23.53V23.53ZM1.26953 23.65L3.39953 30.93L10.8695 28.87L7.38953 23.53L1.26953 23.65V23.65Z" fill="#E27625" stroke="#E27625" stroke-width="0.25" stroke-linecap="round" stroke-linejoin="round"/>
<path d="M10.4696 14.5099L8.38965 17.6499L15.7896 17.9899L15.5496 10.0199L10.4696 14.5199V14.5099ZM25.1496 14.5199L19.9896 9.91992L19.8196 17.9899L27.2196 17.6499L25.1496 14.5199V14.5199ZM10.8696 28.8699L15.3596 26.7099L11.4996 23.7099L10.8696 28.8699ZM20.2696 26.6999L24.7296 28.8699L24.1296 23.6999L20.2696 26.6999Z" fill="#E27625" stroke="#E27625" stroke-width="0.25" stroke-linecap="round" stroke-linejoin="round"/>
<path d="M24.7301 28.8709L20.2701 26.7109L20.6301 29.6109L20.5901 30.8409L24.7301 28.8709ZM10.8701 28.8709L15.0301 30.8409L15.0001 29.6109L15.3601 26.7109L10.8701 28.8709Z" fill="#D5BFB2" stroke="#D5BFB2" stroke-width="0.25" stroke-linecap="round" stroke-linejoin="round"/>
<path d="M15.1004 21.7802L11.4004 20.7002L14.0204 19.5002L15.1104 21.7802H15.1004ZM20.5104 21.7802L21.6104 19.4902L24.2404 20.6902L20.5104 21.7902V21.7802Z" fill="#233447" stroke="#233447" stroke-width="0.25" stroke-linecap="round" stroke-linejoin="round"/>
<path d="M10.8696 28.8704L11.5196 23.5304L7.38965 23.6504L10.8696 28.8704ZM24.0996 23.5304L24.7296 28.8704L28.2296 23.6504L24.0996 23.5304ZM27.2296 17.6504L19.8296 17.9904L20.5096 21.7904L21.6096 19.4904L24.2396 20.6904L27.2296 17.6504V17.6504ZM11.3996 20.7004L14.0196 19.5004L15.1096 21.7804L15.7996 17.9804L8.39965 17.6504L11.3996 20.7004V20.7004Z" fill="#CC6228" stroke="#CC6228" stroke-width="0.25" stroke-linecap="round" stroke-linejoin="round"/>
<path d="M8.40039 17.6504L11.5004 23.7004L11.4004 20.7004L8.40039 17.6504ZM24.2404 20.7004L24.1204 23.7004L27.2204 17.6504L24.2404 20.7004ZM15.8004 17.9904L15.1004 21.7904L15.9804 26.2704L16.1804 20.3604L15.8004 17.9904ZM19.8204 17.9904L19.4604 20.3504L19.6404 26.2704L20.5104 21.7804L19.8204 17.9804V17.9904Z" fill="#E27525" stroke="#E27525" stroke-width="0.25" stroke-linecap="round" stroke-linejoin="round"/>
<path d="M20.5096 21.7792L19.6396 26.2692L20.2696 26.7092L24.1196 23.7092L24.2396 20.6992L20.5096 21.7792ZM11.3996 20.6992L11.4996 23.6992L15.3596 26.6992L15.9796 26.2692L15.1096 21.7792L11.3896 20.6992H11.3996Z" fill="#F5841F" stroke="#F5841F" stroke-width="0.25" stroke-linecap="round" stroke-linejoin="round"/>
<path d="M20.6001 30.8391L20.6301 29.6091L20.2901 29.3291H15.3301L15.0001 29.6091L15.0301 30.8391L10.8701 28.8691L12.3301 30.0691L15.2801 32.0991H20.3301L23.2901 30.0591L24.7301 28.8691L20.5901 30.8391H20.6001Z" fill="#C0AC9D" stroke="#C0AC9D" stroke-width="0.25" stroke-linecap="round" stroke-linejoin="round"/>
<path d="M20.27 26.6995L19.64 26.2695H15.98L15.36 26.7095L15 29.6095L15.33 29.3295H20.29L20.63 29.6095L20.27 26.7095V26.6995Z" fill="#161616" stroke="#161616" stroke-width="0.25" stroke-linecap="round" stroke-linejoin="round"/>
<path d="M33.52 11.35L34.62 6L32.96 1L20.26 10.4L25.15 14.51L32.05 16.52L33.57 14.75L32.91 14.27L33.96 13.31L33.16 12.69L34.21 11.89L33.51 11.35H33.52ZM1 5.99L2.12 11.35L1.4 11.88L2.47 12.68L1.67 13.31L2.71 14.27L2.05 14.75L3.57 16.52L10.47 14.52L15.36 10.39L2.66 1L1 5.99Z" fill="#763E1A" stroke="#763E1A" stroke-width="0.25" stroke-linecap="round" stroke-linejoin="round"/>
<path d="M32.0495 16.5202L25.1495 14.5202L27.2295 17.6502L24.1295 23.7002L28.2295 23.6502H34.3595L32.0495 16.5202ZM10.4695 14.5102L3.56953 16.5202L1.26953 23.6502H7.39953L11.4995 23.7002L8.39953 17.6502L10.4795 14.5102H10.4695ZM19.8195 17.9902L20.2695 10.3902L22.2695 4.99023H13.3495L15.3495 10.3902L15.7995 17.9902L15.9695 20.3702V26.2702H19.6395L19.6595 20.3702L19.8195 17.9902Z" fill="#F5841F" stroke="#F5841F" stroke-width="0.25" stroke-linecap="round" stroke-linejoin="round"/>
</svg>
