<svg width="24px" height="19px" viewBox="0 0 24 19" version="1.1" xmlns="http://www.w3.org/2000/svg" xmlns:xlink="http://www.w3.org/1999/xlink">
    <g id="plugin" stroke="none" stroke-width="1" fill="none" fill-rule="evenodd">
        <g id="web3auth" transform="translate(0.000000, 0.000986)" fill="#0332FF" fill-rule="nonzero">
            <path d="M13.1656405,1.35022744e-05 C13.6326405,1.35022744e-05 14.0416405,0.313013502 14.1626405,0.764013502 L18.5516405,17.1000135 C18.6272211,17.3834081 18.5666349,17.6858355 18.3877215,17.9182466 C18.2088081,18.1506576 17.93194,18.2865881 17.6386405,18.2860153 L15.3586405,18.2860153 C14.9317963,18.2862922 14.5578732,18.0001098 14.4466405,17.5880135 L12.2806405,9.5260135 C12.1606405,9.0760135 11.5186405,9.0760135 11.3976405,9.5260135 L9.23164053,17.5880135 C9.1204079,18.0001098 8.74648473,18.2862922 8.31964053,18.2860153 L6.03964053,18.2860153 C5.74634108,18.2865881 5.46947298,18.1506576 5.29055959,17.9182466 C5.1116462,17.6858355 5.05106001,17.3834081 5.12664053,17.1000135 L9.51564053,0.764013502 C9.63564053,0.314013502 10.0456405,1.35022744e-05 10.5126405,1.35022744e-05 L13.1656405,1.35022744e-05 Z M12.0786405,12.7640135 L12.8796405,15.5920135 C12.9216405,15.7410135 12.8036405,15.8870135 12.6396405,15.8870135 L11.0386405,15.8870135 C10.8746405,15.8870135 10.7566405,15.7410135 10.7986405,15.5920135 L11.5986405,12.7640135 C11.6646405,12.5320135 12.0126405,12.5320135 12.0786405,12.7640135 Z M22.4016405,6.71060401e-06 C22.7047045,-0.00111679851 22.9910254,0.138890354 23.176234,0.37877959 C23.3614426,0.618668827 23.4244317,0.931101214 23.3466405,1.2240135 L19.7316405,14.6390135 C19.6056405,15.1050135 18.9416405,15.1050135 18.8156405,14.6390135 L17.1906405,8.6060135 C17.1624985,8.50120303 17.1624985,8.39082397 17.1906405,8.2860135 L19.2286405,0.720013502 C19.3447758,0.294061871 19.7321419,-0.00107421485 20.1736405,6.71060401e-06 Z M3.20564053,9.93750193e-06 C3.64764053,9.93750193e-06 4.03564053,0.296013502 4.14964053,0.720013502 L6.18564053,8.2760135 C6.21387738,8.38081145 6.21387738,8.49121555 6.18564053,8.5960135 L4.55864053,14.6290135 C4.43364053,15.0950135 3.76864053,15.0950135 3.64264053,14.6290135 L0.0326405336,1.2240135 C-0.0451043205,0.93127151 0.0177652779,0.619021985 0.202743238,0.37917768 C0.387721199,0.139333375 0.673751995,-0.000804899533 0.976640534,9.93750193e-06 L3.20564053,9.93750193e-06 Z"></path>
        </g>
    </g>
</svg>