<svg width="99" height="40" viewBox="0 0 99 40" fill="none" xmlns="http://www.w3.org/2000/svg">
<path fill-rule="evenodd" clip-rule="evenodd" d="M20 40C31.0457 40 40 31.0457 40 20C40 8.9543 31.0457 0 20 0C8.9543 0 0 8.9543 0 20C0 31.0457 8.9543 40 20 40ZM20 32C26.6274 32 32 26.6274 32 20C32 13.3726 26.6274 8 20 8C13.3726 8 8 13.3726 8 20C8 26.6274 13.3726 32 20 32Z" fill="url(#paint0_linear_445_6705)"/>
<circle cx="20" cy="19.9998" r="14.7" stroke="url(#paint1_linear_445_6705)" stroke-width="3"/>
<path fill-rule="evenodd" clip-rule="evenodd" d="M28.7277 18.5944C28.7752 18.3034 28.8 18.0047 28.8 17.7002C28.8 14.6626 26.3376 12.2002 23.3 12.2002C21.3778 12.2002 19.686 13.1862 18.7026 14.6801C19.171 15.0398 21.1785 16.529 23.4 17.4002C25.7025 18.3032 28.2683 18.5552 28.7277 18.5944ZM28.5931 19.1997C27.9403 21.5085 25.8177 23.2002 23.3 23.2002C20.2624 23.2002 17.8 20.7378 17.8 17.7002C17.8 16.7993 18.0166 15.949 18.4005 15.1986L18.4 15.2002C18.4 15.2002 20.6495 17 23.2 18.0002C25.6776 18.9718 28.4376 19.1881 28.5931 19.1997Z" fill="url(#paint2_linear_445_6705)"/>
<path fill-rule="evenodd" clip-rule="evenodd" d="M69.3409 28.8607C69.9091 28.8607 70.4726 28.7716 71.0316 28.5933C71.5906 28.4151 72.0992 28.1477 72.5574 27.7911C72.9973 27.4508 73.3546 27.0213 73.6296 26.5027C73.9045 25.9841 74.0419 25.3602 74.0419 24.6309V15.4906C74.0419 14.7937 73.9045 14.1779 73.6296 13.6431C73.3546 13.1083 72.9973 12.6626 72.5574 12.306C72.0992 11.9657 71.5906 11.7064 71.0316 11.5281C70.4726 11.3499 69.9091 11.2607 69.3409 11.2607C68.7727 11.2607 68.2092 11.3499 67.6502 11.5281C67.0912 11.7064 66.5918 11.9657 66.1519 12.306C65.6937 12.6626 65.3272 13.1083 65.0522 13.6431C64.7773 14.1779 64.6399 14.7937 64.6399 15.4906V24.6309C64.6399 25.3602 64.7773 25.9841 65.0522 26.5027C65.3272 27.0213 65.6937 27.4508 66.1519 27.7911C66.5918 28.1477 67.0912 28.4151 67.6502 28.5933C68.2092 28.7716 68.7727 28.8607 69.3409 28.8607ZM52.3237 28.7149V18.1889H52.3787L55.1278 25.6276H56.5299L59.3065 18.1889H59.3615V28.7149H62.1656V11.4066H59.444L55.8701 20.5712H55.8151L52.2138 11.4066H49.5196V28.7149H52.3237ZM68.0076 25.9558C68.3833 26.2394 68.8277 26.3812 69.3409 26.3812C69.8541 26.3812 70.2985 26.2394 70.6742 25.9558C71.0499 25.6722 71.2378 25.2305 71.2378 24.6309V15.4906C71.2378 14.8909 71.0499 14.4493 70.6742 14.1657C70.2985 13.8821 69.8541 13.7403 69.3409 13.7403C68.8277 13.7403 68.3833 13.8821 68.0076 14.1657C67.6319 14.4493 67.444 14.8909 67.444 15.4906V24.6309C67.444 25.2305 67.6319 25.6722 68.0076 25.9558ZM79.3203 28.7149V21.3248H80.9973L83.6089 28.7149H86.578L83.554 20.8143C84.452 20.3768 85.0797 19.8014 85.4371 19.0884C85.7945 18.3753 85.9732 17.5083 85.9732 16.4873C85.9732 13.1002 84.3237 11.4066 81.0247 11.4066H76.5162V28.7149H79.3203ZM79.3203 19.137H80.9148C81.4096 19.137 81.8037 19.0762 82.0969 18.9547C82.3902 18.8331 82.6192 18.6589 82.7842 18.432C82.9308 18.2051 83.0316 17.9256 83.0866 17.5933C83.1416 17.2611 83.1691 16.8762 83.1691 16.4386C83.1691 16.0011 83.1416 15.6162 83.0866 15.2839C83.0316 14.9517 82.9217 14.6641 82.7567 14.421C82.4085 13.9672 81.7487 13.7403 80.7773 13.7403H79.3203V19.137ZM89.767 28.7149L90.5918 24.9955H94.4131L95.2378 28.7149H98.0419L93.6708 11.4066H91.334L86.9629 28.7149H89.767ZM91.0866 22.6618H93.8907L92.5162 16.39H92.4612L91.0866 22.6618Z" fill="black"/>
<defs>
<linearGradient id="paint0_linear_445_6705" x1="15.3103" y1="-8.36096" x2="-8.3516" y2="23.6712" gradientUnits="userSpaceOnUse">
<stop stop-color="#B839E5"/>
<stop offset="0.387456" stop-color="#7B58EA"/>
<stop offset="1" stop-color="#3944AF"/>
</linearGradient>
<linearGradient id="paint1_linear_445_6705" x1="17.628" y1="-3.28583" x2="-3.39999" y2="22.5118" gradientUnits="userSpaceOnUse">
<stop stop-color="#C760FF"/>
<stop offset="1" stop-color="#7B83F5"/>
</linearGradient>
<linearGradient id="paint2_linear_445_6705" x1="17.8" y1="12.2002" x2="17.8" y2="23.2002" gradientUnits="userSpaceOnUse">
<stop stop-color="#4146B6"/>
<stop offset="1" stop-color="#C751FE"/>
</linearGradient>
</defs>
</svg>
