<svg width="133" height="50" viewBox="0 0 133 50" fill="none" xmlns="http://www.w3.org/2000/svg">
<path fill-rule="evenodd" clip-rule="evenodd" d="M93.0288 37C93.8036 37 94.5721 36.8785 95.3344 36.6354C96.0966 36.3923 96.7902 36.0276 97.415 35.5414C98.0148 35.0773 98.5021 34.4917 98.877 33.7845C99.2519 33.0773 99.4393 32.2265 99.4393 31.232V18.768C99.4393 17.8177 99.2519 16.9779 98.877 16.2486C98.5021 15.5193 98.0148 14.9116 97.415 14.4254C96.7902 13.9613 96.0966 13.6077 95.3344 13.3646C94.5721 13.1215 93.8036 13 93.0288 13C92.2541 13 91.4856 13.1215 90.7233 13.3646C89.961 13.6077 89.28 13.9613 88.6802 14.4254C88.0554 14.9116 87.5555 15.5193 87.1807 16.2486C86.8058 16.9779 86.6183 17.8177 86.6183 18.768V31.232C86.6183 32.2265 86.8058 33.0773 87.1807 33.7845C87.5555 34.4917 88.0554 35.0773 88.6802 35.5414C89.28 36.0276 89.961 36.3923 90.7233 36.6354C91.4856 36.8785 92.2541 37 93.0288 37ZM69.8238 36.802V22.4484H69.8988L73.6476 32.592H75.5595L79.3458 22.4484H79.4208V36.802H83.2446V13.1998H79.5333L74.6598 25.697H74.5848L69.6739 13.1998H66V36.802H69.8238ZM91.2114 33.0399C91.7238 33.4267 92.3298 33.62 93.0296 33.62C93.7294 33.62 94.3354 33.4267 94.8478 33.0399C95.3601 32.6532 95.6163 32.051 95.6163 31.2333V18.7692C95.6163 17.9515 95.3601 17.3493 94.8478 16.9626C94.3354 16.5758 93.7294 16.3825 93.0296 16.3825C92.3298 16.3825 91.7238 16.5758 91.2114 16.9626C90.6991 17.3493 90.4429 17.9515 90.4429 18.7692V31.2333C90.4429 32.051 90.6991 32.6532 91.2114 33.0399ZM106.637 36.802V26.7246H108.923L112.485 36.802H116.534L112.41 26.0285C113.634 25.4318 114.49 24.6473 114.978 23.6749C115.465 22.7025 115.709 21.5202 115.709 20.1279C115.709 15.5091 113.46 13.1998 108.961 13.1998H102.813V36.802H106.637ZM106.637 23.7416H108.812C109.487 23.7416 110.024 23.6587 110.424 23.493C110.824 23.3272 111.136 23.0896 111.361 22.7802C111.561 22.4709 111.698 22.0896 111.773 21.6366C111.848 21.1836 111.886 20.6587 111.886 20.062C111.886 19.4653 111.848 18.9405 111.773 18.4874C111.698 18.0344 111.548 17.6421 111.323 17.3106C110.849 16.6918 109.949 16.3825 108.624 16.3825H106.637V23.7416ZM120.883 36.802L122.008 31.7301H127.218L128.343 36.802H132.167L126.206 13.1998H123.02L117.059 36.802H120.883ZM122.683 28.5464H126.507L124.632 19.994H124.557L122.683 28.5464Z" fill="black"/>
<path fill-rule="evenodd" clip-rule="evenodd" d="M25 50C38.8071 50 50 38.8071 50 25C50 11.1929 38.8071 0 25 0C11.1929 0 0 11.1929 0 25C0 38.8071 11.1929 50 25 50ZM25 40C33.2843 40 40 33.2843 40 25C40 16.7157 33.2843 10 25 10C16.7157 10 10 16.7157 10 25C10 33.2843 16.7157 40 25 40Z" fill="url(#paint0_linear_3131_4759)"/>
<circle cx="25" cy="25" r="18.75" stroke="url(#paint1_linear_3131_4759)" stroke-width="3"/>
<path fill-rule="evenodd" clip-rule="evenodd" d="M35.9095 23.2413C35.969 22.8774 36 22.5038 36 22.123C36 18.3261 32.922 15.248 29.125 15.248C26.722 15.248 24.607 16.4808 23.3779 18.3485C23.9636 18.7982 26.4728 20.6596 29.2495 21.7485C32.1284 22.8775 35.3364 23.1924 35.9095 23.2413ZM35.7412 23.9979C34.9251 26.8836 32.272 28.998 29.125 28.998C25.328 28.998 22.25 25.92 22.25 22.123C22.25 20.9977 22.5204 19.9355 22.9997 18.9978L22.9995 18.9985C22.9995 18.9985 25.8115 21.2483 28.9995 22.4985C32.0984 23.7138 35.5506 23.9838 35.7412 23.9979Z" fill="url(#paint2_linear_3131_4759)"/>
<defs>
<linearGradient id="paint0_linear_3131_4759" x1="19.1379" y1="-10.4512" x2="-10.4395" y2="29.589" gradientUnits="userSpaceOnUse">
<stop stop-color="#B839E5"/>
<stop offset="0.387456" stop-color="#7B58EA"/>
<stop offset="1" stop-color="#3944AF"/>
</linearGradient>
<linearGradient id="paint1_linear_3131_4759" x1="22.0351" y1="-4.10705" x2="-4.24997" y2="28.14" gradientUnits="userSpaceOnUse">
<stop stop-color="#C760FF"/>
<stop offset="1" stop-color="#7B83F5"/>
</linearGradient>
<linearGradient id="paint2_linear_3131_4759" x1="22.25" y1="15.248" x2="22.25" y2="28.998" gradientUnits="userSpaceOnUse">
<stop stop-color="#4146B6"/>
<stop offset="1" stop-color="#C751FE"/>
</linearGradient>
</defs>
</svg>
