<svg width="21" height="8" viewBox="0 0 21 8" fill="none" xmlns="http://www.w3.org/2000/svg">
<g clip-path="url(#clip0_6153_1081)">
<path fill-rule="evenodd" clip-rule="evenodd" d="M15.8202 3.42581C15.8202 3.42581 15.7271 3.71431 15.6307 4.13241L15.5958 4.5106C15.4961 5.62855 16.0462 5.94972 17.2129 5.95334L16.947 7.48058L16.927 7.59098C16.7243 7.60843 16.5099 7.61879 16.2855 7.61879C13.8125 7.61879 12.8768 6.34208 13.3688 3.9821L13.407 3.80243C13.8674 1.59433 15.4944 0.207031 17.5752 0.207031C17.8012 0.207031 18.0106 0.219125 18.2051 0.243484C18.2051 0.243484 17.2205 1.0014 16.9249 1.2488C16.3319 1.74532 16.1359 2.39786 15.8218 3.42581H15.8202Z" fill="url(#paint0_linear_6153_1081)"/>
<path fill-rule="evenodd" clip-rule="evenodd" d="M18.5071 3.5723H17.3316C16.7798 3.5723 16.2518 4.13206 16.2518 4.13206C16.3482 3.71397 16.4412 3.42547 16.4412 3.42547H16.4429C16.757 2.39751 17.111 1.74101 17.8722 1.76191C18.9159 1.79111 18.7248 2.53054 18.5071 3.5723ZM18.1963 0.207031C16.1155 0.207031 14.4884 1.59416 14.0281 3.80209L13.9899 3.98175C13.4979 6.34173 14.4336 7.61844 16.9066 7.61844C18.1896 7.61844 19.1203 7.29885 19.7137 6.98094L20.3518 5.40378C19.7652 5.62475 18.6716 5.95299 17.8489 5.95299C16.6723 5.95299 16.1172 5.63356 16.2169 4.51059H20.5131L20.641 3.89901C21.1313 1.55287 20.533 0.207031 18.1963 0.207031Z" fill="white"/>
<path fill-rule="evenodd" clip-rule="evenodd" d="M5.40178 0.202025L4.13702 7.4806H2.13436L3.19138 2.41669C3.23957 2.16636 1.9183 2.40822 0.799805 3.33253L0.975973 2.3996C1.5211 1.46649 2.05126 0.744505 3.24621 0.257136C4.00073 -0.0521115 4.9198 -0.0968574 5.40178 0.202025Z" fill="url(#paint1_linear_6153_1081)"/>
<mask id="mask0_6153_1081" style="mask-type:alpha" maskUnits="userSpaceOnUse" x="1" y="0" width="13" height="8">
<path fill-rule="evenodd" clip-rule="evenodd" d="M1.57031 0H13.3308V7.48048H1.57031V0Z" fill="white"/>
</mask>
<g mask="url(#mask0_6153_1081)">
<path fill-rule="evenodd" clip-rule="evenodd" d="M12.4086 6.20173L13.2569 2.1371C13.5524 0.721296 12.9434 0.207841 11.7546 0.207841C10.917 0.207841 10.3549 0.782801 9.77324 1.46747L9.76345 1.40717C9.70593 0.814418 9.09484 0.207841 8.29776 0.207841C7.3925 0.207841 6.92167 0.77088 6.46646 1.35172L6.36872 1.49615L6.36241 1.49234L6.46312 1.04402C6.77307 -0.0647808 5.19438 -0.225106 4.01522 0.25708C2.82094 0.745311 2.29111 1.46764 1.74648 2.40056L1.57031 3.3328C2.68715 2.40818 4.00907 2.16716 3.96072 2.41784L2.9042 7.48053H5.21434L6.30057 2.27583C6.57581 2.10393 6.78805 2.02653 7.03817 2.03983C7.46993 2.06281 7.48007 2.24802 7.36424 2.80327L6.388 7.48053H8.68484L9.73636 2.44237C9.745 2.40075 9.75448 2.31747 9.75745 2.27583C10.0491 2.08769 10.2037 2.04312 10.3252 2.03983C10.882 2.0255 10.9371 2.24802 10.8211 2.80327L9.84505 7.48053H11.0945H12.1417H12.8313C12.8313 7.48053 12.1964 7.21863 12.4086 6.20173Z" fill="white"/>
</g>
</g>
<defs>
<linearGradient id="paint0_linear_6153_1081" x1="20.6865" y1="4.03458" x2="13.9731" y2="-0.613311" gradientUnits="userSpaceOnUse">
<stop stop-color="#02A4EF"/>
<stop offset="1" stop-color="#2DFFC4"/>
</linearGradient>
<linearGradient id="paint1_linear_6153_1081" x1="7.70276" y1="3.8631" x2="1.14633" y2="-0.307261" gradientUnits="userSpaceOnUse">
<stop stop-color="#02A4EF"/>
<stop offset="1" stop-color="#2DFFC4"/>
</linearGradient>
<clipPath id="clip0_6153_1081">
<rect width="20" height="7.61905" fill="white" transform="translate(0.799805)"/>
</clipPath>
</defs>
</svg>
