<svg width="280" height="66" viewBox="0 0 280 66" fill="none" xmlns="http://www.w3.org/2000/svg">
<path fill-rule="evenodd" clip-rule="evenodd" d="M33 66C51.2254 66 66 51.2254 66 33C66 14.7746 51.2254 0 33 0C14.7746 0 0 14.7746 0 33C0 51.2254 14.7746 66 33 66ZM32.9992 52.8C43.9344 52.8 52.7992 43.9352 52.7992 33C52.7992 22.0648 43.9344 13.2 32.9992 13.2C22.064 13.2 13.1992 22.0648 13.1992 33C13.1992 43.9352 22.064 52.8 32.9992 52.8Z" fill="url(#paint0_linear_1728_1598)"/>
<circle cx="33.0005" cy="32.9995" r="25.23" stroke="url(#paint1_linear_1728_1598)" stroke-width="3"/>
<path fill-rule="evenodd" clip-rule="evenodd" d="M47.4 30.6803C47.4784 30.2004 47.5191 29.7079 47.5191 29.2059C47.5191 24.1939 43.4561 20.1309 38.4441 20.1309C35.2729 20.1309 32.4815 21.7575 30.859 24.222C31.6324 24.8158 34.9443 27.2727 38.6093 28.7099C42.4085 30.1998 46.642 30.6156 47.4 30.6803ZM47.178 31.6791C46.1013 35.489 42.5988 38.2809 38.4441 38.2809C33.4322 38.2809 29.3691 34.2178 29.3691 29.2059C29.3691 27.7198 29.7263 26.3171 30.3596 25.0791L30.3593 25.0799C30.3593 25.0799 34.0711 28.0496 38.2793 29.6999C42.368 31.3033 46.9226 31.6601 47.178 31.6791Z" fill="url(#paint2_linear_1728_1598)"/>
<path d="M118.48 47V19H111.44L103.32 36.12L95.16 19H88.08V47H93.8V28.12L101.24 44.16H105.36L112.8 28.12V47H118.48ZM134.282 25.28C127.362 25.28 122.722 29.64 122.722 36.24C122.722 42.8 127.362 47.24 134.282 47.24C141.162 47.24 145.802 42.8 145.802 36.24C145.802 29.64 141.162 25.28 134.282 25.28ZM134.282 30.4C137.442 30.4 139.642 32.8 139.642 36.32C139.642 39.84 137.442 42.24 134.282 42.24C131.082 42.24 128.922 39.84 128.922 36.32C128.922 32.8 131.082 30.4 134.282 30.4ZM156.034 25.48H149.874V47H156.034V36.64C156.034 33 158.754 30.64 163.154 31.04V25.24C159.954 25.28 157.514 26.72 156.034 29.36V25.48ZM178.292 47H184.332L184.292 32.96C184.252 28.12 180.932 25.24 175.172 25.24C171.412 25.24 168.652 26.12 165.452 27.72L167.372 31.96C169.612 30.72 171.852 30.08 173.772 30.08C176.732 30.08 178.252 31.4 178.252 33.68V34.08H172.332C167.052 34.12 164.132 36.52 164.132 40.56C164.132 44.48 166.932 47.28 171.532 47.28C174.532 47.28 176.852 46.28 178.292 44.48V47ZM173.252 42.88C171.172 42.88 169.892 41.8 169.892 40.16C169.892 38.44 171.052 37.72 173.412 37.72H178.252V39.64C177.892 41.48 175.852 42.88 173.252 42.88ZM196.92 25.2C192.24 25.2 188.44 27.48 188.44 31.92C188.44 39.48 199.6 37.64 199.6 41.08C199.6 42.24 198.44 42.76 196.88 42.76C194.52 42.76 191.64 41.8 189.4 40.08L187.4 44.24C189.84 46.2 193.24 47.24 196.72 47.24C201.6 47.24 205.48 44.92 205.48 40.52C205.52 32.92 194.16 34.56 194.16 31.32C194.16 30.2 195.2 29.72 196.64 29.72C198.44 29.72 200.84 30.48 203.2 31.8L205.32 27.6C202.92 26.08 199.88 25.2 196.92 25.2ZM218.801 25.28C212.201 25.28 207.761 29.72 207.761 36.32C207.761 42.84 212.201 47.24 218.721 47.24C223.121 47.24 226.481 45.48 228.281 42.48L224.041 39.6C222.961 41.28 221.241 42.12 219.041 42.12C216.041 42.12 213.921 39.76 213.921 36.28C213.921 32.84 216.041 30.52 219.041 30.52C221.161 30.48 222.801 31.36 223.961 32.8L228.121 29.8C226.201 26.92 222.921 25.28 218.801 25.28ZM244.073 47H250.113L250.073 32.96C250.033 28.12 246.713 25.24 240.953 25.24C237.193 25.24 234.433 26.12 231.233 27.72L233.153 31.96C235.393 30.72 237.633 30.08 239.553 30.08C242.513 30.08 244.033 31.4 244.033 33.68V34.08H238.113C232.833 34.12 229.913 36.52 229.913 40.56C229.913 44.48 232.713 47.28 237.313 47.28C240.313 47.28 242.633 46.28 244.073 44.48V47ZM239.033 42.88C236.953 42.88 235.673 41.8 235.673 40.16C235.673 38.44 236.833 37.72 239.193 37.72H244.033V39.64C243.673 41.48 241.633 42.88 239.033 42.88ZM269.021 25.24C265.661 25.28 263.101 26.56 261.581 29.24V25.48H255.421V47H261.581V36.4C261.581 33.24 263.421 30.92 266.501 30.88C269.141 30.88 270.741 32.56 270.741 35.28V47H276.901V33.48C276.901 28.44 273.821 25.24 269.021 25.24Z" fill="black"/>
<defs>
<linearGradient id="paint0_linear_1728_1598" x1="25.262" y1="-13.7956" x2="-13.7801" y2="39.0575" gradientUnits="userSpaceOnUse">
<stop stop-color="#B839E5"/>
<stop offset="0.387456" stop-color="#7B58EA"/>
<stop offset="1" stop-color="#3944AF"/>
</linearGradient>
<linearGradient id="paint1_linear_1728_1598" x1="29.0868" y1="-5.42177" x2="-5.60946" y2="37.1443" gradientUnits="userSpaceOnUse">
<stop stop-color="#C760FF"/>
<stop offset="1" stop-color="#7B83F5"/>
</linearGradient>
<linearGradient id="paint2_linear_1728_1598" x1="29.3691" y1="20.1309" x2="29.3691" y2="38.2809" gradientUnits="userSpaceOnUse">
<stop stop-color="#4146B6"/>
<stop offset="1" stop-color="#C751FE"/>
</linearGradient>
</defs>
</svg>
