<svg width="160" height="36" viewBox="0 0 160 36" fill="none" xmlns="http://www.w3.org/2000/svg">
<path d="M150 0H10C4.47715 0 0 4.47715 0 10V26C0 31.5228 4.47715 36 10 36H150C155.523 36 160 31.5228 160 26V10C160 4.47715 155.523 0 150 0Z" fill="#2D2D2D"/>
<path d="M145.082 11C144.662 11 144.383 11.28 144.383 11.7V16.6C144.383 18.56 142.842 20.1 140.883 20.1H131.363L133.672 17.79C133.952 17.51 133.952 17.09 133.672 16.81C133.392 16.53 132.973 16.53 132.693 16.81L129.193 20.31C129.123 20.38 129.053 20.45 129.053 20.52C128.983 20.66 128.983 20.87 129.053 21.08C129.123 21.15 129.123 21.22 129.193 21.29L132.693 24.79C132.833 24.93 132.972 25 133.182 25C133.392 25 133.532 24.93 133.672 24.79C133.952 24.51 133.952 24.09 133.672 23.81L131.363 21.5H140.883C143.613 21.5 145.782 19.33 145.782 16.6V11.7C145.782 11.28 145.503 11 145.082 11Z" fill="#999999"/>
<path d="M16.376 22.456C16.376 22.808 16.648 23.08 17 23.08C17.352 23.08 17.608 22.808 17.608 22.456V18.28C17.608 16.76 18.6 15.672 19.912 15.672C21.224 15.672 22.04 16.584 22.04 18.136V22.456C22.04 22.808 22.312 23.08 22.648 23.08C23 23.08 23.272 22.808 23.272 22.456V18.232C23.272 16.6 24.296 15.672 25.544 15.672C26.888 15.672 27.688 16.568 27.688 18.168V22.456C27.688 22.808 27.96 23.08 28.312 23.08C28.648 23.08 28.92 22.808 28.92 22.456V17.88C28.92 15.832 27.752 14.552 25.848 14.552C24.408 14.552 23.528 15.288 22.936 16.2C22.488 15.272 21.624 14.552 20.28 14.552C18.888 14.552 18.152 15.304 17.608 16.12V15.272C17.608 14.92 17.336 14.648 16.984 14.648C16.648 14.648 16.376 14.936 16.376 15.272V22.456ZM35.371 23.192C37.867 23.192 39.707 21.208 39.707 18.872V18.84C39.707 16.504 37.883 14.552 35.403 14.552C32.907 14.552 31.083 16.536 31.083 18.872V18.904C31.083 21.24 32.891 23.192 35.371 23.192ZM35.403 22.088C33.659 22.088 32.347 20.648 32.347 18.872V18.84C32.347 17.096 33.579 15.64 35.371 15.64C37.115 15.64 38.443 17.096 38.443 18.872V18.904C38.443 20.648 37.195 22.088 35.403 22.088ZM41.939 22.456C41.939 22.808 42.211 23.08 42.562 23.08C42.914 23.08 43.171 22.792 43.171 22.456V19.64C43.171 17.256 44.483 16.056 46.083 15.864C46.403 15.816 46.627 15.576 46.627 15.24C46.627 14.888 46.387 14.616 46.019 14.616C44.979 14.616 43.779 15.448 43.171 16.824V15.272C43.171 14.92 42.899 14.648 42.547 14.648C42.211 14.648 41.939 14.936 41.939 15.272V22.456ZM50.481 23.176C51.937 23.176 52.897 22.504 53.473 21.752V22.504C53.473 22.824 53.713 23.08 54.065 23.08C54.401 23.08 54.657 22.824 54.657 22.472V17.944C54.657 16.888 54.369 16.088 53.809 15.528C53.201 14.92 52.305 14.616 51.137 14.616C50.081 14.616 49.249 14.824 48.433 15.176C48.273 15.24 48.097 15.432 48.097 15.688C48.097 15.976 48.353 16.216 48.641 16.216C48.705 16.216 48.785 16.2 48.865 16.168C49.473 15.896 50.177 15.704 51.009 15.704C52.561 15.704 53.473 16.472 53.473 17.96V18.248C52.737 18.04 51.985 17.896 50.929 17.896C48.833 17.896 47.393 18.824 47.393 20.568V20.6C47.393 22.296 48.945 23.176 50.481 23.176ZM50.721 22.2C49.601 22.2 48.641 21.592 48.641 20.552V20.52C48.641 19.48 49.505 18.808 51.057 18.808C52.065 18.808 52.881 18.984 53.489 19.16V19.96C53.489 21.272 52.241 22.2 50.721 22.2ZM57.106 21.992V22.312C57.106 22.744 57.426 23.08 57.874 23.08C58.306 23.08 58.626 22.744 58.626 22.312V21.992C58.626 21.56 58.306 21.24 57.874 21.24C57.426 21.24 57.106 21.56 57.106 21.992ZM63.668 23.176C65.124 23.176 66.084 22.504 66.66 21.752V22.504C66.66 22.824 66.9 23.08 67.252 23.08C67.588 23.08 67.844 22.824 67.844 22.472V17.944C67.844 16.888 67.556 16.088 66.996 15.528C66.388 14.92 65.492 14.616 64.324 14.616C63.268 14.616 62.436 14.824 61.62 15.176C61.46 15.24 61.284 15.432 61.284 15.688C61.284 15.976 61.54 16.216 61.828 16.216C61.892 16.216 61.972 16.2 62.052 16.168C62.66 15.896 63.364 15.704 64.196 15.704C65.748 15.704 66.66 16.472 66.66 17.96V18.248C65.924 18.04 65.172 17.896 64.116 17.896C62.02 17.896 60.58 18.824 60.58 20.568V20.6C60.58 22.296 62.132 23.176 63.668 23.176ZM63.908 22.2C62.788 22.2 61.828 21.592 61.828 20.552V20.52C61.828 19.48 62.692 18.808 64.244 18.808C65.252 18.808 66.068 18.984 66.676 19.16V19.96C66.676 21.272 65.428 22.2 63.908 22.2ZM70.47 25.016C70.47 25.368 70.742 25.64 71.094 25.64C71.446 25.64 71.702 25.368 71.702 25.016V21.416C72.342 22.344 73.334 23.176 74.87 23.176C76.87 23.176 78.822 21.576 78.822 18.872V18.84C78.822 16.12 76.854 14.552 74.87 14.552C73.35 14.552 72.374 15.4 71.702 16.392V15.272C71.702 14.92 71.43 14.648 71.078 14.648C70.742 14.648 70.47 14.92 70.47 15.272V25.016ZM74.646 22.072C73.11 22.072 71.654 20.792 71.654 18.872V18.84C71.654 16.952 73.11 15.656 74.646 15.656C76.214 15.656 77.558 16.904 77.558 18.856V18.888C77.558 20.888 76.246 22.072 74.646 22.072ZM81.095 25.016C81.095 25.368 81.367 25.64 81.719 25.64C82.071 25.64 82.327 25.368 82.327 25.016V21.416C82.967 22.344 83.959 23.176 85.495 23.176C87.495 23.176 89.447 21.576 89.447 18.872V18.84C89.447 16.12 87.479 14.552 85.495 14.552C83.975 14.552 82.999 15.4 82.327 16.392V15.272C82.327 14.92 82.055 14.648 81.703 14.648C81.367 14.648 81.095 14.92 81.095 15.272V25.016ZM85.271 22.072C83.735 22.072 82.279 20.792 82.279 18.872V18.84C82.279 16.952 83.735 15.656 85.271 15.656C86.839 15.656 88.183 16.904 88.183 18.856V18.888C88.183 20.888 86.871 22.072 85.271 22.072Z" fill="#DDE1E3"/>
</svg>
