<svg width="32" height="32" viewBox="0 0 32 32" fill="none" xmlns="http://www.w3.org/2000/svg">
<path d="M0 16C-4.42784e-08 18.1012 0.413852 20.1817 1.21793 22.1229C2.022 24.0641 3.20055 25.828 4.68629 27.3137C6.17203 28.7994 7.93586 29.978 9.87706 30.7821C11.8183 31.5861 13.8989 32 16 32C18.1012 32 20.1817 31.5861 22.1229 30.7821C24.0641 29.978 25.828 28.7994 27.3137 27.3137C28.7994 25.828 29.978 24.0641 30.7821 22.1229C31.5861 20.1817 32 18.1012 32 16C32 11.7565 30.3143 7.68687 27.3137 4.68629C24.3131 1.68571 20.2435 0 16 0C11.7565 0 7.68687 1.68571 4.68629 4.68629C1.68571 7.68687 0 11.7565 0 16Z" fill="#F2B24F"/>
<rect x="9" y="8" width="14" height="18" rx="2" fill="white" fill-opacity="0.64"/>
<path d="M9 21.3171C9 21.3171 12.5 18.9756 16 20.5366C19.5 22.0976 23 21.3171 23 21.3171V24C23 25.1046 22.1046 26 21 26H11C9.89543 26 9 25.1046 9 24V21.3171Z" fill="white" fill-opacity="0.78"/>
</svg>
