<svg width="32" height="32" viewBox="0 0 32 32" fill="none" xmlns="http://www.w3.org/2000/svg">
<path fill-rule="evenodd" clip-rule="evenodd" d="M1.21793 22.1229C0.413852 20.1817 0 18.1012 0 16C0 11.7565 1.68571 7.68687 4.68629 4.68629C7.68687 1.68571 11.7565 0 16 0C20.2435 0 24.3131 1.68571 27.3137 4.68629C30.3143 7.68687 32 11.7565 32 16C32 18.1012 31.5861 20.1817 30.7821 22.1229C29.978 24.0641 28.7994 25.828 27.3137 27.3137C25.828 28.7994 24.0641 29.978 22.1229 30.7821C20.1817 31.5861 18.1012 32 16 32C13.8989 32 11.8183 31.5861 9.87706 30.7821C7.93586 29.978 6.17203 28.7994 4.68629 27.3137C3.20055 25.828 2.022 24.0641 1.21793 22.1229ZM9.14442 7.64709H22.8929C24.0637 7.64709 25.0129 8.59633 25.0129 9.7671V20.0275C25.0129 21.1983 24.0637 22.1475 22.8929 22.1475H16.9986C16.8272 22.1475 16.659 22.2025 16.52 22.3028L12.1215 25.49C11.583 25.8814 10.8278 25.4965 10.8278 24.8303V22.9642C10.8278 22.5146 10.4623 22.1491 10.0128 22.1491H9.14442C7.97364 22.1491 7.02441 21.1999 7.02441 20.0291V9.7671C7.02441 8.59633 7.97364 7.64709 9.14442 7.64709ZM16.093 18.0045C17.7781 18.0045 19.3499 17.2526 20.7664 15.7665C21.182 15.3331 21.1642 14.6459 20.7309 14.2319C20.6277 14.1333 20.5061 14.056 20.373 14.0044C20.24 13.9528 20.098 13.928 19.9554 13.9313C19.8127 13.9346 19.6721 13.966 19.5415 14.0237C19.411 14.0813 19.2931 14.1642 19.1946 14.2675C18.1985 15.3121 17.1474 15.8376 16.0736 15.8328C14.2431 15.8231 12.8039 14.3111 12.7748 14.2804C12.5797 14.0696 12.3091 13.9447 12.0221 13.9329C11.7351 13.9211 11.4552 14.0233 11.2434 14.2173C10.8019 14.6232 10.7712 15.3105 11.1771 15.7519C11.2596 15.8425 13.2502 17.9771 16.0364 18.0045H16.093Z" fill="#68D7A4"/>
</svg>
