<svg width="77" height="54" viewBox="0 0 77 54" fill="none" xmlns="http://www.w3.org/2000/svg">
<path fill-rule="evenodd" clip-rule="evenodd" d="M77 0H0V54H77V0ZM43.5711 19.6787H50.2481L43.5711 13.0017V19.6787ZM42.7436 13.0017V20.5062H50.2481V26.1345H27.7336V13L42.7436 13.0017ZM31.6098 31.6691C31.8198 31.7028 32.0048 31.7679 32.1645 31.8645C32.324 31.9612 32.4523 32.0978 32.5491 32.2743C32.6456 32.4507 32.694 32.6819 32.694 32.9676C32.694 33.2534 32.6456 33.4845 32.5491 33.661C32.4523 33.8374 32.324 33.9742 32.1645 34.0707C32.0048 34.1674 31.8198 34.2325 31.6098 34.2661C31.3997 34.2997 31.1813 34.3165 30.9543 34.3165H29.4164V31.6187H30.9543C31.1813 31.6187 31.3997 31.6356 31.6098 31.6691ZM24 41.1434V28.0106H24H54V41.1434H24ZM33.8979 34.9594C34.1457 34.6906 34.3266 34.3816 34.44 34.0329V34.0328C34.5535 33.6842 34.6102 33.329 34.6102 32.9675C34.6102 32.5977 34.5534 32.2406 34.44 31.8959C34.3265 31.5515 34.1457 31.2447 33.8979 30.9757C33.6499 30.7067 33.3285 30.4904 32.9334 30.3263C32.5383 30.1625 32.0594 30.0806 31.4964 30.0806H27.437V39.0818H29.4162V35.8546H31.4964C32.0594 35.8546 32.5383 35.7726 32.9335 35.6086C33.3284 35.4448 33.6499 35.2285 33.8979 34.9594ZM42.4238 37.7834C42.7641 37.3799 43.0182 36.9008 43.1865 36.3461C43.3545 35.7915 43.4386 35.1864 43.4386 34.5309C43.4386 33.7828 43.3356 33.1314 43.1298 32.5767C42.9237 32.022 42.6381 31.56 42.2724 31.1901C41.907 30.8202 41.474 30.5429 40.974 30.3581C40.4739 30.1732 39.9339 30.0806 39.3539 30.0806H35.4712V39.0818H39.3539C40.043 39.0818 40.6418 38.9664 41.1504 38.7351C41.6589 38.5041 42.0834 38.1867 42.4238 37.7834ZM50.9155 31.7447H50.9156V30.0806H44.5871V39.0818H46.5663V35.3629H50.3356V33.8247H46.5663V31.7447H50.9155ZM40.0915 31.9527C40.4234 32.0915 40.6904 32.2911 40.892 32.5515C41.0937 32.8122 41.2388 33.1251 41.327 33.4907C41.4153 33.8562 41.4594 34.266 41.4594 34.7199C41.4594 35.2159 41.3964 35.6359 41.2703 35.9806C41.1443 36.3253 40.976 36.6046 40.766 36.8188C40.5559 37.0332 40.3163 37.1866 40.0474 37.279C39.7783 37.3715 39.5011 37.4176 39.2153 37.4176H37.4504V31.7447H38.8624C39.3497 31.7447 39.7594 31.814 40.0915 31.9527Z" fill="#FF0000"/>
</svg>
