<svg xmlns="http://www.w3.org/2000/svg" width="22" height="18" viewBox="0 0 22 18">
  <path d="M16.0037 6.54264e-06C16.5287 -0.00149345 17.0207 0.255006 17.3177 0.688506L21.454 5.52675C21.958 6.12 21.9362 6.99825 21.4007 7.563L12.2582 17.22C12.0405 17.45 11.7773 17.6323 11.4854 17.7551C11.1934 17.878 10.8791 17.9388 10.5624 17.9336C10.2457 17.9285 9.93356 17.8575 9.64577 17.7252C9.35798 17.5929 9.10085 17.4022 8.89072 17.1652L0.382723 7.5585C0.139402 7.28376 0.00351237 6.93037 6.71488e-05 6.56338C-0.00337807 6.1964 0.125853 5.84052 0.363973 5.56125L4.52797 0.686256C4.82122 0.258756 5.31622 6.54264e-06 5.84422 6.54264e-06H16.0037Z" fill="#FF4C1F"></path>
  <path d="M15.7112 6.1635C15.6113 6.07359 15.4947 6.00423 15.368 5.95941C15.2413 5.91459 15.107 5.89517 14.9727 5.90228C14.8385 5.90938 14.707 5.94287 14.5857 6.00081C14.4645 6.05876 14.3558 6.14004 14.266 6.24L10.9285 9.948L7.59097 6.24C7.40795 6.04425 7.15542 5.92813 6.88768 5.91662C6.61994 5.9051 6.35837 5.9991 6.15922 6.17841C5.96006 6.35772 5.83921 6.60802 5.82267 6.8755C5.80612 7.14297 5.89518 7.40626 6.07072 7.60875L10.0825 12.0683C10.2505 12.3083 10.5137 12.4643 10.8047 12.498L10.8272 12.5018C10.8947 12.5085 10.9637 12.5078 11.0312 12.5003H11.0537C11.3455 12.4673 11.6087 12.3098 11.776 12.0683L15.7877 7.608L15.8807 7.488C16.0158 7.28353 16.073 7.03736 16.0419 6.79429C16.0108 6.55121 15.8934 6.32737 15.7112 6.1635Z" fill="white"></path>
  <path d="M11.9995 4.2525L16.2542 6.54264e-06H5.59372L9.84697 4.2525C10.1325 4.53783 10.5196 4.69811 10.9232 4.69811C11.3269 4.69811 11.714 4.53783 11.9995 4.2525Z" fill="#FDA68F"></path>
</svg>