<svg width="32" height="32" viewBox="0 0 32 32" fill="none" xmlns="http://www.w3.org/2000/svg">
<path d="M31.9989 15.9989C31.9989 24.8363 24.8352 32 16 32C7.16011 32 0 24.8363 0 15.9989C0 7.16366 7.16014 0 16 0C24.8352 0 31.9989 7.16366 31.9989 15.9989ZM29.3254 15.9989C29.3254 8.64086 23.358 2.6735 16 2.6735C8.63966 2.6735 2.67229 8.64086 2.67229 15.9989C2.67229 23.3615 8.63966 29.3265 16 29.3265C23.358 29.3265 29.3254 23.3615 29.3254 15.9989Z" fill="white"/>
<path d="M8.50861 15.9124L14.2864 11.1366C14.2864 11.1366 14.97 10.4132 14.97 11.1952C14.97 11.9864 14.97 13.8874 14.97 13.8874C14.97 13.8874 15.4336 13.8874 16.1405 13.8874C18.1738 13.8874 21.8715 13.8874 23.3756 13.8874C23.3756 13.8874 23.7818 13.7774 23.7818 14.4001C23.7818 15.0228 23.7818 17.7501 23.7818 18.1902C23.7818 18.6374 23.4423 18.6257 23.4423 18.6257C21.9791 18.6257 18.1562 18.6257 16.1944 18.6257C15.5552 18.6257 14.9642 18.6257 14.9642 18.6257C14.9642 18.6257 14.9642 20.1521 14.9642 21.1096C14.9642 22.0694 14.2841 21.2384 14.2841 21.2384C14.2841 21.2384 9.02729 17.2843 8.46069 16.7177C8.04982 16.3033 8.50861 15.9124 8.50861 15.9124Z" fill="white"/>
</svg>
