<svg width="32" height="32" viewBox="0 0 32 32" fill="none" xmlns="http://www.w3.org/2000/svg">
<path d="M0 15.9995C0 24.8372 7.16391 32.0011 15.9995 32.0011C24.8396 32.0012 32 24.8372 32 15.9995C32 7.16391 24.8396 0 15.9994 0C7.16391 0 0 7.16391 0 15.9995ZM2.67359 15.9995C2.67359 8.64117 8.64121 2.67359 15.9995 2.67359C23.36 2.67359 29.3276 8.64117 29.3276 15.9995C29.3276 23.3623 23.36 29.3275 15.9995 29.3275C8.64121 29.3275 2.67359 23.3623 2.67359 15.9995Z" fill="white"/>
<path d="M23.4911 15.9129L17.7131 11.137C17.7131 11.137 17.0295 10.4136 17.0295 11.1956C17.0295 11.9869 17.0295 13.8879 17.0295 13.8879C17.0295 13.8879 16.5659 13.8879 15.8589 13.8879C13.8256 13.8879 10.1277 13.8879 8.62352 13.8879C8.62352 13.8879 8.2174 13.7779 8.2174 14.4006C8.2174 15.0233 8.2174 17.7508 8.2174 18.1909C8.2174 18.6381 8.55683 18.6264 8.55683 18.6264C10.0201 18.6264 13.8432 18.6264 15.805 18.6264C16.4442 18.6264 17.0353 18.6264 17.0353 18.6264C17.0353 18.6264 17.0353 20.1528 17.0353 21.1103C17.0353 22.0702 17.7154 21.2391 17.7154 21.2391C17.7154 21.2391 22.9724 17.2849 23.539 16.7183C23.9499 16.3039 23.4911 15.9129 23.4911 15.9129Z" fill="white"/>
</svg>
