<svg width="62" height="61" viewBox="0 0 62 61" fill="none" xmlns="http://www.w3.org/2000/svg">
<path fill-rule="evenodd" clip-rule="evenodd" d="M27.1229 60.0059C28.7315 60.2093 30.3779 60.2866 32.0514 60.2279C48.746 59.6427 61.8092 45.745 61.2288 29.1867C60.8614 18.7085 55.1187 9.67576 46.7204 4.60326C44.8332 7.2257 37.0317 18.4559 32.6681 30.7336C28.1454 43.4592 27.2506 57.4942 27.1229 60.0059ZM23.7703 59.389C10.9565 56.2754 1.25305 45.0306 0.771932 31.306C0.191472 14.7476 13.2546 0.849985 29.9493 0.264746C34.9006 0.0911773 39.6153 1.10804 43.8132 3.05645L43.804 3.05376C43.804 3.05376 34.3419 15.6633 29.3323 29.759C24.4656 43.4523 23.8041 58.5389 23.7703 59.389Z" fill="url(#paint0_linear_1650_900)"/>
<defs>
<linearGradient id="paint0_linear_1650_900" x1="60.1777" y1="-0.794922" x2="-0.279084" y2="1.32441" gradientUnits="userSpaceOnUse">
<stop stop-color="#5AF3A1"/>
<stop offset="1" stop-color="#FE51E2"/>
</linearGradient>
</defs>
</svg>
