<svg width="42" height="41" viewBox="0 0 42 41" fill="none" xmlns="http://www.w3.org/2000/svg">
<path fill-rule="evenodd" clip-rule="evenodd" d="M34.6737 6.34387C33.8865 5.60307 33.0296 4.91532 32.1047 4.29025C22.8776 -1.94559 10.3837 0.418217 4.19878 9.56995C0.28496 15.3612 -0.164651 22.4828 2.37099 28.5122C4.41717 27.8394 13.0286 24.8485 20.1983 19.9438C27.6295 14.8603 33.6192 7.64741 34.6737 6.34387ZM36.2384 7.99198C41.9225 14.6983 42.7394 24.5664 37.613 32.1519C31.4281 41.3036 18.9342 43.6674 9.7071 37.4316C6.97053 35.5822 4.82866 33.184 3.33078 30.4866L3.33471 30.4917C3.33471 30.4917 13.3824 27.409 21.6136 21.7782C29.6099 16.308 35.8866 8.43688 36.2384 7.99198Z" fill="url(#paint0_linear_1650_906)"/>
<defs>
<linearGradient id="paint0_linear_1650_906" x1="-7" y1="26.1406" x2="26.4142" y2="48.7226" gradientUnits="userSpaceOnUse">
<stop stop-color="#97FF95"/>
<stop offset="1" stop-color="#36DBFF"/>
</linearGradient>
</defs>
</svg>
