<svg width="71" height="71" viewBox="0 0 71 71" fill="none" xmlns="http://www.w3.org/2000/svg">
<path fill-rule="evenodd" clip-rule="evenodd" d="M65.4636 17.3851C64.4745 15.7727 63.3431 14.2179 62.0682 12.7377C49.3497 -2.0293 27.166 -3.77404 12.5196 8.84068C3.25138 16.8233 -0.777718 28.6431 0.735853 39.9891C4.50013 39.7925 20.4155 38.6956 34.7747 33.705C49.6578 28.5325 63.0845 19.1022 65.4636 17.3851ZM67.3493 20.8867C73.8687 34.8215 70.7175 51.8607 58.5776 62.3166C43.9312 74.9313 21.7476 73.1865 9.029 58.4196C5.25695 54.04 2.74106 49.0069 1.45011 43.764L1.45439 43.7744C1.45439 43.7744 19.8372 43.1819 36.3226 37.4525C52.3375 31.8866 66.5509 21.4765 67.3493 20.8867Z" fill="url(#paint0_linear_1650_903)"/>
<defs>
<linearGradient id="paint0_linear_1650_903" x1="-14" y1="31.6816" x2="32.058" y2="85.1575" gradientUnits="userSpaceOnUse">
<stop stop-color="white"/>
<stop offset="1" stop-color="#F35A5A"/>
</linearGradient>
</defs>
</svg>
