<svg width="50" height="51" viewBox="0 0 50 51" fill="none" xmlns="http://www.w3.org/2000/svg">
<path fill-rule="evenodd" clip-rule="evenodd" d="M49.6713 29.3038C49.8875 27.9701 50 26.6012 50 25.2058C50 11.285 38.8071 0 25 0C16.2628 0 8.57253 4.51894 4.10285 11.3651C6.23177 13.0134 15.3568 19.8386 25.4545 23.8311C35.9206 27.9692 47.5831 29.1241 49.6713 29.3038ZM49.0596 32.0779C46.0924 42.6586 36.4442 50.4116 25 50.4116C11.1929 50.4116 0 39.1266 0 25.2058C0 21.0772 0.984529 17.1804 2.72979 13.7411L2.72726 13.7487C2.72726 13.7487 12.9525 21.9971 24.5454 26.5808C35.8074 31.0336 48.3524 32.025 49.0596 32.0779Z" fill="url(#paint0_linear_1650_897)"/>
<defs>
<linearGradient id="paint0_linear_1650_897" x1="0" y1="0" x2="0" y2="50.4116" gradientUnits="userSpaceOnUse">
<stop stop-color="#FFC56D"/>
<stop offset="1" stop-color="#C751FE"/>
</linearGradient>
</defs>
</svg>
