<svg width="1151" height="444" viewBox="0 0 1151 444" fill="none" xmlns="http://www.w3.org/2000/svg">
<g clip-path="url(#clip0_5298_1800)">
<path d="M464.492 252.779H476.426C477.246 252.779 477.91 253.469 477.91 254.323C477.91 255.176 477.246 255.866 476.426 255.866H464.492C463.672 255.866 463.008 255.176 463.008 254.323C463.008 253.469 463.672 252.779 464.492 252.779Z" fill="#FFB400"/>
<path d="M470.469 246.563C471.289 246.563 471.953 247.254 471.953 248.107V260.518C471.953 261.371 471.289 262.061 470.469 262.061C469.648 262.061 468.984 261.371 468.984 260.518V248.107C468.984 247.254 469.648 246.563 470.469 246.563Z" fill="#FFB400"/>
<path d="M530 260.843L535.762 262.447C536.563 262.671 537.031 263.524 536.816 264.357C536.602 265.19 535.781 265.677 534.98 265.454L529.219 263.849C528.418 263.626 527.949 262.772 528.164 261.94C528.398 261.107 529.199 260.619 530 260.843Z" fill="#043EB8"/>
<path d="M540.625 252.128L542.168 258.121C542.383 258.953 541.914 259.807 541.113 260.03C540.312 260.253 539.492 259.766 539.277 258.933L537.734 252.921C537.52 252.088 537.988 251.235 538.789 251.011C539.59 250.808 540.41 251.296 540.625 252.128Z" fill="#2868F0"/>
<path d="M553.184 257.329L548.965 261.716C548.379 262.325 547.441 262.325 546.855 261.716C546.27 261.107 546.27 260.132 546.855 259.522L551.074 255.135C551.66 254.525 552.598 254.525 553.184 255.135C553.77 255.744 553.77 256.719 553.184 257.329Z" fill="#8FB3FF"/>
<path d="M643.398 260.233C638.457 260.233 634.453 264.397 634.453 269.557C634.453 274.696 638.457 278.86 643.398 278.86C648.34 278.86 652.363 274.696 652.363 269.557C652.344 264.397 648.34 260.233 643.398 260.233ZM643.398 275.752C640.098 275.752 637.422 272.969 637.422 269.537C637.422 266.104 640.098 263.321 643.398 263.321C646.699 263.321 649.375 266.104 649.375 269.537C649.355 272.969 646.68 275.752 643.398 275.752Z" fill="#FFB400"/>
<path d="M609.199 242.5L600.234 246.279V258.69L609.199 254.911V242.5Z" fill="#FFB400"/>
<path d="M589.766 254.911L598.73 258.69V246.279L589.766 242.5V254.911ZM609.199 241.261L599.59 237.321L589.766 240.855L599.551 245.182L609.199 241.261Z" fill="#FFD200"/>
<path d="M639.121 314.854L549.57 302.443V351.66L639.121 361.43V314.854Z" fill="#1EC487"/>
<path d="M477.93 318.551L549.57 302.443V358.323L477.93 374.43V318.551Z" fill="#0BAD72"/>
<path d="M561.504 337.177L639.121 314.854V420.397L561.504 442.721V337.177Z" fill="url(#paint0_linear_5298_1800)"/>
<path d="M477.93 318.55L561.504 337.177V442.152L477.93 421.007V318.55Z" fill="url(#paint1_linear_5298_1800)"/>
<path d="M561.504 337.014L477.93 318.55L460.02 355.803L546.582 376.949L561.504 337.014Z" fill="#7CF2C7"/>
<path d="M561.504 337.177L639.121 314.854L660.02 352.107L585.391 377.538L561.504 337.177Z" fill="#7CF2C7"/>
<path d="M603.496 317.616C603.496 317.616 606.816 295.841 624.16 284.994C624.16 284.994 625.684 286.782 628.691 290.804C628.691 290.804 620.801 289.504 603.496 317.616Z" fill="#6EA3F2"/>
<path d="M561.504 316.722C561.504 316.722 561.836 304.799 570.234 277.885C570.234 277.885 571.758 279.672 574.766 283.694C574.766 283.694 571.602 286.558 561.504 316.722Z" fill="#7CF2C7"/>
<path d="M532.324 314.569C532.324 314.569 522.871 285.685 499.727 272.644C499.727 272.644 495.859 278.271 491.621 280.058C491.602 280.058 518.242 289.707 532.324 314.569Z" fill="#FFD200"/>
</g>
<g filter="url(#filter0_d_5298_1800)">
<rect x="284" y="315.15" width="62" height="62" rx="14" transform="rotate(-49.5066 284 315.15)" fill="url(#paint2_linear_5298_1800)"/>
</g>
<path fill-rule="evenodd" clip-rule="evenodd" d="M317.25 314.049L321.465 317.648L321.633 319.784L321.941 323.69L312.919 315.987C312.465 315.599 312.184 315.047 312.137 314.452C312.09 313.857 312.282 313.268 312.669 312.814L325.123 298.229L321.864 295.446L330.927 294.732L331.641 303.795L328.382 301.012L317.25 314.049ZM338.16 309.361L333.946 305.763L333.777 303.627L333.469 299.721L342.491 307.424C342.945 307.811 343.226 308.363 343.273 308.958C343.32 309.553 343.128 310.142 342.741 310.596L330.287 325.181L333.546 327.964L324.483 328.678L323.769 319.615L327.028 322.398L338.16 309.361Z" fill="white"/>
<g filter="url(#filter1_d_5298_1800)">
<rect x="154.649" y="208.267" width="60.8112" height="60.8112" rx="14" transform="rotate(-47.198 154.649 208.267)" fill="url(#paint3_linear_5298_1800)"/>
</g>
<path fill-rule="evenodd" clip-rule="evenodd" d="M197.32 184.971C197.702 184.558 198.224 184.303 198.784 184.255C199.344 184.206 199.902 184.368 200.35 184.708L200.516 184.848L211.025 194.58C211.307 194.842 211.478 195.201 211.504 195.584C211.53 195.968 211.408 196.347 211.164 196.643C210.92 196.94 210.571 197.132 210.19 197.181C209.809 197.23 209.424 197.131 209.113 196.905L208.976 196.793L199.02 187.573L178.531 209.697L191.806 221.991L199.078 214.139C199.328 213.867 199.67 213.698 200.038 213.662C200.406 213.626 200.774 213.726 201.073 213.944L201.208 214.057C201.479 214.308 201.649 214.649 201.684 215.017C201.72 215.385 201.62 215.752 201.402 216.051L201.29 216.188L193.506 224.593C193.124 225.005 192.602 225.26 192.042 225.309C191.482 225.358 190.924 225.196 190.477 224.855L190.31 224.715L175.929 211.398C175.517 211.015 175.262 210.494 175.213 209.933C175.165 209.373 175.326 208.815 175.667 208.368L175.807 208.202L197.32 184.971ZM197.255 224.982L203.402 218.345C203.674 218.051 204.051 217.878 204.45 217.862C204.85 217.847 205.239 217.991 205.533 218.263C205.826 218.535 206 218.912 206.015 219.311C206.03 219.711 205.886 220.1 205.614 220.394L199.468 227.031C199.196 227.324 198.819 227.498 198.419 227.513C198.02 227.528 197.631 227.384 197.337 227.113C197.044 226.841 196.87 226.464 196.855 226.064C196.84 225.665 196.984 225.275 197.255 224.982ZM196.966 192.011C196.731 192.316 196.621 192.698 196.658 193.081L197.648 203.699L189.961 204.553L189.783 204.584C189.414 204.67 189.092 204.892 188.879 205.205C188.667 205.519 188.58 205.901 188.636 206.275L190.069 215.822L190.109 216.007C190.209 216.361 190.434 216.666 190.742 216.865C191.051 217.064 191.421 217.144 191.784 217.09L191.97 217.05C192.323 216.95 192.628 216.725 192.827 216.417C193.027 216.108 193.107 215.738 193.052 215.375L191.85 207.378L199.454 206.534L199.64 206.501C199.993 206.417 200.304 206.207 200.515 205.912C200.726 205.617 200.823 205.256 200.789 204.894L199.661 192.799L199.632 192.613C199.55 192.237 199.328 191.907 199.01 191.69C198.693 191.472 198.304 191.385 197.924 191.445C197.544 191.504 197.202 191.707 196.966 192.011ZM209.467 209.577C209.907 209.984 210.491 210.2 211.09 210.177C211.69 210.154 212.255 209.894 212.663 209.454C213.071 209.014 213.287 208.43 213.264 207.831C213.241 207.231 212.98 206.666 212.54 206.258C212.1 205.851 211.516 205.635 210.917 205.658C210.318 205.681 209.752 205.941 209.344 206.381C208.937 206.821 208.721 207.405 208.744 208.004C208.767 208.604 209.027 209.169 209.467 209.577ZM202.568 205.931L208.377 199.659L216.789 201.67L219.439 209.903L213.631 216.175L205.219 214.164L202.568 205.931ZM214.438 204.209L209.391 203.002L205.978 206.687L207.569 211.626L212.617 212.832L216.027 209.15L214.438 204.209Z" fill="white"/>
<g filter="url(#filter2_d_5298_1800)">
<rect x="784.426" y="273" width="60" height="60" rx="14" transform="rotate(45 784.426 273)" fill="url(#paint4_linear_5298_1800)"/>
</g>
<path fill-rule="evenodd" clip-rule="evenodd" d="M787.769 294.856L805.768 312.855C807.182 314.269 807.182 316.583 805.768 317.998L787.769 335.997C786.355 337.411 784.041 337.411 782.627 335.997L764.627 317.998C763.213 316.583 763.213 314.269 764.627 312.855L782.627 294.856C784.041 293.442 786.355 293.442 787.769 294.856ZM783.912 332.14C784.619 332.847 785.776 332.847 786.483 332.14L801.911 316.712C802.618 316.005 802.618 314.848 801.911 314.141L786.483 298.713C785.776 298.006 784.619 298.006 783.912 298.713L768.484 314.141C767.777 314.848 767.777 316.005 768.484 316.712L783.912 332.14ZM796.833 314.077L794.262 316.648L790.405 312.791L782.627 320.569L786.484 324.426L783.912 326.998L773.627 316.712L776.198 314.141L780.055 317.998L787.834 310.22L783.977 306.363L786.548 303.792L796.833 314.077Z" fill="#F6F9FF"/>
<g filter="url(#filter3_d_5298_1800)">
<rect x="933.133" y="151" width="61" height="61" rx="14" transform="rotate(45 933.133 151)" fill="url(#paint5_linear_5298_1800)"/>
</g>
<path fill-rule="evenodd" clip-rule="evenodd" d="M950.178 194.335C950.179 194.336 950.167 194.338 950.139 194.337C950.164 194.334 950.177 194.334 950.178 194.335ZM948.183 192.418C948.532 193.041 948.785 193.578 948.959 194.023C948.514 193.848 947.978 193.595 947.355 193.246C945.145 192.008 942.339 189.85 939.525 187.035C936.71 184.221 934.552 181.415 933.314 179.205C932.965 178.582 932.712 178.046 932.538 177.601C932.983 177.775 933.519 178.028 934.142 178.377C936.352 179.615 939.158 181.774 941.972 184.588C944.787 187.402 946.945 190.208 948.183 192.418ZM932.225 176.382C932.226 176.383 932.226 176.397 932.223 176.421C932.222 176.393 932.224 176.381 932.225 176.382ZM947.933 196.305C945.227 195.211 941.446 192.492 937.757 188.803C934.068 185.114 931.35 181.333 930.255 178.627L918.334 190.549C921.04 191.643 924.821 194.361 928.51 198.05C932.199 201.739 934.917 205.52 936.012 208.226L947.933 196.305ZM951.355 196.418L936.397 211.376L936.354 211.333C936.293 211.451 936.217 211.557 936.125 211.648C934.473 213.3 928.385 209.891 922.527 204.033C916.994 198.5 913.645 192.762 914.683 190.75L914.64 190.707L914.912 190.435L930.142 175.205L930.414 174.933L930.457 174.976C932.469 173.939 938.207 177.287 943.74 182.82C949.273 188.353 952.621 194.091 951.584 196.103L951.627 196.146L951.355 196.418ZM932.953 207.648C933.302 208.271 933.555 208.808 933.729 209.253C933.284 209.078 932.748 208.825 932.125 208.476C929.915 207.239 927.109 205.08 924.295 202.265C921.48 199.451 919.322 196.645 918.084 194.436C917.735 193.812 917.482 193.276 917.308 192.831C917.753 193.005 918.289 193.258 918.912 193.608C921.122 194.845 923.928 197.004 926.742 199.818C929.557 202.632 931.715 205.438 932.953 207.648ZM916.089 192.518C916.088 192.517 916.1 192.515 916.128 192.516C916.103 192.519 916.09 192.519 916.089 192.518ZM934.044 210.433C934.045 210.46 934.043 210.472 934.042 210.471C934.041 210.47 934.041 210.457 934.044 210.433Z" fill="white"/>
<g filter="url(#filter4_d_5298_1800)">
<path d="M1083.37 28.9208L1122.97 68.5246C1127.34 72.8992 1126.75 80.5827 1121.65 85.6862L1084.69 122.65C1079.58 127.753 1071.9 128.345 1067.52 123.97L1027.92 84.3661C1023.55 79.9916 1024.14 72.3082 1029.24 67.2044L1066.2 30.2409C1071.31 25.1374 1078.99 24.5463 1083.37 28.9208Z" fill="url(#paint6_linear_5298_1800)" shape-rendering="crispEdges"/>
</g>
<g filter="url(#filter5_d_5298_1800)">
<path d="M23.6772 87.0631L62.063 48.6773C66.3031 44.4372 73.9613 45.2213 79.1682 50.4282L116.881 88.1406C122.088 93.3477 122.872 101.006 118.631 105.246L80.2457 143.632C76.0058 147.872 68.3476 147.088 63.1405 141.881L25.4281 104.168C20.2212 98.9614 19.4373 91.303 23.6772 87.0631Z" fill="url(#paint7_linear_5298_1800)" fill-opacity="0.88" shape-rendering="crispEdges"/>
</g>
<defs>
<filter id="filter0_d_5298_1800" x="282.738" y="264.738" width="115.935" height="115.935" filterUnits="userSpaceOnUse" color-interpolation-filters="sRGB">
<feFlood flood-opacity="0" result="BackgroundImageFix"/>
<feColorMatrix in="SourceAlpha" type="matrix" values="0 0 0 0 0 0 0 0 0 0 0 0 0 0 0 0 0 0 127 0" result="hardAlpha"/>
<feOffset dx="13" dy="11"/>
<feGaussianBlur stdDeviation="10"/>
<feComposite in2="hardAlpha" operator="out"/>
<feColorMatrix type="matrix" values="0 0 0 0 1 0 0 0 0 0.615686 0 0 0 0 0.870588 0 0 0 0.68 0"/>
<feBlend mode="normal" in2="BackgroundImageFix" result="effect1_dropShadow_5298_1800"/>
<feBlend mode="normal" in="SourceGraphic" in2="effect1_dropShadow_5298_1800" result="shape"/>
</filter>
<filter id="filter1_d_5298_1800" x="153.434" y="162.434" width="114.368" height="114.368" filterUnits="userSpaceOnUse" color-interpolation-filters="sRGB">
<feFlood flood-opacity="0" result="BackgroundImageFix"/>
<feColorMatrix in="SourceAlpha" type="matrix" values="0 0 0 0 0 0 0 0 0 0 0 0 0 0 0 0 0 0 127 0" result="hardAlpha"/>
<feOffset dx="13" dy="13"/>
<feGaussianBlur stdDeviation="10"/>
<feComposite in2="hardAlpha" operator="out"/>
<feColorMatrix type="matrix" values="0 0 0 0 0.321569 0 0 0 0 0.917647 0 0 0 0 0.380392 0 0 0 0.6 0"/>
<feBlend mode="normal" in2="BackgroundImageFix" result="effect1_dropShadow_5298_1800"/>
<feBlend mode="normal" in="SourceGraphic" in2="effect1_dropShadow_5298_1800" result="shape"/>
</filter>
<filter id="filter2_d_5298_1800" x="711.799" y="270.799" width="117.255" height="117.255" filterUnits="userSpaceOnUse" color-interpolation-filters="sRGB">
<feFlood flood-opacity="0" result="BackgroundImageFix"/>
<feColorMatrix in="SourceAlpha" type="matrix" values="0 0 0 0 0 0 0 0 0 0 0 0 0 0 0 0 0 0 127 0" result="hardAlpha"/>
<feOffset dx="-14" dy="14"/>
<feGaussianBlur stdDeviation="11"/>
<feComposite in2="hardAlpha" operator="out"/>
<feColorMatrix type="matrix" values="0 0 0 0 0.196078 0 0 0 0 0.921569 0 0 0 0 0.976471 0 0 0 0.72 0"/>
<feBlend mode="normal" in2="BackgroundImageFix" result="effect1_dropShadow_5298_1800"/>
<feBlend mode="normal" in="SourceGraphic" in2="effect1_dropShadow_5298_1800" result="shape"/>
</filter>
<filter id="filter3_d_5298_1800" x="854.799" y="142.799" width="130.669" height="130.669" filterUnits="userSpaceOnUse" color-interpolation-filters="sRGB">
<feFlood flood-opacity="0" result="BackgroundImageFix"/>
<feColorMatrix in="SourceAlpha" type="matrix" values="0 0 0 0 0 0 0 0 0 0 0 0 0 0 0 0 0 0 127 0" result="hardAlpha"/>
<feOffset dx="-13" dy="14"/>
<feGaussianBlur stdDeviation="14"/>
<feComposite in2="hardAlpha" operator="out"/>
<feColorMatrix type="matrix" values="0 0 0 0 1 0 0 0 0 0.666667 0 0 0 0 0.207843 0 0 0 0.68 0"/>
<feBlend mode="normal" in2="BackgroundImageFix" result="effect1_dropShadow_5298_1800"/>
<feBlend mode="normal" in="SourceGraphic" in2="effect1_dropShadow_5298_1800" result="shape"/>
</filter>
<filter id="filter4_d_5298_1800" x="973.99" y="0.990723" width="176.91" height="176.91" filterUnits="userSpaceOnUse" color-interpolation-filters="sRGB">
<feFlood flood-opacity="0" result="BackgroundImageFix"/>
<feColorMatrix in="SourceAlpha" type="matrix" values="0 0 0 0 0 0 0 0 0 0 0 0 0 0 0 0 0 0 127 0" result="hardAlpha"/>
<feOffset dx="-13" dy="13"/>
<feGaussianBlur stdDeviation="19"/>
<feComposite in2="hardAlpha" operator="out"/>
<feColorMatrix type="matrix" values="0 0 0 0 0.776471 0 0 0 0 0.968627 0 0 0 0 0.65098 0 0 0 0.54 0"/>
<feBlend mode="normal" in2="BackgroundImageFix" result="effect1_dropShadow_5298_1800"/>
<feBlend mode="normal" in="SourceGraphic" in2="effect1_dropShadow_5298_1800" result="shape"/>
</filter>
<filter id="filter5_d_5298_1800" x="0.946487" y="25.9463" width="166.416" height="166.416" filterUnits="userSpaceOnUse" color-interpolation-filters="sRGB">
<feFlood flood-opacity="0" result="BackgroundImageFix"/>
<feColorMatrix in="SourceAlpha" type="matrix" values="0 0 0 0 0 0 0 0 0 0 0 0 0 0 0 0 0 0 127 0" result="hardAlpha"/>
<feOffset dx="13" dy="13"/>
<feGaussianBlur stdDeviation="16.5"/>
<feComposite in2="hardAlpha" operator="out"/>
<feColorMatrix type="matrix" values="0 0 0 0 0.458824 0 0 0 0 0.647059 0 0 0 0 0.996078 0 0 0 0.26 0"/>
<feBlend mode="normal" in2="BackgroundImageFix" result="effect1_dropShadow_5298_1800"/>
<feBlend mode="normal" in="SourceGraphic" in2="effect1_dropShadow_5298_1800" result="shape"/>
</filter>
<linearGradient id="paint0_linear_5298_1800" x1="600.312" y1="314.854" x2="600.312" y2="442.721" gradientUnits="userSpaceOnUse">
<stop stop-color="#62EFBB"/>
<stop offset="1" stop-color="#34D399"/>
</linearGradient>
<linearGradient id="paint1_linear_5298_1800" x1="519.717" y1="318.55" x2="519.717" y2="442.152" gradientUnits="userSpaceOnUse">
<stop stop-color="#5EF4BD"/>
<stop offset="1" stop-color="#2AB985"/>
</linearGradient>
<linearGradient id="paint2_linear_5298_1800" x1="315" y1="315.15" x2="315" y2="377.15" gradientUnits="userSpaceOnUse">
<stop stop-color="#FD6CD3"/>
<stop offset="1" stop-color="#FFA9E0"/>
</linearGradient>
<linearGradient id="paint3_linear_5298_1800" x1="185.055" y1="208.267" x2="185.055" y2="269.078" gradientUnits="userSpaceOnUse">
<stop stop-color="#50E95F"/>
<stop offset="1" stop-color="#B5FFA9"/>
</linearGradient>
<linearGradient id="paint4_linear_5298_1800" x1="814.426" y1="273" x2="814.426" y2="333" gradientUnits="userSpaceOnUse">
<stop stop-color="#1EE8F7"/>
<stop offset="1" stop-color="#97F8FF"/>
</linearGradient>
<linearGradient id="paint5_linear_5298_1800" x1="963.633" y1="151" x2="963.633" y2="212" gradientUnits="userSpaceOnUse">
<stop stop-color="#FFA832"/>
<stop offset="1" stop-color="#FFD270"/>
</linearGradient>
<linearGradient id="paint6_linear_5298_1800" x1="1103.17" y1="48.7227" x2="1047.72" y2="104.168" gradientUnits="userSpaceOnUse">
<stop stop-color="#B2FF75"/>
<stop offset="1" stop-color="#BCFB8F" stop-opacity="0.19"/>
</linearGradient>
<linearGradient id="paint7_linear_5298_1800" x1="42.8701" y1="67.8702" x2="99.4386" y2="124.439" gradientUnits="userSpaceOnUse">
<stop stop-color="#75A5FD"/>
<stop offset="1" stop-color="#C0D6FF" stop-opacity="0.32"/>
</linearGradient>
<clipPath id="clip0_5298_1800">
<rect width="200" height="208" fill="white" transform="translate(460 236)"/>
</clipPath>
</defs>
</svg>
