<svg width="600" height="300" viewBox="0 0 600 300" fill="none" xmlns="http://www.w3.org/2000/svg">
<path d="M0 18C0 8.05888 8.05887 0 18 0H582C591.941 0 600 8.05888 600 18V300H0V18Z" fill="url(#paint0_linear_5086_1232)"/>
<path d="M1.5 230C1.5 224.201 6.20101 219.5 12 219.5H58C63.799 219.5 68.5 224.201 68.5 230V251V272C68.5 277.799 63.799 282.5 58 282.5H12C6.20101 282.5 1.5 277.799 1.5 272V230Z" stroke="url(#paint1_linear_5086_1232)" stroke-width="3"/>
<path d="M599 167C599 160.925 594.075 156 588 156H464C457.925 156 453 160.925 453 167V226V285C453 291.075 457.925 296 464 296H588C594.075 296 599 291.075 599 285V167Z" stroke="url(#paint2_linear_5086_1232)" stroke-width="2"/>
<path d="M259.5 94H353.25C363.606 94 372 102.395 372 112.75V187.75C372 198.106 363.606 206.5 353.25 206.5H259.5C249.145 206.5 240.75 198.106 240.75 187.75V112.75C240.75 102.395 249.145 94 259.5 94Z" fill="url(#paint3_linear_5086_1232)"/>
<path d="M240.75 136.672H334.5C344.856 136.672 353.25 145.067 353.25 155.422V230.422C353.25 240.778 344.856 249.172 334.5 249.172H240.75C230.395 249.172 222 240.778 222 230.422V155.422C222 145.067 230.395 136.672 240.75 136.672Z" fill="url(#paint4_linear_5086_1232)"/>
<path d="M273.792 218.47C272.317 218.47 270.829 218.008 269.562 217.05C266.462 214.711 265.846 210.302 268.185 207.202L296.31 169.937C298.648 166.838 303.058 166.221 306.158 168.56C309.257 170.899 309.874 175.308 307.534 178.408L279.409 215.674C278.754 216.544 277.905 217.249 276.931 217.734C275.956 218.22 274.881 218.471 273.792 218.47Z" fill="#DFECFD"/>
<path d="M244.031 199.954C243.108 199.955 242.193 199.774 241.34 199.42C240.487 199.067 239.712 198.549 239.059 197.895C236.314 195.149 236.314 190.697 239.059 187.951L250.992 176.019C253.737 173.273 258.19 173.273 260.936 176.019C263.681 178.764 263.681 183.216 260.936 185.962L249.003 197.895C248.351 198.549 247.576 199.067 246.723 199.421C245.869 199.774 244.955 199.955 244.031 199.954Z" fill="#DFECFD"/>
<path d="M255.964 211.886C255.04 211.888 254.125 211.706 253.272 211.353C252.419 210.999 251.644 210.481 250.992 209.827L239.059 197.895C236.314 195.149 236.314 190.697 239.059 187.951C241.805 185.205 246.257 185.205 249.003 187.951L260.936 199.883C263.681 202.629 263.681 207.081 260.936 209.827C260.283 210.481 259.508 210.999 258.655 211.353C257.802 211.706 256.887 211.887 255.964 211.886Z" fill="#DFECFD"/>
<path d="M331.687 199.953C330.764 199.954 329.849 199.773 328.996 199.419C328.142 199.066 327.367 198.547 326.715 197.893L314.783 185.961C312.037 183.215 312.037 178.764 314.783 176.017C317.529 173.272 321.981 173.272 324.727 176.017L336.659 187.95C339.405 190.695 339.405 195.148 336.659 197.893C336.007 198.547 335.232 199.066 334.379 199.419C333.526 199.773 332.611 199.954 331.687 199.953Z" fill="#DFECFD"/>
<path d="M319.755 211.886C318.831 211.887 317.917 211.706 317.063 211.352C316.21 210.999 315.435 210.48 314.783 209.826C312.037 207.08 312.037 202.629 314.783 199.883L326.715 187.951C329.462 185.205 333.914 185.205 336.659 187.951C339.405 190.697 339.405 195.148 336.659 197.894L324.726 209.826C324.074 210.48 323.299 210.999 322.446 211.352C321.593 211.706 320.678 211.887 319.755 211.886Z" fill="#DFECFD"/>
<path d="M372 144H395.933C402.56 144 407.933 138.627 407.933 132V121C407.933 114.373 413.306 109 419.933 109H598" stroke="url(#paint5_linear_5086_1232)" stroke-width="3" stroke-dasharray="0"/>
<path d="M353 226H379.954C386.581 226 391.954 220.627 391.954 214V207C391.954 200.373 397.327 195 403.954 195H598" stroke="url(#paint6_linear_5086_1232)" stroke-width="3" stroke-dasharray="0"/>
<rect x="448" y="82" width="55" height="55" rx="14" fill="url(#paint7_linear_5086_1232)"/>
<path fill-rule="evenodd" clip-rule="evenodd" d="M464.333 94H487.667C489.5 94 491 95.5 491 97.3333V120.667C491 122.5 489.5 124 487.667 124H464.333C462.5 124 461 122.5 461 120.667V97.3333C461 95.5 462.5 94 464.333 94ZM486 120.667C486.917 120.667 487.667 119.917 487.667 119V99C487.667 98.0833 486.917 97.3333 486 97.3333H466C465.083 97.3333 464.333 98.0833 464.333 99V119C464.333 119.917 465.083 120.667 466 120.667H486ZM482.667 100.583V103.917H477.667V114H482.667V117.333H469.333V114H474.333V103.917H469.333V100.583H482.667Z" fill="#F6F9FF"/>
<rect x="485" y="171" width="61" height="61" rx="14" fill="url(#paint8_linear_5086_1232)"/>
<path fill-rule="evenodd" clip-rule="evenodd" d="M527.695 189.59C527.696 189.59 527.689 189.6 527.669 189.619C527.684 189.6 527.694 189.59 527.695 189.59ZM524.928 189.645C525.616 189.839 526.174 190.039 526.612 190.231C526.174 190.422 525.616 190.622 524.928 190.816C522.491 191.504 518.98 191.962 515 191.962C511.02 191.962 507.509 191.504 505.072 190.816C504.384 190.622 503.826 190.422 503.388 190.231C503.826 190.039 504.384 189.839 505.072 189.645C507.509 188.958 511.02 188.5 515 188.5C518.98 188.5 522.491 188.958 524.928 189.645ZM502.305 189.59C502.306 189.59 502.316 189.6 502.331 189.619C502.311 189.6 502.304 189.59 502.305 189.59ZM527.5 192.57C524.813 193.71 520.217 194.462 515 194.462C509.783 194.462 505.187 193.71 502.5 192.57V209.43C505.187 208.29 509.783 207.539 515 207.539C520.217 207.539 524.813 208.29 527.5 209.43V192.57ZM530 190.231V211.385H529.939C529.979 211.511 530 211.64 530 211.769C530 214.106 523.284 216 515 216C507.175 216 500.75 214.31 500.061 212.154H500V211.769V190.231V189.846H500.061C500.75 187.69 507.175 186 515 186C522.825 186 529.25 187.69 529.939 189.846H530V190.231ZM524.928 211.184C525.616 211.378 526.174 211.578 526.612 211.769C526.174 211.961 525.616 212.161 524.928 212.355C522.491 213.042 518.98 213.5 515 213.5C511.02 213.5 507.509 213.042 505.072 212.355C504.384 212.161 503.826 211.961 503.388 211.769C503.826 211.578 504.384 211.378 505.072 211.184C507.509 210.496 511.02 210.039 515 210.039C518.98 210.039 522.491 210.496 524.928 211.184ZM502.305 212.41C502.304 212.41 502.311 212.4 502.331 212.381C502.316 212.4 502.306 212.41 502.305 212.41ZM527.669 212.381C527.689 212.4 527.696 212.41 527.695 212.41C527.694 212.41 527.684 212.4 527.669 212.381Z" fill="white"/>
<path d="M242 130H171.369C163.913 130 157.869 123.956 157.869 116.5V116.5C157.869 109.044 151.825 103 144.369 103H0" stroke="url(#paint9_linear_5086_1232)" stroke-width="3" stroke-dasharray="0"/>
<rect x="54" y="72" width="62" height="62" rx="14" fill="url(#paint10_linear_5086_1232)"/>
<path fill-rule="evenodd" clip-rule="evenodd" d="M76.4285 96.5714V102.113L74.9135 103.628L72.1428 106.399V94.5357C72.1428 93.939 72.3799 93.3667 72.8018 92.9447C73.2238 92.5228 73.7961 92.2857 74.3928 92.2857H93.5714V88L100 94.4286L93.5714 100.857V96.5714H76.4285ZM93.5715 109.428V103.887L95.0865 102.372L97.8572 99.6013V111.464C97.8572 112.061 97.6201 112.633 97.1982 113.055C96.7762 113.477 96.2039 113.714 95.6072 113.714H76.4286V118L70 111.571L76.4286 105.143V109.428H93.5715Z" fill="white"/>
<path d="M227 198H97.5C89.2157 198 82.5 191.284 82.5 183V182C82.5 173.716 75.7843 167 67.5 167H0" stroke="url(#paint11_linear_5086_1232)" stroke-width="3" stroke-dasharray="0"/>
<rect x="124" y="171" width="55" height="55" rx="14" fill="url(#paint12_linear_5086_1232)"/>
<path fill-rule="evenodd" clip-rule="evenodd" d="M165.682 185C166.19 185 166.681 185.189 167.057 185.531C167.433 185.873 167.669 186.343 167.718 186.849L167.727 187.045V200C167.727 200.348 167.594 200.682 167.355 200.935C167.117 201.187 166.791 201.339 166.444 201.36C166.097 201.38 165.755 201.267 165.488 201.044C165.222 200.821 165.051 200.505 165.01 200.16L165 200V187.727H137.727V204.091H147.406C147.741 204.091 148.063 204.213 148.313 204.435C148.563 204.657 148.723 204.963 148.762 205.295L148.77 205.455C148.77 205.789 148.647 206.111 148.425 206.361C148.203 206.61 147.898 206.77 147.566 206.809L147.406 206.818H137.045C136.537 206.818 136.047 206.629 135.67 206.287C135.294 205.945 135.058 205.475 135.01 204.969L135 204.773V187.045C135 186.537 135.189 186.047 135.531 185.67C135.873 185.294 136.343 185.058 136.849 185.01L137.045 185H165.682ZM139.091 209.545H147.273C147.634 209.545 147.981 209.689 148.237 209.945C148.493 210.201 148.636 210.547 148.636 210.909C148.636 211.271 148.493 211.618 148.237 211.873C147.981 212.129 147.634 212.273 147.273 212.273H139.091C138.729 212.273 138.382 212.129 138.127 211.873C137.871 211.618 137.727 211.271 137.727 210.909C137.727 210.547 137.871 210.201 138.127 209.945C138.382 209.689 138.729 209.545 139.091 209.545ZM160.792 189.092C160.446 189.123 160.124 189.285 159.893 189.545L153.455 196.727L148.164 192.151L148.035 192.051C147.751 191.86 147.406 191.782 147.067 191.834C146.728 191.885 146.422 192.062 146.208 192.33L140.753 199.148L140.655 199.288C140.481 199.571 140.417 199.908 140.475 200.235C140.532 200.563 140.707 200.858 140.966 201.065L141.106 201.163C141.39 201.337 141.726 201.401 142.053 201.344C142.381 201.286 142.676 201.112 142.883 200.852L147.451 195.14L152.684 199.667L152.82 199.771C153.093 199.953 153.423 200.031 153.748 199.989C154.074 199.948 154.374 199.791 154.593 199.546L161.925 191.364L162.031 191.23C162.23 190.945 162.313 190.595 162.262 190.251C162.211 189.906 162.03 189.595 161.757 189.379C161.484 189.164 161.139 189.061 160.792 189.092ZM156.818 208.182C156.818 208.724 157.034 209.245 157.417 209.628C157.801 210.012 158.321 210.227 158.864 210.227C159.406 210.227 159.926 210.012 160.31 209.628C160.694 209.245 160.909 208.724 160.909 208.182C160.909 207.639 160.694 207.119 160.31 206.735C159.926 206.352 159.406 206.136 158.864 206.136C158.321 206.136 157.801 206.352 157.417 206.735C157.034 207.119 156.818 207.639 156.818 208.182ZM154.998 201.364H162.73L166.564 208.182L162.73 215H154.998L151.163 208.182L154.998 201.364ZM163.435 208.182L161.134 204.091H156.592L154.291 208.182L156.593 212.273H161.133L163.435 208.182Z" fill="white"/>
<rect x="193" y="41" width="41" height="41" rx="12" fill="url(#paint13_linear_5086_1232)" fill-opacity="0.16"/>
<rect x="438" y="254" width="30" height="30" rx="8" fill="url(#paint14_linear_5086_1232)" fill-opacity="0.21"/>
<defs>
<linearGradient id="paint0_linear_5086_1232" x1="3.57069e-06" y1="105.75" x2="605.879" y2="159.606" gradientUnits="userSpaceOnUse">
<stop stop-color="#EEF4FF"/>
<stop offset="0.489583" stop-color="#F4F7FC"/>
<stop offset="1" stop-color="#EFF3FC"/>
</linearGradient>
<linearGradient id="paint1_linear_5086_1232" x1="57.75" y1="222.95" x2="3.75562" y2="287.158" gradientUnits="userSpaceOnUse">
<stop stop-color="#FFCBBF" stop-opacity="0.78"/>
<stop offset="0.447917" stop-color="#F0F5FF" stop-opacity="0.42"/>
</linearGradient>
<linearGradient id="paint2_linear_5086_1232" x1="477.9" y1="165.65" x2="594.401" y2="301.791" gradientUnits="userSpaceOnUse">
<stop stop-color="#E7E7E7"/>
<stop offset="0.463542" stop-color="white" stop-opacity="0"/>
</linearGradient>
<linearGradient id="paint3_linear_5086_1232" x1="306.375" y1="94" x2="306.375" y2="206.5" gradientUnits="userSpaceOnUse">
<stop stop-color="#ACB4FF"/>
<stop offset="1" stop-color="#DFECFD" stop-opacity="0.08"/>
</linearGradient>
<linearGradient id="paint4_linear_5086_1232" x1="287.625" y1="136.672" x2="287.625" y2="249.172" gradientUnits="userSpaceOnUse">
<stop stop-color="#4988FD"/>
<stop offset="1" stop-color="#C0D6FF"/>
</linearGradient>
<linearGradient id="paint5_linear_5086_1232" x1="396.113" y1="138.5" x2="598" y2="138.5" gradientUnits="userSpaceOnUse">
<stop stop-color="#AFB7FF"/>
<stop offset="0.510417" stop-color="#F4D3FF"/>
<stop offset="1" stop-color="#F6F9FF"/>
</linearGradient>
<linearGradient id="paint6_linear_5086_1232" x1="379.14" y1="221.129" x2="598" y2="221.129" gradientUnits="userSpaceOnUse">
<stop offset="0.411458" stop-color="#FFC977" stop-opacity="0.53"/>
<stop offset="1" stop-color="#F0F4FC"/>
</linearGradient>
<linearGradient id="paint7_linear_5086_1232" x1="475.5" y1="82" x2="475.5" y2="137" gradientUnits="userSpaceOnUse">
<stop stop-color="#1EE8F7"/>
<stop offset="1" stop-color="#97F8FF"/>
</linearGradient>
<linearGradient id="paint8_linear_5086_1232" x1="515.5" y1="171" x2="515.5" y2="232" gradientUnits="userSpaceOnUse">
<stop stop-color="#FFA832"/>
<stop offset="1" stop-color="#FFD270"/>
</linearGradient>
<linearGradient id="paint9_linear_5086_1232" x1="227.648" y1="130" x2="4.45398" y2="130" gradientUnits="userSpaceOnUse">
<stop stop-color="#ADB5FF"/>
<stop offset="0.515625" stop-color="#FE8FDD"/>
<stop offset="1" stop-color="#F6F9FF"/>
</linearGradient>
<linearGradient id="paint10_linear_5086_1232" x1="85" y1="72" x2="85" y2="134" gradientUnits="userSpaceOnUse">
<stop stop-color="#FD6CD3"/>
<stop offset="1" stop-color="#FFA9E0"/>
</linearGradient>
<linearGradient id="paint11_linear_5086_1232" x1="227" y1="167" x2="5.00001" y2="167" gradientUnits="userSpaceOnUse">
<stop stop-color="#82ADFD"/>
<stop offset="0.463542" stop-color="#53F4FF"/>
<stop offset="1" stop-color="#F5F8FD"/>
</linearGradient>
<linearGradient id="paint12_linear_5086_1232" x1="151.5" y1="171" x2="151.5" y2="226" gradientUnits="userSpaceOnUse">
<stop stop-color="#50E95F"/>
<stop offset="1" stop-color="#B5FFA9"/>
</linearGradient>
<linearGradient id="paint13_linear_5086_1232" x1="213.5" y1="41" x2="213.5" y2="82" gradientUnits="userSpaceOnUse">
<stop stop-color="#1BF0E3"/>
<stop offset="1" stop-color="#B5FFA9"/>
</linearGradient>
<linearGradient id="paint14_linear_5086_1232" x1="453" y1="254" x2="453" y2="284" gradientUnits="userSpaceOnUse">
<stop stop-color="#F01BDB"/>
<stop offset="1" stop-color="#F8F0F9" stop-opacity="0.74"/>
</linearGradient>
</defs>
</svg>
