<svg width="44" height="35" viewBox="0 0 44 35" fill="none" xmlns="http://www.w3.org/2000/svg">
<path d="M8.39304 19.7605C8.56258 15.5313 9.38107 12.3117 10.8516 10.099C12.3206 7.88761 14.6096 6.22313 17.7187 5.10421L13.9884 0C8.8447 1.99394 5.08666 4.93447 2.71291 8.82292C0.903263 11.7396 0 16.4553 0 22.9688V35H16.3623V19.7605H8.39304ZM34.6744 19.7605C34.8439 15.5313 35.6624 12.3117 37.1329 10.099C38.6019 7.88761 40.8909 6.22313 44 5.10421L40.2697 0C35.126 1.99394 31.368 4.93447 28.9942 8.82292C27.1846 11.7396 26.2813 16.4553 26.2813 22.9688V35H42.6436V19.7605H34.6744Z" fill="#5887FF"/>
</svg>
