<svg width="72" height="60" viewBox="0 0 72 60" fill="none" xmlns="http://www.w3.org/2000/svg">
<path fill-rule="evenodd" clip-rule="evenodd" d="M23.0797 5.6754C33.7366 -0.478602 46.7777 1.2384 55.4754 9.02015L57.2497 7.9959C47.9444 -0.697478 33.7047 -2.71198 22.1022 3.98602C10.5019 10.684 5.12773 24.0226 8.00285 36.4263L9.7751 35.402C7.38873 23.9801 12.4207 11.8294 23.0797 5.6754ZM36.2056 49.2888C32.4466 49.149 28.8035 47.9506 25.6956 45.8315L26.6136 45.3003C29.5561 47.2055 32.9675 48.261 36.4718 48.3504C39.9761 48.4399 43.4369 47.5597 46.4727 45.8071C49.5085 44.0544 52.0013 41.4974 53.6761 38.418C55.3509 35.3385 56.1427 31.8564 55.9641 28.3555L56.8842 27.8243C57.1642 31.5755 56.3799 35.3296 54.6214 38.655C52.8629 41.9803 50.2016 44.7418 46.9435 46.622C43.6867 48.5043 39.9646 49.4287 36.2056 49.2888ZM37.0144 12.1892C33.9186 12.1795 30.8754 12.9902 28.1946 14.5388C25.513 16.0867 23.2892 18.3172 21.7495 21.0036C20.2098 23.6899 19.4092 26.7362 19.429 29.8324L18.902 30.1363C18.8277 26.8965 19.6266 23.6964 21.2149 20.8717C22.8031 18.047 25.1222 15.7017 27.929 14.0819C30.7349 12.4604 33.9256 11.6241 37.1662 11.6607C40.4068 11.6974 43.5778 12.6056 46.3464 14.2901L45.8194 14.594C43.1484 13.0287 40.1103 12.1989 37.0144 12.1892ZM36.8997 46.853C39.9955 46.8627 43.0387 46.052 45.7195 44.5034C48.4009 42.9553 50.6246 40.7247 52.1643 38.0384C53.7039 35.3521 54.5047 32.306 54.4851 29.2098L55.0121 28.9059C55.0864 32.1457 54.2875 35.3457 52.6992 38.1704C51.111 40.9952 48.7918 43.3404 45.9851 44.9603C43.1791 46.5818 39.9884 47.4181 36.7479 47.3814C33.5073 47.3448 30.3363 46.4365 27.5677 44.752L28.0947 44.4481C30.7657 46.0135 33.8038 46.8432 36.8997 46.853ZM23.7427 6.82715C33.7579 1.04715 45.9787 2.56227 54.2577 9.7214L53.7307 10.0274C45.6345 3.13815 33.7685 1.70802 24.0339 7.32865C14.2992 12.9471 9.60298 23.9376 11.5219 34.3926L10.9927 34.6986C8.93148 23.9504 13.7297 12.6093 23.7427 6.82715ZM48.2206 13.2085C45.1127 11.0895 41.4696 9.89107 37.7106 9.75123C33.9516 9.61138 30.2295 10.5358 26.9727 12.418C23.7146 14.2982 21.0533 17.0598 19.2948 20.3851C17.5363 23.7104 16.752 27.4645 17.032 31.2158L17.9521 30.6845C17.7735 27.1837 18.5653 23.7015 20.2401 20.6221C21.9149 17.5427 24.4077 14.9856 27.4435 13.233C30.4793 11.4803 33.9401 10.6002 37.4444 10.6896C40.9487 10.779 44.3601 11.8346 47.3026 13.7398L48.2206 13.2085ZM63.867 22.8305C66.8887 34.5966 61.8822 47.3998 50.8471 53.7705C39.812 60.1413 26.2205 58.0758 17.542 49.5758L15.791 50.5873C25.0602 60.0053 39.8481 62.3746 51.8246 55.4599C63.8011 48.5451 69.1433 34.5541 65.6201 21.8169L63.867 22.8305ZM62.6664 23.5211C65.3481 34.6243 60.5732 46.6156 50.1799 52.6166C39.7886 58.6176 27.0152 56.7583 18.7426 48.8809L19.2632 48.5813C27.3574 56.1845 39.778 57.9568 49.893 52.1173C60.008 46.2778 64.683 34.6349 62.1457 23.8229L62.6664 23.5211ZM1.0007 44.7279C0.44842 43.7713 0.776171 42.5481 1.73276 41.9958L64.0866 5.99582C65.0432 5.44354 66.2663 5.77129 66.8186 6.72787L71.3186 14.5221C71.8709 15.4787 71.5432 16.7019 70.5866 17.2542L8.23276 53.2542C7.27617 53.8064 6.05299 53.4787 5.50071 52.5221L1.0007 44.7279ZM66.7309 15.6192C66.142 15.9592 65.4943 16.0906 64.7878 16.0136L64.6869 15.0788C65.3297 15.1388 65.8589 15.0487 66.2746 14.8087C66.4709 14.6954 66.6018 14.5621 66.6672 14.4088C66.7294 14.2498 66.7154 14.0923 66.6255 13.9365C66.6055 13.9018 66.5813 13.8734 66.5531 13.8512C66.5274 13.8199 66.4946 13.7965 66.4548 13.7809C66.4208 13.7621 66.3885 13.7461 66.3579 13.733C66.3272 13.7199 66.2805 13.7122 66.2176 13.71C66.1605 13.7045 66.1125 13.7014 66.0737 13.7008C66.0406 13.6968 65.9868 13.697 65.9124 13.7015L65.7339 13.7122C65.695 13.7115 65.628 13.7156 65.533 13.7243C65.4379 13.7329 65.3681 13.7386 65.3234 13.7413C65.0738 13.7623 64.87 13.776 64.7121 13.7825C64.5567 13.7799 64.3809 13.762 64.1847 13.729C63.9853 13.6902 63.8121 13.617 63.6653 13.5093C63.5151 13.3959 63.3867 13.2468 63.28 13.062C63.0434 12.6521 62.9981 12.2471 63.1444 11.8471C63.2873 11.4412 63.5781 11.1117 64.0169 10.8583C64.5192 10.5683 65.0652 10.434 65.6549 10.4554L65.8004 11.3875C65.2505 11.3816 64.8081 11.4754 64.4733 11.6687C64.2943 11.7721 64.1778 11.897 64.1239 12.0436C64.0666 12.1845 64.078 12.3242 64.158 12.4627C64.178 12.4974 64.1992 12.5275 64.2217 12.553C64.2499 12.5752 64.281 12.5957 64.315 12.6146C64.3547 12.6301 64.3899 12.6444 64.4206 12.6575C64.4479 12.6649 64.4901 12.6713 64.5472 12.6768C64.6043 12.6824 64.6494 12.6871 64.6825 12.6911L64.8574 12.694C64.9375 12.6862 64.9971 12.6827 65.0359 12.6833C65.0806 12.6806 65.1521 12.6778 65.2505 12.6749C65.3455 12.6662 65.4154 12.6606 65.46 12.6579C65.7279 12.6418 65.9366 12.6367 66.0863 12.6427C66.2418 12.6453 66.4193 12.666 66.6187 12.7048C66.8148 12.7378 66.9834 12.8099 67.1245 12.9209C67.268 13.0228 67.3931 13.1661 67.4998 13.3508C67.7464 13.7781 67.7925 14.1979 67.6381 14.6104C67.4894 15.0196 67.187 15.3558 66.7309 15.6192ZM57.9614 14.4469L60.6114 19.0368L61.59 18.4718L59.99 15.7005C59.81 15.3888 59.7475 15.0938 59.8025 14.8157C59.8575 14.5377 60.0178 14.322 60.2833 14.1686C60.5431 14.0186 60.7923 13.9902 61.0309 14.0834C61.2752 14.1733 61.4891 14.377 61.6724 14.6945L63.2874 17.4918L64.2747 16.9218L62.5047 13.8561C62.2213 13.3653 61.8693 13.049 61.4486 12.9069C61.0304 12.7558 60.5961 12.8103 60.1457 13.0703C59.6434 13.3603 59.3715 13.856 59.33 14.5574L58.94 13.8819L57.9614 14.4469ZM57.6072 20.8983C57.001 21.2483 56.3691 21.3206 55.7117 21.1151C55.0566 20.9005 54.5341 20.4555 54.1441 19.78L54.0991 19.7021C53.7091 19.0266 53.5879 18.3499 53.7353 17.672C53.8828 16.9941 54.2625 16.4785 54.8745 16.1251C55.4808 15.7751 56.1114 15.7074 56.7664 15.922C57.4239 16.1274 57.9476 16.5679 58.3376 17.2434L58.3826 17.3214C58.7726 17.9969 58.8939 18.6735 58.7464 19.3514C58.5989 20.0293 58.2192 20.5449 57.6072 20.8983ZM57.1295 20.0309C57.4702 19.8342 57.6644 19.5374 57.7123 19.1402C57.7601 18.7431 57.6607 18.3309 57.414 17.9037L57.364 17.8171C57.114 17.3841 56.7993 17.0923 56.4199 16.9419C56.043 16.7823 55.6871 16.7992 55.3522 16.9925C55.0116 17.1892 54.8173 17.4861 54.7695 17.8832C54.7183 18.2746 54.8177 18.6867 55.0677 19.1197L55.1177 19.2064C55.3644 19.6336 55.6762 19.927 56.0532 20.0866C56.4359 20.2428 56.7947 20.2243 57.1295 20.0309ZM50.8329 18.5625L53.4829 23.1524L54.4702 22.5824L51.8202 17.9925L50.8329 18.5625ZM49.8756 16.9444L50.4306 17.9057L51.4698 17.3057L50.9148 16.3444L49.8756 16.9444ZM51.7445 24.2485C50.9478 24.7085 50.3211 24.543 49.8644 23.752L48.3444 21.1193L47.8508 21.4043L47.3658 20.5643L47.8594 20.2793L47.1444 19.0408L48.1317 18.4708L48.8467 19.7093L49.8859 19.1093L50.3709 19.9493L49.3317 20.5493L50.7417 22.9915C50.935 23.3264 51.1962 23.3988 51.5253 23.2088C51.7101 23.1021 51.8611 22.9572 51.9786 22.7739L52.4436 23.5793C52.3008 23.8387 52.0678 24.0618 51.7445 24.2485ZM45.827 27.1915C46.2475 27.2798 46.6569 27.2089 47.0552 26.9789C47.5922 26.6689 47.8944 26.2057 47.962 25.5894L48.287 26.1523L49.2482 25.5973L47.6032 22.7481C47.2666 22.165 46.854 21.8104 46.3656 21.6844C45.8829 21.5551 45.3443 21.6621 44.7496 22.0054C44.2184 22.3121 43.7836 22.7056 43.445 23.1858L44.1006 23.8813C44.4163 23.468 44.7502 23.1598 45.1024 22.9564C45.7721 22.5698 46.2886 22.6911 46.652 23.3204L46.757 23.5023C46.3579 23.571 45.9707 23.7137 45.5954 23.9304C45.0931 24.2204 44.7652 24.5791 44.6116 25.0065C44.4605 25.4247 44.5233 25.8735 44.8 26.3527L44.83 26.4046C45.0766 26.8319 45.409 27.0942 45.827 27.1915ZM47.4948 25.4203C47.4034 25.6886 47.2134 25.9061 46.9247 26.0728C46.6995 26.2028 46.4827 26.2472 46.2741 26.2059C46.0622 26.1589 45.8913 26.0228 45.7612 25.7977L45.7313 25.7457C45.5946 25.509 45.5659 25.2792 45.6451 25.0564C45.7243 24.8336 45.9054 24.6406 46.1883 24.4773C46.5116 24.2906 46.829 24.1804 47.1406 24.1468L47.4106 24.6145C47.5606 24.8743 47.5887 25.1429 47.4948 25.4203ZM43.6894 28.8067L40.0794 22.554L41.0667 21.984L44.6767 28.2367L43.6894 28.8067ZM39.0306 31.0346C39.4513 31.1766 39.884 31.1193 40.3285 30.8626C40.8366 30.5693 41.1102 30.0764 41.1493 29.3841L41.5343 30.051L42.5215 29.481L39.8715 24.8911L38.8843 25.4611L40.4893 28.241C40.6693 28.5528 40.7318 28.8477 40.6768 29.1258C40.6185 29.3981 40.4594 29.6092 40.1996 29.7592C39.9455 29.9059 39.6964 29.9343 39.452 29.8444C39.2077 29.7546 38.9938 29.5509 38.8105 29.2333L37.1955 26.4361L36.2082 27.0061L37.9782 30.0718C38.2649 30.5683 38.6157 30.8892 39.0306 31.0346ZM37.2065 32.642C36.4097 33.102 35.783 32.9365 35.3263 32.1456L33.8063 29.5129L33.3127 29.7979L32.8277 28.9578L33.3213 28.6728L32.6063 27.4344L33.5936 26.8644L34.3086 28.1028L35.3478 27.5028L35.8328 28.3429L34.7936 28.9429L36.2036 31.385C36.3969 31.7199 36.6581 31.7923 36.9872 31.6023C37.172 31.4957 37.3231 31.3507 37.4405 31.1674L37.9055 31.9728C37.7628 32.2323 37.5298 32.4554 37.2065 32.642ZM31.2889 35.5851C31.7094 35.6733 32.1188 35.6025 32.5172 35.3725C33.0541 35.0625 33.3564 34.5993 33.4239 33.983L33.7489 34.5459L34.7102 33.9909L33.0652 31.1416C32.7285 30.5585 32.316 30.204 31.8275 30.078C31.3449 29.9486 30.8062 30.0556 30.2115 30.399C29.6804 30.7056 29.2455 31.0991 28.907 31.5794L29.5625 32.2748C29.8782 31.8616 30.2121 31.5533 30.5643 31.35C31.234 30.9633 31.7506 31.0847 32.1139 31.714L32.2189 31.8958C31.8198 31.9646 31.4326 32.1073 31.0573 32.324C30.5551 32.614 30.2271 32.9727 30.0736 33.4C29.9225 33.8183 29.9852 34.267 30.2619 34.7462L30.2919 34.7982C30.5386 35.2254 30.8709 35.4877 31.2889 35.5851ZM32.9568 33.8139C32.8653 34.0822 32.6753 34.2997 32.3866 34.4664C32.1615 34.5964 31.9446 34.6407 31.736 34.5995C31.5241 34.5525 31.3532 34.4164 31.2232 34.1912L31.1932 34.1392C31.0565 33.9025 31.0278 33.6728 31.107 33.45C31.1862 33.2272 31.3673 33.0341 31.6502 32.8708C31.9735 32.6841 32.291 32.574 32.6026 32.5404L32.8726 33.008C33.0226 33.2678 33.0506 33.5364 32.9568 33.8139ZM28.6279 32.7105L28.5759 32.7405C28.166 32.9772 27.9181 33.3012 27.8323 33.7125C27.7431 34.1181 27.8469 34.5778 28.1436 35.0917L29.3086 37.1095L28.3299 37.6745L25.6799 33.0846L26.6586 32.5196L27.1786 33.4202C27.0748 32.5872 27.3529 31.9955 28.0129 31.6453L28.6279 32.7105ZM23.8185 41.4801C24.5187 41.453 25.1749 41.2628 25.7869 40.9094C27.2418 40.0694 27.5693 38.9566 26.7692 37.571L24.5542 33.7345L23.5756 34.2995L23.9706 34.9837C23.2929 34.6898 22.6856 34.6979 22.1487 35.0079C21.6579 35.2912 21.3493 35.7234 21.2229 36.3045C21.1023 36.8822 21.237 37.5088 21.627 38.1843L21.647 38.2189C22.037 38.8944 22.5123 39.3244 23.0729 39.5088C23.6393 39.6898 24.1679 39.6387 24.6587 39.3553C25.1956 39.0453 25.5008 38.5073 25.5743 37.7413L25.8293 38.1829C26.296 38.9912 26.1136 39.6354 25.2822 40.1154C24.8203 40.382 24.2703 40.5226 23.6319 40.537L23.8185 41.4801ZM23.9275 35.609C24.2812 35.7281 24.573 35.9869 24.803 36.3853C25.0296 36.7779 25.1062 37.1571 25.0325 37.5229C24.9556 37.8829 24.7612 38.153 24.4494 38.333C24.1492 38.5063 23.8269 38.5346 23.4823 38.4179C23.1403 38.2921 22.8559 38.0329 22.6292 37.6403C22.3959 37.2361 22.3119 36.8574 22.3773 36.504C22.4394 36.1448 22.6235 35.8769 22.9294 35.7003C23.2412 35.5203 23.5739 35.4898 23.9275 35.609ZM18.528 43.3337L15.878 38.7437L16.8566 38.1787L17.2466 38.8542C17.2881 38.1528 17.56 37.6571 18.0623 37.3671C18.5126 37.1071 18.9469 37.0527 19.3652 37.2038C19.7859 37.3458 20.1379 37.6622 20.4212 38.153L22.1912 41.2187L21.204 41.7887L19.589 38.9914C19.4056 38.6739 19.1918 38.4702 18.9475 38.3803C18.7089 38.2871 18.4597 38.3155 18.1999 38.4655C17.9343 38.6188 17.774 38.8345 17.7191 39.1126C17.6641 39.3907 17.7266 39.6856 17.9066 39.9974L19.5066 42.7687L18.528 43.3337ZM13.6282 45.412C14.2857 45.6174 14.9176 45.5452 15.5238 45.1952C16.1358 44.8418 16.5155 44.3262 16.663 43.6483C16.8105 42.9704 16.6892 42.2937 16.2992 41.6182L16.2542 41.5403C15.8642 40.8648 15.3405 40.4243 14.683 40.2189C14.028 40.0043 13.3973 40.072 12.7911 40.422C12.1791 40.7753 11.7994 41.291 11.6519 41.9689C11.5044 42.6467 11.6257 43.3234 12.0157 43.9989L12.0607 44.0769C12.4507 44.7524 12.9732 45.1974 13.6282 45.412ZM15.6288 43.4371C15.581 43.8342 15.3867 44.1311 15.0461 44.3278C14.7112 44.5211 14.3525 44.5397 13.9697 44.3834C13.5928 44.2239 13.281 43.9305 13.0343 43.5032L12.9843 43.4166C12.7343 42.9836 12.6349 42.5714 12.6861 42.1801C12.7339 41.7829 12.9282 41.486 13.2688 41.2894C13.6037 41.096 13.9596 41.0792 14.3365 41.2387C14.7159 41.3892 15.0306 41.6809 15.2806 42.1139L15.3306 42.2006C15.5773 42.6278 15.6767 43.04 15.6288 43.4371ZM8.48165 48.1062C9.31394 48.3878 10.1111 48.3086 10.8732 47.8686C11.6238 47.4353 12.1183 46.7918 12.3568 45.9382L11.4555 45.4771C11.3388 45.8216 11.2019 46.1046 11.045 46.3261C10.8938 46.5442 10.6825 46.7316 10.4112 46.8883C9.91466 47.175 9.39885 47.2149 8.86375 47.0081C8.32531 46.7955 7.86776 46.363 7.4911 45.7106L7.4461 45.6326C7.07276 44.986 6.93031 44.3793 7.01875 43.8124C7.10385 43.2398 7.39178 42.8119 7.88253 42.5285C8.34441 42.2619 8.90929 42.1936 9.57718 42.3238L9.5835 41.2347C8.79966 41.0637 8.04689 41.1866 7.3252 41.6032C6.54001 42.0566 6.06004 42.7186 5.88531 43.5892C5.70724 44.4542 5.87987 45.3398 6.40321 46.2463L6.44821 46.3242C6.97154 47.2307 7.64935 47.8247 8.48165 48.1062Z" fill="#2678F2"/>
</svg>
