<svg width="16" height="16" viewBox="0 0 16 16" fill="none" xmlns="http://www.w3.org/2000/svg">
<g clip-path="url(#clip0_105_382)">
<path d="M14.474 14.8291C14.3769 14.8326 14.2801 14.8167 14.1893 14.7822C14.0985 14.7477 14.0156 14.6954 13.9453 14.6283L9.83715 10.4759C9.7691 10.4087 9.71506 10.3287 9.67818 10.2404C9.64131 10.1522 9.62231 10.0575 9.62231 9.96187C9.62231 9.86622 9.64131 9.77153 9.67818 9.68329C9.71506 9.59504 9.7691 9.51499 9.83715 9.44779C9.90288 9.37884 9.98191 9.32396 10.0695 9.28645C10.157 9.24895 10.2513 9.22961 10.3466 9.22961C10.4418 9.22961 10.5361 9.24895 10.6236 9.28645C10.7112 9.32396 10.7902 9.37884 10.856 9.44779L14.9641 13.6002C15.1017 13.7383 15.1806 13.9243 15.1844 14.1193C15.1893 14.2125 15.1753 14.3057 15.1431 14.3932C15.1109 14.4808 15.0613 14.5609 14.9972 14.6287C14.9278 14.6954 14.8457 14.7475 14.7559 14.782C14.666 14.8165 14.5702 14.8327 14.474 14.8297V14.8291Z" fill="white"/>
<path d="M10.3437 9.46381C10.4086 9.46408 10.4727 9.47743 10.5324 9.50306C10.592 9.52868 10.6458 9.56605 10.6907 9.61294L14.7984 13.7653C14.8902 13.8563 14.9445 13.9784 14.9506 14.1075C14.9567 14.2366 14.9142 14.3632 14.8314 14.4625C14.7839 14.5078 14.7277 14.5431 14.6661 14.566C14.6046 14.5889 14.539 14.5991 14.4734 14.5958C14.407 14.5991 14.3406 14.589 14.2782 14.5661C14.2158 14.5431 14.1586 14.5079 14.1101 14.4625L10.0027 10.3109C9.93364 10.2421 9.88636 10.1545 9.86679 10.0591C9.84722 9.9636 9.85622 9.86448 9.89266 9.7741C9.9291 9.68372 9.99138 9.60608 10.0717 9.55089C10.152 9.49571 10.2468 9.46542 10.3443 9.46381" fill="white"/>
<path d="M10.3437 8.99574C10.2182 8.99646 10.0941 9.02216 9.9787 9.07132C9.86327 9.12049 9.75877 9.19215 9.67131 9.28212C9.49155 9.46261 9.39062 9.70697 9.39062 9.96171C9.39062 10.2164 9.49155 10.4608 9.67131 10.6413L13.7847 14.7937C13.8748 14.8835 13.9824 14.9538 14.1008 15.0002C14.2193 15.0466 14.346 15.0681 14.4731 15.0635C14.6001 15.0676 14.7267 15.0458 14.845 14.9994C14.9633 14.953 15.071 14.883 15.1614 14.7937C15.2482 14.7034 15.3154 14.5962 15.359 14.4789C15.4026 14.3615 15.4216 14.2364 15.4149 14.1114C15.4096 13.8576 15.3077 13.6154 15.1299 13.4343L11.0215 9.28192C10.9331 9.19194 10.8277 9.12033 10.7115 9.07118C10.5952 9.02204 10.4705 8.99633 10.3443 8.99554L10.3437 8.99574Z" fill="white"/>
<path d="M12.7172 6.88989L10.096 4.29494L10.7403 0.602039C10.7612 0.508591 10.7534 0.411011 10.7181 0.322023C10.6827 0.233034 10.6213 0.156767 10.542 0.103167C10.4642 0.0458675 10.3722 0.0109451 10.276 0.00218241C10.1798 -0.00658025 10.083 0.0111509 9.99614 0.0534552L6.74226 1.80077L3.48215 0.0534552C3.39483 0.0130136 3.29838 -0.00368543 3.20255 0.00504245C3.10671 0.0137703 3.01487 0.0476165 2.93629 0.103167C2.85692 0.156748 2.79555 0.233013 2.76018 0.322007C2.72481 0.411002 2.71709 0.508591 2.73803 0.602039L3.38234 4.29494L0.712135 6.88989C0.644668 6.95191 0.595225 7.03101 0.56904 7.11883C0.542855 7.20665 0.540903 7.29992 0.563389 7.38876C0.588168 7.47932 0.638922 7.56064 0.709388 7.62269C0.779853 7.68474 0.866945 7.72479 0.959913 7.73791L4.61655 8.28864L6.24651 11.6318C6.29041 11.7146 6.3541 11.7853 6.43192 11.8376C6.50974 11.8899 6.59927 11.9221 6.69255 11.9314C6.78756 11.9314 6.88036 11.9028 6.95891 11.8494C7.03747 11.7959 7.09817 11.7201 7.13313 11.6318L8.76309 8.28864L12.4694 7.73791C12.5624 7.7248 12.6495 7.68475 12.7199 7.6227C12.7903 7.56065 12.8411 7.47932 12.8658 7.38876C12.8953 7.30042 12.8969 7.20512 12.8703 7.11585C12.8437 7.02657 12.7903 6.94767 12.7172 6.88989ZM8.28956 7.18387C8.20973 7.18376 8.13122 7.20436 8.06172 7.24365C7.99223 7.28295 7.93411 7.33959 7.89304 7.40806L6.74285 9.82385L5.59265 7.40806C5.566 7.33763 5.51726 7.27773 5.45372 7.23732C5.39019 7.1969 5.31527 7.17815 5.24019 7.18387L2.62301 6.7813L4.52843 4.90239C4.6177 4.78748 4.66459 4.6453 4.66119 4.49983L4.22003 1.85926L6.56583 3.11258C6.6228 3.15602 6.69246 3.17956 6.7641 3.17956C6.83574 3.17956 6.90539 3.15602 6.96236 3.11258L9.30836 1.85926L8.86778 4.49924C8.85555 4.57203 8.8612 4.6467 8.88422 4.71683C8.90724 4.78695 8.94696 4.85043 8.99995 4.90181L10.9054 6.78072L8.28956 7.18387ZM3.85645 10.4216L3.16263 12.4679L1.08098 13.1678L3.16263 13.8684L3.85645 15.9682L4.55046 13.8684L6.57149 13.1678L4.55046 12.4679L3.85645 10.4216ZM8.86232 11.5807L8.56503 12.5284L7.62869 12.8775L8.56503 13.1772L8.86232 14.1256L9.20933 13.1772L10.1455 12.8775L9.20933 12.5284L8.86232 11.5807Z" fill="white"/>
</g>
<defs>
<clipPath id="clip0_105_382">
<rect width="16" height="16" fill="white"/>
</clipPath>
</defs>
</svg>
