<svg width="360" height="85" viewBox="0 0 360 85" fill="none" xmlns="http://www.w3.org/2000/svg">
<rect width="360" height="85" rx="20" transform="matrix(1 0 0 -1 0 85)" fill="white"/>
<mask id="mask0_489_3477" style="mask-type:alpha" maskUnits="userSpaceOnUse" x="0" y="0" width="360" height="85">
<rect width="360" height="85" transform="matrix(1 0 0 -1 0 85)" fill="white"/>
</mask>
<g mask="url(#mask0_489_3477)">
<path fill-rule="evenodd" clip-rule="evenodd" d="M22.5628 54.0849C30.7772 53.4186 38.7432 56.7502 45.5404 61.3973C52.4855 66.1455 58.7339 72.3877 61.1141 80.4417C63.4608 88.3822 60.6668 96.5743 58.2796 104.503C55.834 112.625 52.2046 119.874 47.1807 126.717C39.8787 136.662 34.5427 150.11 22.5628 153.149C10.1524 156.297 -3.44884 150.292 -13.2194 142.038C-22.636 134.083 -28.2672 121.91 -28.9605 109.624C-29.5737 98.7575 -22.9308 89.1502 -16.7084 80.2085C-11.9736 73.4045 -4.75916 69.5132 2.14994 64.9172C8.72272 60.5449 14.6875 54.7238 22.5628 54.0849Z" fill="#FCF3FF"/>
<path fill-rule="evenodd" clip-rule="evenodd" d="M268.748 -139.997C285.242 -140.242 296.995 -125.396 311.236 -117.068C327.59 -107.504 349.316 -104.374 358.241 -87.6604C367.588 -70.157 364.127 -48.4448 357.95 -29.5876C351.784 -10.7642 340.561 6.64769 323.861 17.2951C307.723 27.5848 286.706 33.9051 268.748 27.2859C251.843 21.0551 252.025 -4.94131 236.914 -14.7526C220.202 -25.6029 189.205 -11.9551 180.616 -29.9355C172.476 -46.9742 197.282 -62.2763 206.28 -78.8776C213.19 -91.6263 216.801 -105.68 227.166 -115.82C238.914 -127.315 252.315 -139.753 268.748 -139.997Z" fill="#EEECFF"/>
<path fill-rule="evenodd" clip-rule="evenodd" d="M335.392 64.591C335.463 64.1546 335.5 63.7066 335.5 63.25C335.5 58.6937 331.806 55 327.25 55C324.367 55 321.829 56.479 320.354 58.7196C321.057 59.2592 324.068 61.493 327.4 62.7998C330.854 64.1542 334.702 64.5322 335.392 64.591ZM335.19 65.499C334.211 68.9623 331.027 71.5 327.25 71.5C322.694 71.5 319 67.8063 319 63.25C319 61.8986 319.325 60.6232 319.901 59.4975L319.9 59.4998C319.9 59.4998 323.274 62.1995 327.1 63.6998C330.816 65.1571 334.956 65.4816 335.19 65.499Z" fill="url(#paint0_linear_489_3477)"/>
</g>
<defs>
<linearGradient id="paint0_linear_489_3477" x1="319" y1="55" x2="319" y2="71.5" gradientUnits="userSpaceOnUse">
<stop stop-color="#4146B6"/>
<stop offset="1" stop-color="#C751FE"/>
</linearGradient>
</defs>
</svg>
