<svg width="520" height="154" viewBox="0 0 520 154" fill="none" xmlns="http://www.w3.org/2000/svg">
<rect x="0.5" y="0.5" width="519" height="153" rx="19.5" fill="#ECECEC" fill-opacity="0.4" stroke="#EBEBEB"/>
<path d="M132.559 93H141.613V90.48H135.331V80.4H132.559V93ZM147.974 93.216C150.98 93.216 153.212 90.966 153.212 88.194V88.158C153.212 85.386 150.998 83.172 148.01 83.172C145.004 83.172 142.772 85.422 142.772 88.194V88.23C142.772 91.002 144.986 93.216 147.974 93.216ZM148.01 90.858C146.498 90.858 145.472 89.616 145.472 88.194V88.158C145.472 86.736 146.408 85.53 147.974 85.53C149.486 85.53 150.512 86.772 150.512 88.194V88.23C150.512 89.652 149.576 90.858 148.01 90.858ZM159.513 95.916C161.385 95.916 162.771 95.52 163.671 94.62C164.481 93.81 164.895 92.55 164.895 90.822V83.352H162.159V84.612C161.421 83.802 160.539 83.172 159.045 83.172C156.831 83.172 154.761 84.792 154.761 87.672V87.708C154.761 90.57 156.795 92.208 159.045 92.208C160.503 92.208 161.385 91.614 162.195 90.642V91.11C162.195 92.838 161.313 93.738 159.441 93.738C158.163 93.738 157.173 93.414 156.183 92.856L155.247 94.908C156.471 95.556 157.947 95.916 159.513 95.916ZM159.837 89.94C158.505 89.94 157.497 89.04 157.497 87.708V87.672C157.497 86.358 158.505 85.44 159.837 85.44C161.169 85.44 162.195 86.358 162.195 87.672V87.708C162.195 89.022 161.169 89.94 159.837 89.94ZM167.393 82.29H170.273V79.86H167.393V82.29ZM167.465 93H170.201V83.352H167.465V93ZM172.771 93H175.507V87.618C175.507 86.322 176.173 85.656 177.217 85.656C178.261 85.656 178.873 86.322 178.873 87.618V93H181.609V86.754C181.609 84.54 180.403 83.172 178.333 83.172C176.947 83.172 176.137 83.91 175.507 84.72V83.352H172.771V93ZM192.118 93.18C193.45 93.18 194.368 92.694 195.034 91.956V93H197.68V87.402C197.68 86.106 197.356 85.044 196.636 84.324C195.952 83.64 194.872 83.244 193.378 83.244C191.74 83.244 190.696 83.55 189.634 84.018L190.318 86.106C191.2 85.782 191.938 85.584 192.982 85.584C194.35 85.584 195.052 86.214 195.052 87.348V87.51C194.368 87.276 193.666 87.114 192.694 87.114C190.408 87.114 188.806 88.086 188.806 90.192V90.228C188.806 92.136 190.3 93.18 192.118 93.18ZM192.946 91.29C192.064 91.29 191.452 90.858 191.452 90.12V90.084C191.452 89.22 192.172 88.752 193.342 88.752C194.008 88.752 194.62 88.896 195.088 89.112V89.598C195.088 90.588 194.224 91.29 192.946 91.29ZM200.035 93H202.771V87.618C202.771 86.322 203.437 85.656 204.481 85.656C205.525 85.656 206.137 86.322 206.137 87.618V93H208.873V86.754C208.873 84.54 207.667 83.172 205.597 83.172C204.211 83.172 203.401 83.91 202.771 84.72V83.352H200.035V93ZM215.209 93.18C216.631 93.18 217.549 92.514 218.215 91.614V93H220.951V79.86H218.215V84.612C217.567 83.838 216.667 83.172 215.209 83.172C212.923 83.172 210.817 84.936 210.817 88.158V88.194C210.817 91.416 212.959 93.18 215.209 93.18ZM215.911 90.858C214.633 90.858 213.553 89.796 213.553 88.194V88.158C213.553 86.538 214.633 85.494 215.911 85.494C217.189 85.494 218.251 86.556 218.251 88.158V88.194C218.251 89.796 217.189 90.858 215.911 90.858ZM233.562 93.18C236.28 93.18 238.188 91.776 238.188 89.274V89.238C238.188 87.042 236.748 86.124 234.192 85.458C232.014 84.9 231.474 84.63 231.474 83.802V83.766C231.474 83.154 232.032 82.668 233.094 82.668C234.156 82.668 235.254 83.136 236.37 83.91L237.81 81.822C236.532 80.796 234.966 80.22 233.13 80.22C230.556 80.22 228.72 81.732 228.72 84.018V84.054C228.72 86.556 230.358 87.258 232.896 87.906C235.002 88.446 235.434 88.806 235.434 89.508V89.544C235.434 90.282 234.75 90.732 233.616 90.732C232.176 90.732 230.988 90.138 229.854 89.202L228.216 91.164C229.728 92.514 231.654 93.18 233.562 93.18ZM243.51 93.18C244.896 93.18 245.706 92.442 246.336 91.632V93H249.072V83.352H246.336V88.734C246.336 90.03 245.67 90.696 244.626 90.696C243.582 90.696 242.97 90.03 242.97 88.734V83.352H240.234V89.598C240.234 91.812 241.44 93.18 243.51 93.18ZM257.263 93.18C259.549 93.18 261.655 91.416 261.655 88.194V88.158C261.655 84.936 259.513 83.172 257.263 83.172C255.841 83.172 254.923 83.838 254.257 84.738V79.86H251.521V93H254.257V91.74C254.905 92.514 255.805 93.18 257.263 93.18ZM256.561 90.858C255.283 90.858 254.221 89.796 254.221 88.194V88.158C254.221 86.556 255.283 85.494 256.561 85.494C257.839 85.494 258.919 86.556 258.919 88.158V88.194C258.919 89.814 257.839 90.858 256.561 90.858ZM267.051 93.18C269.139 93.18 270.741 92.208 270.741 90.066V90.03C270.741 88.266 269.175 87.618 267.825 87.168C266.781 86.808 265.863 86.556 265.863 86.016V85.98C265.863 85.602 266.205 85.314 266.871 85.314C267.573 85.314 268.527 85.656 269.481 86.214L270.525 84.324C269.481 83.622 268.149 83.208 266.925 83.208C264.981 83.208 263.397 84.306 263.397 86.268V86.304C263.397 88.176 264.927 88.806 266.277 89.202C267.339 89.526 268.275 89.724 268.275 90.318V90.354C268.275 90.786 267.915 91.074 267.123 91.074C266.223 91.074 265.125 90.678 264.081 89.922L262.911 91.722C264.189 92.73 265.701 93.18 267.051 93.18ZM277.257 93.216C279.183 93.216 280.263 92.478 281.199 91.452L279.597 89.832C278.931 90.462 278.301 90.858 277.383 90.858C275.889 90.858 274.935 89.67 274.935 88.194V88.158C274.935 86.736 275.907 85.53 277.275 85.53C278.247 85.53 278.859 85.944 279.471 86.592L281.145 84.792C280.245 83.784 279.111 83.172 277.293 83.172C274.341 83.172 272.235 85.44 272.235 88.194V88.23C272.235 90.984 274.359 93.216 277.257 93.216ZM282.986 93H285.722V89.436C285.722 87.132 286.838 86.034 288.656 86.034H288.8V83.172C287.18 83.1 286.28 83.964 285.722 85.296V83.352H282.986V93ZM290.563 82.29H293.443V79.86H290.563V82.29ZM290.635 93H293.371V83.352H290.635V93ZM301.683 93.18C303.969 93.18 306.075 91.416 306.075 88.194V88.158C306.075 84.936 303.933 83.172 301.683 83.172C300.261 83.172 299.343 83.838 298.677 84.738V79.86H295.941V93H298.677V91.74C299.325 92.514 300.225 93.18 301.683 93.18ZM300.981 90.858C299.703 90.858 298.641 89.796 298.641 88.194V88.158C298.641 86.556 299.703 85.494 300.981 85.494C302.259 85.494 303.339 86.556 303.339 88.158V88.194C303.339 89.814 302.259 90.858 300.981 90.858ZM312.659 93.216C314.405 93.216 315.701 92.532 316.601 91.416L315.035 90.03C314.279 90.732 313.613 91.02 312.695 91.02C311.471 91.02 310.607 90.372 310.337 89.13H317.051C317.069 88.878 317.087 88.626 317.087 88.41C317.087 85.674 315.611 83.172 312.389 83.172C309.581 83.172 307.619 85.44 307.619 88.194V88.23C307.619 91.182 309.761 93.216 312.659 93.216ZM310.301 87.42C310.517 86.178 311.255 85.368 312.389 85.368C313.541 85.368 314.261 86.196 314.423 87.42H310.301ZM327.781 93.162C328.699 93.162 329.365 92.946 329.941 92.604V90.408C329.545 90.624 329.095 90.75 328.591 90.75C327.979 90.75 327.709 90.444 327.709 89.814V85.692H329.977V83.352H327.709V80.886H324.973V83.352H323.821V85.692H324.973V90.264C324.973 92.496 326.107 93.162 327.781 93.162ZM336.464 93.216C339.47 93.216 341.702 90.966 341.702 88.194V88.158C341.702 85.386 339.488 83.172 336.5 83.172C333.494 83.172 331.262 85.422 331.262 88.194V88.23C331.262 91.002 333.476 93.216 336.464 93.216ZM336.5 90.858C334.988 90.858 333.962 89.616 333.962 88.194V88.158C333.962 86.736 334.898 85.53 336.464 85.53C337.976 85.53 339.002 86.772 339.002 88.194V88.23C339.002 89.652 338.066 90.858 336.5 90.858ZM349.079 93H351.815V89.436C351.815 87.132 352.931 86.034 354.749 86.034H354.893V83.172C353.273 83.1 352.373 83.964 351.815 85.296V83.352H349.079V93ZM360.911 93.216C362.657 93.216 363.953 92.532 364.853 91.416L363.287 90.03C362.531 90.732 361.865 91.02 360.947 91.02C359.723 91.02 358.859 90.372 358.589 89.13H365.303C365.321 88.878 365.339 88.626 365.339 88.41C365.339 85.674 363.863 83.172 360.641 83.172C357.833 83.172 355.871 85.44 355.871 88.194V88.23C355.871 91.182 358.013 93.216 360.911 93.216ZM358.553 87.42C358.769 86.178 359.507 85.368 360.641 85.368C361.793 85.368 362.513 86.196 362.675 87.42H358.553ZM370.114 93.18C371.446 93.18 372.364 92.694 373.03 91.956V93H375.676V87.402C375.676 86.106 375.352 85.044 374.632 84.324C373.948 83.64 372.868 83.244 371.374 83.244C369.736 83.244 368.692 83.55 367.63 84.018L368.314 86.106C369.196 85.782 369.934 85.584 370.978 85.584C372.346 85.584 373.048 86.214 373.048 87.348V87.51C372.364 87.276 371.662 87.114 370.69 87.114C368.404 87.114 366.802 88.086 366.802 90.192V90.228C366.802 92.136 368.296 93.18 370.114 93.18ZM370.942 91.29C370.06 91.29 369.448 90.858 369.448 90.12V90.084C369.448 89.22 370.168 88.752 371.338 88.752C372.004 88.752 372.616 88.896 373.084 89.112V89.598C373.084 90.588 372.22 91.29 370.942 91.29ZM381.991 93.18C383.413 93.18 384.331 92.514 384.997 91.614V93H387.733V79.86H384.997V84.612C384.349 83.838 383.449 83.172 381.991 83.172C379.705 83.172 377.599 84.936 377.599 88.158V88.194C377.599 91.416 379.741 93.18 381.991 93.18ZM382.693 90.858C381.415 90.858 380.335 89.796 380.335 88.194V88.158C380.335 86.538 381.415 85.494 382.693 85.494C383.971 85.494 385.033 86.556 385.033 88.158V88.194C385.033 89.796 383.971 90.858 382.693 90.858Z" fill="black"/>
<path d="M98.544 125.44C98.544 125.792 98.832 126.08 99.184 126.08C99.536 126.08 99.824 125.792 99.824 125.44V115.968H103.072C103.392 115.968 103.664 115.712 103.664 115.392C103.664 115.072 103.392 114.8 103.072 114.8H95.296C94.976 114.8 94.704 115.072 94.704 115.392C94.704 115.712 94.976 115.968 95.296 115.968H98.544V125.44ZM105.501 125.456C105.501 125.808 105.773 126.08 106.125 126.08C106.477 126.08 106.733 125.808 106.733 125.456V121.264C106.733 119.712 107.789 118.672 109.213 118.672C110.669 118.672 111.501 119.632 111.501 121.168V125.456C111.501 125.808 111.773 126.08 112.125 126.08C112.461 126.08 112.733 125.808 112.733 125.456V120.864C112.733 118.896 111.565 117.552 109.565 117.552C108.141 117.552 107.277 118.272 106.733 119.168V114.864C106.733 114.528 106.461 114.24 106.109 114.24C105.773 114.24 105.501 114.528 105.501 114.864V125.456ZM115.36 115.344C115.36 115.728 115.68 116 116.08 116C116.496 116 116.816 115.728 116.816 115.344V115.136C116.816 114.736 116.496 114.48 116.08 114.48C115.68 114.48 115.36 114.736 115.36 115.136V115.344ZM115.472 125.456C115.472 125.808 115.744 126.08 116.096 126.08C116.448 126.08 116.704 125.808 116.704 125.456V118.272C116.704 117.92 116.432 117.648 116.08 117.648C115.744 117.648 115.472 117.936 115.472 118.272V125.456ZM122.299 126.16C123.948 126.16 125.244 125.248 125.244 123.68V123.648C125.244 122.16 123.868 121.664 122.588 121.28C121.484 120.944 120.46 120.64 120.46 119.856V119.824C120.46 119.136 121.084 118.624 122.06 118.624C122.764 118.624 123.516 118.864 124.22 119.264C124.284 119.296 124.38 119.328 124.492 119.328C124.796 119.328 125.036 119.088 125.036 118.8C125.036 118.56 124.892 118.384 124.732 118.288C123.932 117.856 122.972 117.584 122.092 117.584C120.46 117.584 119.276 118.528 119.276 119.952V119.984C119.276 121.504 120.716 121.952 122.012 122.32C123.1 122.624 124.076 122.944 124.076 123.776V123.808C124.076 124.608 123.356 125.12 122.364 125.12C121.468 125.12 120.588 124.816 119.74 124.24C119.66 124.176 119.548 124.144 119.436 124.144C119.132 124.144 118.892 124.384 118.892 124.672C118.892 124.88 119.004 125.04 119.116 125.12C120.012 125.76 121.212 126.16 122.299 126.16ZM134.793 126.176C136.249 126.176 137.209 125.504 137.785 124.752V125.504C137.785 125.824 138.025 126.08 138.377 126.08C138.713 126.08 138.969 125.824 138.969 125.472V120.944C138.969 119.888 138.681 119.088 138.121 118.528C137.513 117.92 136.617 117.616 135.449 117.616C134.393 117.616 133.561 117.824 132.745 118.176C132.585 118.24 132.409 118.432 132.409 118.688C132.409 118.976 132.665 119.216 132.953 119.216C133.017 119.216 133.097 119.2 133.177 119.168C133.785 118.896 134.489 118.704 135.321 118.704C136.873 118.704 137.785 119.472 137.785 120.96V121.248C137.049 121.04 136.297 120.896 135.241 120.896C133.145 120.896 131.705 121.824 131.705 123.568V123.6C131.705 125.296 133.257 126.176 134.793 126.176ZM135.033 125.2C133.913 125.2 132.953 124.592 132.953 123.552V123.52C132.953 122.48 133.817 121.808 135.369 121.808C136.377 121.808 137.193 121.984 137.801 122.16V122.96C137.801 124.272 136.553 125.2 135.033 125.2ZM141.595 125.456C141.595 125.808 141.867 126.08 142.219 126.08C142.571 126.08 142.827 125.792 142.827 125.456V122.64C142.827 120.256 144.139 119.056 145.739 118.864C146.059 118.816 146.283 118.576 146.283 118.24C146.283 117.888 146.043 117.616 145.675 117.616C144.635 117.616 143.435 118.448 142.827 119.824V118.272C142.827 117.92 142.555 117.648 142.203 117.648C141.867 117.648 141.595 117.936 141.595 118.272V125.456ZM150.847 126.144C151.327 126.144 151.711 126.064 152.063 125.92C152.271 125.84 152.415 125.664 152.415 125.44C152.415 125.152 152.175 124.912 151.887 124.912C151.791 124.912 151.567 125.024 151.135 125.024C150.303 125.024 149.743 124.656 149.743 123.648V118.816H151.887C152.191 118.816 152.447 118.576 152.447 118.272C152.447 117.984 152.191 117.728 151.887 117.728H149.743V115.776C149.743 115.44 149.455 115.152 149.119 115.152C148.767 115.152 148.511 115.44 148.511 115.776V117.728H147.839C147.551 117.728 147.295 117.968 147.295 118.272C147.295 118.56 147.551 118.816 147.839 118.816H148.511V123.808C148.511 125.488 149.519 126.144 150.847 126.144ZM154.548 115.344C154.548 115.728 154.868 116 155.268 116C155.684 116 156.004 115.728 156.004 115.344V115.136C156.004 114.736 155.684 114.48 155.268 114.48C154.868 114.48 154.548 114.736 154.548 115.136V115.344ZM154.66 125.456C154.66 125.808 154.932 126.08 155.284 126.08C155.636 126.08 155.892 125.808 155.892 125.456V118.272C155.892 117.92 155.62 117.648 155.268 117.648C154.932 117.648 154.66 117.936 154.66 118.272V125.456ZM162.479 126.192C163.871 126.192 164.815 125.648 165.599 124.864C165.695 124.768 165.759 124.624 165.759 124.48C165.759 124.192 165.503 123.92 165.199 123.92C165.039 123.92 164.927 124 164.847 124.08C164.239 124.656 163.487 125.088 162.543 125.088C160.815 125.088 159.503 123.664 159.503 121.872V121.84C159.503 120.064 160.783 118.64 162.463 118.64C163.455 118.64 164.127 119.088 164.719 119.632C164.815 119.712 164.959 119.776 165.119 119.776C165.439 119.776 165.711 119.52 165.711 119.184C165.711 118.992 165.615 118.832 165.519 118.752C164.783 118.08 163.855 117.552 162.479 117.552C160.063 117.552 158.239 119.536 158.239 121.872V121.904C158.239 124.224 160.063 126.192 162.479 126.192ZM168.004 125.456C168.004 125.808 168.276 126.08 168.628 126.08C168.98 126.08 169.236 125.808 169.236 125.456V114.864C169.236 114.528 168.964 114.24 168.612 114.24C168.276 114.24 168.004 114.528 168.004 114.864V125.456ZM172.831 121.408C172.991 119.792 174.079 118.592 175.519 118.592C177.167 118.592 178.031 119.904 178.159 121.408H172.831ZM178.831 124.944C178.959 124.832 179.023 124.688 179.023 124.544C179.023 124.256 178.783 124.016 178.479 124.016C178.335 124.016 178.223 124.08 178.127 124.16C177.519 124.72 176.767 125.12 175.743 125.12C174.271 125.12 173.007 124.112 172.831 122.32H178.815C179.119 122.32 179.391 122.08 179.391 121.744C179.391 119.552 177.999 117.552 175.551 117.552C173.263 117.552 171.583 119.472 171.583 121.856V121.888C171.583 124.448 173.439 126.192 175.711 126.192C177.119 126.192 178.047 125.696 178.831 124.944ZM186.36 115.344C186.36 115.728 186.68 116 187.08 116C187.496 116 187.816 115.728 187.816 115.344V115.136C187.816 114.736 187.496 114.48 187.08 114.48C186.68 114.48 186.36 114.736 186.36 115.136V115.344ZM186.472 125.456C186.472 125.808 186.744 126.08 187.096 126.08C187.448 126.08 187.704 125.808 187.704 125.456V118.272C187.704 117.92 187.432 117.648 187.08 117.648C186.744 117.648 186.472 117.936 186.472 118.272V125.456ZM193.299 126.16C194.948 126.16 196.244 125.248 196.244 123.68V123.648C196.244 122.16 194.868 121.664 193.588 121.28C192.484 120.944 191.46 120.64 191.46 119.856V119.824C191.46 119.136 192.084 118.624 193.06 118.624C193.764 118.624 194.516 118.864 195.22 119.264C195.284 119.296 195.38 119.328 195.492 119.328C195.796 119.328 196.036 119.088 196.036 118.8C196.036 118.56 195.892 118.384 195.732 118.288C194.932 117.856 193.972 117.584 193.092 117.584C191.46 117.584 190.276 118.528 190.276 119.952V119.984C190.276 121.504 191.716 121.952 193.012 122.32C194.1 122.624 195.076 122.944 195.076 123.776V123.808C195.076 124.608 194.356 125.12 193.364 125.12C192.468 125.12 191.588 124.816 190.74 124.24C190.66 124.176 190.548 124.144 190.436 124.144C190.132 124.144 189.892 124.384 189.892 124.672C189.892 124.88 190.004 125.04 190.116 125.12C191.012 125.76 192.212 126.16 193.299 126.16ZM207.105 126.192C209.601 126.192 211.441 124.208 211.441 121.872V121.84C211.441 119.504 209.617 117.552 207.137 117.552C204.641 117.552 202.817 119.536 202.817 121.872V121.904C202.817 124.24 204.625 126.192 207.105 126.192ZM207.137 125.088C205.393 125.088 204.081 123.648 204.081 121.872V121.84C204.081 120.096 205.313 118.64 207.105 118.64C208.849 118.64 210.177 120.096 210.177 121.872V121.904C210.177 123.648 208.929 125.088 207.137 125.088ZM213.673 125.456C213.673 125.808 213.945 126.08 214.297 126.08C214.649 126.08 214.905 125.808 214.905 125.456V121.264C214.905 119.712 215.961 118.672 217.385 118.672C218.841 118.672 219.673 119.632 219.673 121.168V125.456C219.673 125.808 219.945 126.08 220.297 126.08C220.633 126.08 220.905 125.808 220.905 125.456V120.864C220.905 118.896 219.737 117.552 217.737 117.552C216.313 117.552 215.449 118.272 214.905 119.168V118.272C214.905 117.92 214.633 117.648 214.281 117.648C213.945 117.648 213.673 117.936 213.673 118.272V125.456ZM223.644 125.456C223.644 125.808 223.916 126.08 224.268 126.08C224.62 126.08 224.876 125.808 224.876 125.456V114.864C224.876 114.528 224.604 114.24 224.252 114.24C223.916 114.24 223.644 114.528 223.644 114.864V125.456ZM228.935 128.608C230.183 128.608 230.983 127.984 231.703 126.272L234.935 118.56C234.967 118.464 234.999 118.352 234.999 118.256C234.999 117.92 234.727 117.648 234.391 117.648C234.071 117.648 233.895 117.856 233.799 118.112L231.239 124.624L228.359 118.128C228.247 117.856 228.071 117.648 227.735 117.648C227.383 117.648 227.111 117.92 227.111 118.256C227.111 118.368 227.143 118.48 227.191 118.592L230.647 125.92L230.583 126.048C230.135 127.056 229.687 127.52 228.919 127.52C228.503 127.52 228.263 127.456 228.023 127.376C227.927 127.344 227.831 127.312 227.719 127.312C227.447 127.312 227.191 127.536 227.191 127.84C227.191 128.128 227.383 128.288 227.575 128.368C227.991 128.512 228.391 128.608 228.935 128.608ZM244.387 126.176C245.843 126.176 246.803 125.504 247.379 124.752V125.504C247.379 125.824 247.619 126.08 247.971 126.08C248.307 126.08 248.563 125.824 248.563 125.472V120.944C248.563 119.888 248.275 119.088 247.715 118.528C247.107 117.92 246.211 117.616 245.043 117.616C243.987 117.616 243.155 117.824 242.339 118.176C242.179 118.24 242.003 118.432 242.003 118.688C242.003 118.976 242.259 119.216 242.547 119.216C242.611 119.216 242.691 119.2 242.771 119.168C243.379 118.896 244.083 118.704 244.915 118.704C246.467 118.704 247.379 119.472 247.379 120.96V121.248C246.643 121.04 245.891 120.896 244.835 120.896C242.739 120.896 241.299 121.824 241.299 123.568V123.6C241.299 125.296 242.851 126.176 244.387 126.176ZM244.627 125.2C243.507 125.2 242.547 124.592 242.547 123.552V123.52C242.547 122.48 243.411 121.808 244.963 121.808C245.971 121.808 246.787 121.984 247.395 122.16V122.96C247.395 124.272 246.147 125.2 244.627 125.2ZM254.908 125.6L258.028 118.56C258.06 118.48 258.092 118.368 258.092 118.256C258.092 117.92 257.82 117.648 257.484 117.648C257.164 117.648 256.988 117.856 256.908 118.096L254.188 124.592L251.516 118.128C251.42 117.856 251.244 117.648 250.892 117.648C250.54 117.648 250.268 117.936 250.268 118.256C250.268 118.368 250.316 118.48 250.348 118.592L253.452 125.6C253.596 125.92 253.82 126.128 254.156 126.128H254.22C254.556 126.128 254.764 125.92 254.908 125.6ZM262.356 126.176C263.812 126.176 264.772 125.504 265.348 124.752V125.504C265.348 125.824 265.588 126.08 265.94 126.08C266.276 126.08 266.532 125.824 266.532 125.472V120.944C266.532 119.888 266.244 119.088 265.684 118.528C265.076 117.92 264.18 117.616 263.012 117.616C261.956 117.616 261.124 117.824 260.308 118.176C260.148 118.24 259.972 118.432 259.972 118.688C259.972 118.976 260.228 119.216 260.516 119.216C260.58 119.216 260.66 119.2 260.74 119.168C261.348 118.896 262.052 118.704 262.884 118.704C264.436 118.704 265.348 119.472 265.348 120.96V121.248C264.612 121.04 263.86 120.896 262.804 120.896C260.708 120.896 259.268 121.824 259.268 123.568V123.6C259.268 125.296 260.82 126.176 262.356 126.176ZM262.596 125.2C261.476 125.2 260.516 124.592 260.516 123.552V123.52C260.516 122.48 261.38 121.808 262.932 121.808C263.94 121.808 264.756 121.984 265.364 122.16V122.96C265.364 124.272 264.116 125.2 262.596 125.2ZM269.157 115.344C269.157 115.728 269.477 116 269.877 116C270.293 116 270.613 115.728 270.613 115.344V115.136C270.613 114.736 270.293 114.48 269.877 114.48C269.477 114.48 269.157 114.736 269.157 115.136V115.344ZM269.269 125.456C269.269 125.808 269.541 126.08 269.893 126.08C270.245 126.08 270.501 125.808 270.501 125.456V118.272C270.501 117.92 270.229 117.648 269.877 117.648C269.541 117.648 269.269 117.936 269.269 118.272V125.456ZM273.472 125.456C273.472 125.808 273.744 126.08 274.096 126.08C274.448 126.08 274.704 125.808 274.704 125.456V114.864C274.704 114.528 274.432 114.24 274.08 114.24C273.744 114.24 273.472 114.528 273.472 114.864V125.456ZM280.028 126.176C281.484 126.176 282.444 125.504 283.02 124.752V125.504C283.02 125.824 283.26 126.08 283.612 126.08C283.948 126.08 284.204 125.824 284.204 125.472V120.944C284.204 119.888 283.916 119.088 283.356 118.528C282.748 117.92 281.852 117.616 280.684 117.616C279.628 117.616 278.796 117.824 277.98 118.176C277.82 118.24 277.644 118.432 277.644 118.688C277.644 118.976 277.9 119.216 278.188 119.216C278.252 119.216 278.332 119.2 278.412 119.168C279.02 118.896 279.724 118.704 280.556 118.704C282.108 118.704 283.02 119.472 283.02 120.96V121.248C282.284 121.04 281.532 120.896 280.476 120.896C278.38 120.896 276.94 121.824 276.94 123.568V123.6C276.94 125.296 278.492 126.176 280.028 126.176ZM280.268 125.2C279.148 125.2 278.188 124.592 278.188 123.552V123.52C278.188 122.48 279.052 121.808 280.604 121.808C281.612 121.808 282.428 121.984 283.036 122.16V122.96C283.036 124.272 281.788 125.2 280.268 125.2ZM286.829 125.456C286.829 125.792 287.101 126.08 287.453 126.08C287.805 126.08 288.061 125.792 288.061 125.456V124.416C288.701 125.344 289.693 126.176 291.229 126.176C293.229 126.176 295.181 124.576 295.181 121.872V121.84C295.181 119.12 293.213 117.552 291.229 117.552C289.709 117.552 288.733 118.4 288.061 119.392V114.864C288.061 114.512 287.789 114.24 287.437 114.24C287.101 114.24 286.829 114.512 286.829 114.864V125.456ZM291.005 125.072C289.469 125.072 288.013 123.792 288.013 121.872V121.84C288.013 119.952 289.469 118.656 291.005 118.656C292.573 118.656 293.917 119.904 293.917 121.856V121.888C293.917 123.888 292.605 125.072 291.005 125.072ZM297.566 125.456C297.566 125.808 297.838 126.08 298.19 126.08C298.542 126.08 298.798 125.808 298.798 125.456V114.864C298.798 114.528 298.526 114.24 298.174 114.24C297.838 114.24 297.566 114.528 297.566 114.864V125.456ZM302.393 121.408C302.553 119.792 303.641 118.592 305.081 118.592C306.729 118.592 307.593 119.904 307.721 121.408H302.393ZM308.393 124.944C308.521 124.832 308.585 124.688 308.585 124.544C308.585 124.256 308.345 124.016 308.041 124.016C307.897 124.016 307.785 124.08 307.689 124.16C307.081 124.72 306.329 125.12 305.305 125.12C303.833 125.12 302.569 124.112 302.393 122.32H308.377C308.681 122.32 308.953 122.08 308.953 121.744C308.953 119.552 307.561 117.552 305.113 117.552C302.825 117.552 301.145 119.472 301.145 121.856V121.888C301.145 124.448 303.001 126.192 305.273 126.192C306.681 126.192 307.609 125.696 308.393 124.944ZM318.691 126.144C319.171 126.144 319.555 126.064 319.907 125.92C320.115 125.84 320.259 125.664 320.259 125.44C320.259 125.152 320.019 124.912 319.731 124.912C319.635 124.912 319.411 125.024 318.979 125.024C318.147 125.024 317.587 124.656 317.587 123.648V118.816H319.731C320.035 118.816 320.291 118.576 320.291 118.272C320.291 117.984 320.035 117.728 319.731 117.728H317.587V115.776C317.587 115.44 317.299 115.152 316.963 115.152C316.611 115.152 316.355 115.44 316.355 115.776V117.728H315.683C315.395 117.728 315.139 117.968 315.139 118.272C315.139 118.56 315.395 118.816 315.683 118.816H316.355V123.808C316.355 125.488 317.363 126.144 318.691 126.144ZM325.933 126.192C328.429 126.192 330.269 124.208 330.269 121.872V121.84C330.269 119.504 328.445 117.552 325.965 117.552C323.469 117.552 321.645 119.536 321.645 121.872V121.904C321.645 124.24 323.453 126.192 325.933 126.192ZM325.965 125.088C324.221 125.088 322.909 123.648 322.909 121.872V121.84C322.909 120.096 324.141 118.64 325.933 118.64C327.677 118.64 329.005 120.096 329.005 121.872V121.904C329.005 123.648 327.757 125.088 325.965 125.088ZM340.034 126.16C341.682 126.16 342.978 125.248 342.978 123.68V123.648C342.978 122.16 341.602 121.664 340.322 121.28C339.218 120.944 338.194 120.64 338.194 119.856V119.824C338.194 119.136 338.818 118.624 339.794 118.624C340.498 118.624 341.25 118.864 341.954 119.264C342.018 119.296 342.114 119.328 342.226 119.328C342.53 119.328 342.77 119.088 342.77 118.8C342.77 118.56 342.626 118.384 342.466 118.288C341.666 117.856 340.706 117.584 339.826 117.584C338.194 117.584 337.01 118.528 337.01 119.952V119.984C337.01 121.504 338.45 121.952 339.746 122.32C340.834 122.624 341.81 122.944 341.81 123.776V123.808C341.81 124.608 341.09 125.12 340.098 125.12C339.202 125.12 338.322 124.816 337.474 124.24C337.394 124.176 337.282 124.144 337.17 124.144C336.866 124.144 336.626 124.384 336.626 124.672C336.626 124.88 336.738 125.04 336.85 125.12C337.746 125.76 338.946 126.16 340.034 126.16ZM352.355 118.272C352.355 117.92 352.083 117.648 351.747 117.648C351.395 117.648 351.139 117.92 351.139 118.272V122.464C351.139 124.016 350.067 125.056 348.659 125.056C347.203 125.056 346.371 124.096 346.371 122.56V118.272C346.371 117.92 346.083 117.648 345.747 117.648C345.395 117.648 345.139 117.92 345.139 118.272V122.864C345.139 124.832 346.307 126.176 348.307 126.176C349.731 126.176 350.579 125.456 351.139 124.56V125.456C351.139 125.808 351.411 126.08 351.747 126.08C352.099 126.08 352.355 125.792 352.355 125.456V118.272ZM355.126 125.456C355.126 125.792 355.398 126.08 355.75 126.08C356.102 126.08 356.358 125.792 356.358 125.456V124.416C356.998 125.344 357.99 126.176 359.526 126.176C361.526 126.176 363.478 124.576 363.478 121.872V121.84C363.478 119.12 361.51 117.552 359.526 117.552C358.006 117.552 357.03 118.4 356.358 119.392V114.864C356.358 114.512 356.086 114.24 355.734 114.24C355.398 114.24 355.126 114.512 355.126 114.864V125.456ZM359.302 125.072C357.766 125.072 356.31 123.792 356.31 121.872V121.84C356.31 119.952 357.766 118.656 359.302 118.656C360.87 118.656 362.214 119.904 362.214 121.856V121.888C362.214 123.888 360.902 125.072 359.302 125.072ZM368.487 126.16C370.135 126.16 371.431 125.248 371.431 123.68V123.648C371.431 122.16 370.055 121.664 368.775 121.28C367.671 120.944 366.647 120.64 366.647 119.856V119.824C366.647 119.136 367.271 118.624 368.247 118.624C368.951 118.624 369.703 118.864 370.407 119.264C370.471 119.296 370.567 119.328 370.679 119.328C370.983 119.328 371.223 119.088 371.223 118.8C371.223 118.56 371.079 118.384 370.919 118.288C370.119 117.856 369.159 117.584 368.279 117.584C366.647 117.584 365.463 118.528 365.463 119.952V119.984C365.463 121.504 366.903 121.952 368.199 122.32C369.287 122.624 370.263 122.944 370.263 123.776V123.808C370.263 124.608 369.543 125.12 368.551 125.12C367.655 125.12 366.775 124.816 365.927 124.24C365.847 124.176 365.735 124.144 365.623 124.144C365.319 124.144 365.079 124.384 365.079 124.672C365.079 124.88 365.191 125.04 365.303 125.12C366.199 125.76 367.399 126.16 368.487 126.16ZM377.448 126.192C378.84 126.192 379.784 125.648 380.568 124.864C380.664 124.768 380.728 124.624 380.728 124.48C380.728 124.192 380.472 123.92 380.168 123.92C380.008 123.92 379.896 124 379.816 124.08C379.208 124.656 378.456 125.088 377.512 125.088C375.784 125.088 374.472 123.664 374.472 121.872V121.84C374.472 120.064 375.752 118.64 377.432 118.64C378.424 118.64 379.096 119.088 379.688 119.632C379.784 119.712 379.928 119.776 380.088 119.776C380.408 119.776 380.68 119.52 380.68 119.184C380.68 118.992 380.584 118.832 380.488 118.752C379.752 118.08 378.824 117.552 377.448 117.552C375.032 117.552 373.208 119.536 373.208 121.872V121.904C373.208 124.224 375.032 126.192 377.448 126.192ZM382.86 125.456C382.86 125.808 383.132 126.08 383.484 126.08C383.836 126.08 384.092 125.792 384.092 125.456V122.64C384.092 120.256 385.404 119.056 387.004 118.864C387.324 118.816 387.548 118.576 387.548 118.24C387.548 117.888 387.308 117.616 386.94 117.616C385.9 117.616 384.7 118.448 384.092 119.824V118.272C384.092 117.92 383.82 117.648 383.468 117.648C383.132 117.648 382.86 117.936 382.86 118.272V125.456ZM389.345 115.344C389.345 115.728 389.665 116 390.065 116C390.481 116 390.801 115.728 390.801 115.344V115.136C390.801 114.736 390.481 114.48 390.065 114.48C389.665 114.48 389.345 114.736 389.345 115.136V115.344ZM389.457 125.456C389.457 125.808 389.729 126.08 390.081 126.08C390.433 126.08 390.689 125.808 390.689 125.456V118.272C390.689 117.92 390.417 117.648 390.065 117.648C389.729 117.648 389.457 117.936 389.457 118.272V125.456ZM393.548 125.456C393.548 125.792 393.82 126.08 394.172 126.08C394.524 126.08 394.78 125.792 394.78 125.456V124.416C395.42 125.344 396.412 126.176 397.948 126.176C399.948 126.176 401.9 124.576 401.9 121.872V121.84C401.9 119.12 399.932 117.552 397.948 117.552C396.428 117.552 395.452 118.4 394.78 119.392V114.864C394.78 114.512 394.508 114.24 394.156 114.24C393.82 114.24 393.548 114.512 393.548 114.864V125.456ZM397.724 125.072C396.188 125.072 394.732 123.792 394.732 121.872V121.84C394.732 119.952 396.188 118.656 397.724 118.656C399.292 118.656 400.636 119.904 400.636 121.856V121.888C400.636 123.888 399.324 125.072 397.724 125.072ZM404.909 121.408C405.069 119.792 406.157 118.592 407.597 118.592C409.245 118.592 410.109 119.904 410.237 121.408H404.909ZM410.909 124.944C411.037 124.832 411.101 124.688 411.101 124.544C411.101 124.256 410.861 124.016 410.557 124.016C410.413 124.016 410.301 124.08 410.205 124.16C409.597 124.72 408.845 125.12 407.821 125.12C406.349 125.12 405.085 124.112 404.909 122.32H410.893C411.197 122.32 411.469 122.08 411.469 121.744C411.469 119.552 410.077 117.552 407.629 117.552C405.341 117.552 403.661 119.472 403.661 121.856V121.888C403.661 124.448 405.517 126.192 407.789 126.192C409.197 126.192 410.125 125.696 410.909 124.944ZM413.642 125.456C413.642 125.808 413.914 126.08 414.266 126.08C414.618 126.08 414.874 125.792 414.874 125.456V122.64C414.874 120.256 416.186 119.056 417.786 118.864C418.106 118.816 418.33 118.576 418.33 118.24C418.33 117.888 418.09 117.616 417.722 117.616C416.682 117.616 415.482 118.448 414.874 119.824V118.272C414.874 117.92 414.602 117.648 414.25 117.648C413.914 117.648 413.642 117.936 413.642 118.272V125.456ZM422.862 126.16C424.51 126.16 425.806 125.248 425.806 123.68V123.648C425.806 122.16 424.43 121.664 423.15 121.28C422.046 120.944 421.022 120.64 421.022 119.856V119.824C421.022 119.136 421.646 118.624 422.622 118.624C423.326 118.624 424.078 118.864 424.782 119.264C424.846 119.296 424.942 119.328 425.054 119.328C425.358 119.328 425.598 119.088 425.598 118.8C425.598 118.56 425.454 118.384 425.294 118.288C424.494 117.856 423.534 117.584 422.654 117.584C421.022 117.584 419.838 118.528 419.838 119.952V119.984C419.838 121.504 421.278 121.952 422.574 122.32C423.662 122.624 424.638 122.944 424.638 123.776V123.808C424.638 124.608 423.918 125.12 422.926 125.12C422.03 125.12 421.15 124.816 420.302 124.24C420.222 124.176 420.11 124.144 419.998 124.144C419.694 124.144 419.454 124.384 419.454 124.672C419.454 124.88 419.566 125.04 419.678 125.12C420.574 125.76 421.774 126.16 422.862 126.16Z" fill="#999999"/>
<path d="M268 37.6667V33.6667C268 31.5449 267.157 29.5101 265.657 28.0098C264.157 26.5095 262.122 25.6667 260 25.6667C257.878 25.6667 255.843 26.5095 254.343 28.0098C252.843 29.5101 252 31.5449 252 33.6667V37.6667H268ZM246.667 40.3333V56.324C246.665 56.499 246.698 56.6726 246.764 56.8349C246.83 56.9971 246.927 57.1448 247.05 57.2695C247.173 57.3942 247.319 57.4934 247.48 57.5616C247.641 57.6297 247.814 57.6654 247.989 57.6667H272.011C272.727 57.6667 273.333 57.0667 273.333 56.324V40.3427V40.3333H246.667ZM244 39.6667V39C244 38.6464 244.14 38.3072 244.391 38.0572C244.641 37.8071 244.98 37.6667 245.333 37.6667H249.333V33.6667C249.333 30.8377 250.457 28.1246 252.458 26.1242C254.458 24.1238 257.171 23 260 23C262.829 23 265.542 24.1238 267.542 26.1242C269.543 28.1246 270.667 30.8377 270.667 33.6667V37.6667H274.667C275.403 37.6667 276 38.2587 276 39V57.6747C275.998 58.3817 275.715 59.0589 275.214 59.5575C274.712 60.056 274.034 60.3351 273.327 60.3333H246.673C245.966 60.3351 245.288 60.056 244.786 59.5575C244.285 59.0589 244.002 58.3817 244 57.6747V39.6667ZM261.333 47V52.3467C261.333 53.0747 260.741 53.6667 260 53.6667C259.649 53.6667 259.312 53.528 259.062 53.2809C258.812 53.0337 258.67 52.698 258.667 52.3467V47H257.32C257.146 46.9995 256.973 46.9645 256.812 46.8972C256.652 46.8298 256.506 46.7314 256.383 46.6075C256.26 46.4836 256.163 46.3367 256.098 46.1753C256.032 46.0138 255.999 45.841 256 45.6667C256 45.3153 256.139 44.9782 256.386 44.7285C256.633 44.4789 256.969 44.3368 257.32 44.3333H262.68C263.408 44.3333 264 44.9253 264 45.6667C264 46.018 263.861 46.3551 263.614 46.6048C263.367 46.8545 263.031 46.9965 262.68 47H261.333Z" fill="#999999"/>
</svg>
