<svg width="40" height="40" viewBox="0 0 40 40" fill="none" xmlns="http://www.w3.org/2000/svg">
<path d="M20.002 0C31.03 0 40 8.972 40 19.998C40 31.024 31.03 40 20.002 40C8.97 40 0 31.026 0 19.998C0 8.968 8.97 0 20.002 0ZM20.002 4C11.18 4 4 11.178 4 19.998C4 28.818 11.18 36 20.002 36C28.82 36 36 28.816 36 19.998C36 11.18 28.82 4 20.002 4ZM22.702 14C23.448 14 24.076 14.136 24.602 14.414C25.122 14.69 25.47 15.034 25.636 15.456C25.808 15.876 25.89 16.586 25.89 17.59V18.09H23.242V17.154C23.242 16.716 23.208 16.436 23.14 16.318C23.074 16.198 22.958 16.142 22.804 16.142C22.7222 16.1397 22.6414 16.1611 22.5715 16.2037C22.5016 16.2463 22.4455 16.3082 22.41 16.382C22.324 16.542 22.28 16.788 22.28 17.118C22.28 17.538 22.328 17.858 22.426 18.07C22.522 18.284 22.79 18.542 23.232 18.846C24.502 19.712 25.302 20.426 25.632 20.982C25.962 21.54 26.126 22.436 26.126 23.674C26.13 24.58 26.036 25.24 25.854 25.668C25.674 26.094 25.318 26.454 24.794 26.742C24.2314 27.0393 23.6022 27.188 22.966 27.174C22.202 27.174 21.548 27.006 21.008 26.674C20.468 26.338 20.118 25.918 19.948 25.402C19.782 24.886 19.698 24.154 19.698 23.208V22.382H22.35V23.918C22.35 24.392 22.386 24.696 22.462 24.832C22.536 24.966 22.668 25.032 22.86 25.032C22.9476 25.0338 23.0339 25.0103 23.1085 24.9641C23.183 24.918 23.2426 24.8513 23.28 24.772C23.376 24.604 23.42 24.346 23.42 24.01C23.42 23.262 23.332 22.778 23.154 22.55C22.974 22.32 22.532 21.938 21.818 21.404C21.112 20.862 20.638 20.466 20.412 20.224C20.178 19.98 19.992 19.642 19.838 19.208C19.688 18.776 19.612 18.228 19.612 17.554C19.612 16.586 19.716 15.878 19.934 15.428C20.148 14.984 20.494 14.628 20.972 14.38C21.448 14.126 22.03 14 22.702 14ZM13.432 14.274V16.802H11.74V26.912H8.886V16.8H7.2V14.274H13.432ZM32.768 14.274V16.802H31.076V26.912H28.22V16.8H26.532V14.274H32.766H32.768ZM18.838 14.274V16.8H16.938V19.198H18.716V21.6H16.936V24.378H19.028V26.908H14.086V14.272H18.838V14.274Z" fill="#FF7171"/>
</svg>
