<?xml version="1.0" standalone="no"?><!DOCTYPE svg PUBLIC "-//W3C//DTD SVG 1.1//EN" "http://www.w3.org/Graphics/SVG/1.1/DTD/svg11.dtd"><svg t="1676097629896" class="icon" viewBox="0 0 1024 1024" version="1.1" xmlns="http://www.w3.org/2000/svg" p-id="861" width="200" height="200" xmlns:xlink="http://www.w3.org/1999/xlink"><path d="M666.432 896a32 32 0 0 1 0 64h-320a32 32 0 1 1 0-64h320z m-139.2-824.32a32 32 0 0 1 3.488 3.52l314.432 366.816a32 32 0 0 1-24.32 52.8h-122.432v288a32 32 0 0 1-32 32h-320a32 32 0 0 1-32-32v-288H192a32 32 0 0 1-24.32-52.8l314.464-366.848a32 32 0 0 1 45.12-3.456z" fill="#f4ea2a" p-id="862"></path></svg>